<svg width="275" height="95" viewBox="0 0 275 95" fill="none" xmlns="http://www.w3.org/2000/svg">
<g clip-path="url(#clip0_1502_1826)">
<path d="M65.9983 46.2321V52.7893H63.9492V34.3472H68.0573C72.1994 34.3472 75.7925 36.3181 75.7925 40.3023C75.7925 44.2611 72.1713 46.2321 68.0573 46.2321H65.9983ZM65.9983 36.1914V44.3879H68.0573C71.157 44.3879 73.7626 43.071 73.7626 40.3026C73.7626 37.4823 71.1844 36.1914 68.0573 36.1914H65.9983Z" fill="#4C6264"/>
<path d="M104.932 34.3472V47.0181C104.932 50.2779 102.14 52.8392 98.2454 52.8392C94.3778 52.8392 91.6128 50.2519 91.6128 47.0181V34.3472H93.6619V47.0181C93.6619 49.2685 95.6118 50.9763 98.2454 50.9763C100.906 50.9763 102.883 49.2945 102.883 47.0181V34.3472H104.932Z" fill="#4C6264"/>
<path d="M132.617 52.7893H130.34L126.527 45.4519C125.837 45.5572 125.141 45.6125 124.443 45.6173H122.554V52.7893H120.505V34.3472H124.47C128.393 34.3472 131.821 36.1679 131.821 39.919C131.821 41.9889 130.697 43.9093 128.475 44.8148L132.617 52.7893ZM124.47 43.7731C127.378 43.7731 129.764 42.5695 129.764 39.9823C129.764 37.395 127.378 36.1914 124.47 36.1914H122.554V43.7731H124.47Z" fill="#4C6264"/>
<path d="M151.037 46.2321V52.7893H148.988V34.3472H153.067C157.21 34.3472 160.803 36.3181 160.803 40.3023C160.803 44.2611 157.181 46.2321 153.067 46.2321H151.037ZM151.037 36.1914V44.3879H153.067C156.167 44.3879 158.773 43.071 158.773 40.3026C158.773 37.4823 156.195 36.1914 153.067 36.1914H151.037Z" fill="#4C6264"/>
<path d="M183.201 52.8393C177.386 52.8393 173.848 48.027 173.848 43.5768C173.848 39.1273 177.386 34.3149 183.201 34.3149C188.989 34.3149 192.527 39.1526 192.527 43.5768C192.527 48.001 188.989 52.8393 183.201 52.8393ZM183.201 36.1778C178.758 36.1778 175.905 39.9549 175.905 43.5768C175.905 47.1994 178.758 50.9764 183.201 50.9764C187.645 50.9764 190.47 47.1994 190.47 43.5768C190.47 39.9549 187.645 36.1778 183.201 36.1778Z" fill="#4C6264"/>
<path d="M204.913 50.019L204.721 49.7347L206.449 48.7513L206.668 49.0623C207.546 50.33 209.823 50.9764 211.551 50.9764C213.91 50.9764 216.242 49.8119 216.242 47.768C216.242 46.5003 215.501 45.6987 214.13 45.1294C213.306 44.7672 212.429 44.4563 211.551 44.146C210.674 43.8098 209.795 43.4989 208.918 43.1634C206.779 42.2831 205.736 40.8863 205.736 38.8423C205.736 35.9448 208.945 34.3149 211.853 34.3149C213.773 34.3149 215.831 34.9354 217.119 36.255L217.366 36.4881L215.858 37.7557L215.583 37.4708C214.705 36.5913 213.252 36.1778 211.853 36.1778C209.878 36.1778 207.794 37.1605 207.794 38.8683C207.794 40.1619 208.396 40.8863 209.768 41.4556C210.619 41.7918 211.496 42.1021 212.347 42.439C213.06 42.6973 213.773 42.9556 214.459 43.2146C215.13 43.4782 215.773 43.8076 216.379 44.198C217.531 44.9743 218.327 46.0609 218.327 47.768C218.327 51.0024 214.898 52.8393 211.551 52.8393C209.192 52.8393 206.23 51.9079 204.913 50.019Z" fill="#4C6264"/>
<path d="M236.69 50.9451H245.297V52.7893H234.641V34.3472H244.682V36.1914H236.69V41.724H243.657V43.5682H236.69V50.9451Z" fill="#4C6264"/>
<path d="M261.586 50.019L261.395 49.7347L263.123 48.7513L263.342 49.0623C264.22 50.33 266.496 50.9764 268.224 50.9764C270.583 50.9764 272.915 49.8119 272.915 47.768C272.915 46.5003 272.175 45.6987 270.803 45.1294C269.98 44.7672 269.102 44.4563 268.224 44.146C267.347 43.8098 266.469 43.4989 265.591 43.1634C263.452 42.2831 262.41 40.8863 262.41 38.8423C262.41 35.9448 265.619 34.3149 268.526 34.3149C270.447 34.3149 272.503 34.9354 273.793 36.255L274.04 36.4881L272.531 37.7557L272.257 37.4708C271.379 36.5913 269.925 36.1778 268.526 36.1778C266.552 36.1778 264.467 37.1605 264.467 38.8683C264.467 40.1619 265.07 40.8863 266.441 41.4556C267.292 41.7918 268.169 42.1021 269.02 42.439C269.733 42.6973 270.447 42.9556 271.132 43.2146C271.803 43.4782 272.446 43.8076 273.052 44.198C274.204 44.9743 275 46.0609 275 47.768C275 51.0024 271.571 52.8393 268.224 52.8393C265.866 52.8393 262.903 51.9079 261.586 50.019Z" fill="#4C6264"/>
<path d="M76.0943 87.4198H73.8173L70.0045 80.0824C69.3145 80.1877 68.6178 80.243 67.9198 80.2479H65.9983V87.4198H63.9492V69.1826H67.9471C71.8702 69.1826 75.2984 70.9548 75.2984 74.7066C75.2984 76.7766 74.1739 78.6184 71.9523 79.5239L76.0943 87.4198ZM67.9471 78.4037C70.8552 78.4037 73.2417 77.3025 73.2417 74.7153C73.2417 72.128 70.8552 71.0268 67.9471 71.0268H65.9983V78.4037H67.9471Z" fill="#4C6264"/>
<path d="M95.096 85.5756H103.497V87.4198H93.0469V69.1826H103.088V71.0268H95.096V76.5595H101.858V78.4037H95.096V85.5756Z" fill="#4C6264"/>
<path d="M133.799 86.3355L133.497 86.4913C131.988 87.2669 129.876 87.5259 128.23 87.5259C122.47 87.5259 119.124 82.5585 119.124 78.2374C119.124 73.9171 122.47 68.9756 128.23 68.9756C130.041 68.9756 131.385 69.3378 132.975 69.9583L133.332 70.1141L132.454 71.8471L132.043 71.6401C130.946 71.0708 129.547 70.8385 128.23 70.8385C123.869 70.8385 121.181 74.7194 121.181 78.2374C121.181 81.7821 123.869 85.6371 128.23 85.6371C129.711 85.6371 131.33 85.456 132.564 84.8355L132.975 84.6544L133.799 86.3355Z" fill="#4C6264"/>
<path d="M154.709 87.5783C148.894 87.5783 145.356 82.7659 145.356 78.3158C145.356 73.8656 148.894 69.0532 154.709 69.0532C160.497 69.0532 164.035 73.8916 164.035 78.3158C164.035 82.74 160.497 87.5783 154.709 87.5783ZM154.709 70.9161C150.266 70.9161 147.413 74.6939 147.413 78.3158C147.413 81.9377 150.266 85.7154 154.709 85.7154C159.153 85.7154 161.978 81.9377 161.978 78.3158C161.978 74.6939 159.153 70.9161 154.709 70.9161Z" fill="#4C6264"/>
<path d="M190.254 69.1826L183.89 87.4198H181.97L175.606 69.1826H177.773L182.93 84.0072L188.115 69.1826H190.254Z" fill="#4C6264"/>
<path d="M208.003 85.5756H216.609V87.4198H205.954V69.1826H215.994V71.0268H208.003V76.5595H214.97V78.4037H208.003V85.5756Z" fill="#4C6264"/>
<path d="M245.503 87.4198H243.226L239.413 80.0824C238.723 80.1877 238.026 80.243 237.328 80.2479H235.461V87.4198H233.412V69.1826H237.356C241.279 69.1826 244.707 70.9548 244.707 74.7066C244.707 76.7766 243.583 78.6184 241.361 79.5239L245.503 87.4198ZM237.356 78.4037C240.264 78.4037 242.65 77.3025 242.65 74.7153C242.65 72.128 240.264 71.0268 237.356 71.0268H235.461V78.4037H237.356Z" fill="#4C6264"/>
<path d="M274.424 69.1826L274.122 69.6612C273.902 70.0234 272.527 72.1772 271.239 74.2991C269.894 76.4722 268.862 78.419 268.657 78.4709V82.507C268.657 84.5769 268.862 86.7241 268.862 87.0351V87.4198H266.812V78.4969C266.607 78.4449 265.489 76.4529 264.145 74.2797C262.828 72.1578 261.411 69.9974 261.192 69.6612L260.846 69.1826H263.205L267.648 76.4272L272.092 69.1826H274.424Z" fill="#4C6264"/>
<path opacity="0.63" d="M30.7124 12.0903C30.9944 19.7557 27.0295 25.5616 27.0295 25.5616C27.0295 25.5616 28.3812 12.4407 22.8503 7.51747C16.4982 1.86345 9.87246 0.304225 0.280762 0.108398C14.7299 12.6674 6.58007 36.6576 12.8737 49.9487C15.649 55.8084 21.2067 60.1737 23.3898 61.6947C20.9686 61.9208 18.5539 61.2 16.6528 59.6837C21.158 68.1219 25.7502 74.8908 40.6837 84.5933C21.5414 58.4247 24.2709 41.9542 17.5124 24.5768C22.2005 34.9626 24.8598 45.4403 29.6843 57.8425C34.6354 70.2401 44.4251 85.8376 53.6893 94.053C50.9286 89.8276 48.3926 84.3555 46.1851 77.4162C43.9783 70.4768 55.5875 63.6782 51.002 44.1729C50.5276 52.6497 47.0592 57.7796 44.6389 61.3733C51.002 44.1729 47.4613 21.8085 30.7124 12.0903Z" fill="url(#paint0_linear_1502_1826)" stroke="white" stroke-miterlimit="10"/>
</g>
<defs>
<linearGradient id="paint0_linear_1502_1826" x1="0.28077" y1="47.0807" x2="53.6893" y2="47.0807" gradientUnits="userSpaceOnUse">
<stop offset="0.41935" stop-color="#466365"/>
<stop offset="1" stop-color="#D2B59E"/>
</linearGradient>
<clipPath id="clip0_1502_1826">
<rect width="275" height="94.6365" fill="white"/>
</clipPath>
</defs>
</svg>
