<svg width="36" height="36" viewBox="0 0 36 36" fill="none" xmlns="http://www.w3.org/2000/svg">
<path d="M28.4252 22.3004C27.6882 21.533 26.7992 21.1227 25.857 21.1227C24.9225 21.1227 24.0259 21.5254 23.2585 22.2928L20.8575 24.6862C20.66 24.5799 20.4624 24.4811 20.2725 24.3823C19.9989 24.2455 19.7406 24.1164 19.5203 23.9796C17.2712 22.5512 15.2274 20.6897 13.2671 18.2811C12.3173 17.0806 11.6791 16.07 11.2156 15.0443C11.8386 14.4744 12.4161 13.8818 12.9783 13.3119C13.1911 13.0992 13.4038 12.8789 13.6166 12.6661C15.2122 11.0705 15.2122 9.00385 13.6166 7.40826L11.5423 5.334C11.3068 5.09846 11.0636 4.85532 10.8357 4.61218C10.3798 4.1411 9.90113 3.65483 9.40726 3.19894C8.67025 2.46953 7.78887 2.08203 6.86191 2.08203C5.93495 2.08203 5.03838 2.46953 4.27857 3.19894C4.27098 3.20654 4.27098 3.20654 4.26338 3.21414L1.68004 5.82027C0.707491 6.79282 0.152834 7.97812 0.0312648 9.35336C-0.151088 11.572 0.502344 13.6387 1.00382 14.9911C2.2347 18.3115 4.07343 21.3887 6.81632 24.6862C10.1443 28.66 14.1484 31.798 18.7225 34.009C20.47 34.8372 22.8026 35.8174 25.4088 35.9845C25.5683 35.9921 25.7355 35.9997 25.8874 35.9997C27.6426 35.9997 29.1166 35.3691 30.2715 34.1154C30.2791 34.1002 30.2943 34.0926 30.3019 34.0774C30.697 33.5987 31.1529 33.1657 31.6316 32.7022C31.9583 32.3906 32.2926 32.0639 32.6193 31.722C33.3715 30.9394 33.7666 30.0277 33.7666 29.0931C33.7666 28.1509 33.3639 27.2468 32.5965 26.487L28.4252 22.3004ZM31.1453 30.3012C31.1377 30.3012 31.1377 30.3088 31.1453 30.3012C30.849 30.6203 30.545 30.909 30.2183 31.2281C29.7244 31.6992 29.223 32.1931 28.7519 32.7478C27.9845 33.5683 27.0803 33.9558 25.895 33.9558C25.7811 33.9558 25.6595 33.9558 25.5455 33.9482C23.2889 33.8039 21.1918 32.9225 19.619 32.1703C15.3185 30.0884 11.5423 27.1328 8.40431 23.387C5.81338 20.2642 4.08103 17.3769 2.93372 14.2769C2.2271 12.385 1.96877 10.911 2.08274 9.52052C2.15872 8.63155 2.50063 7.89454 3.13127 7.2639L5.7222 4.67297C6.09451 4.32346 6.48961 4.1335 6.87711 4.1335C7.35578 4.1335 7.74329 4.42223 7.98642 4.66537C7.99402 4.67297 8.00162 4.68056 8.00922 4.68816C8.4727 5.12125 8.91338 5.56954 9.37687 6.04821C9.6124 6.29135 9.85554 6.53449 10.0987 6.78522L12.1729 8.85949C12.9783 9.66488 12.9783 10.4095 12.1729 11.2149C11.9526 11.4352 11.7399 11.6556 11.5195 11.8683C10.8813 12.5217 10.2734 13.1296 9.6124 13.7222C9.59721 13.7374 9.58201 13.745 9.57442 13.7602C8.92098 14.4137 9.04255 15.0519 9.17932 15.485C9.18691 15.5078 9.19451 15.5306 9.20211 15.5534C9.74157 16.8602 10.5014 18.0911 11.6563 19.5575L11.6639 19.5651C13.7609 22.1485 15.972 24.162 18.4109 25.7044C18.7225 25.9019 19.0416 26.0615 19.3455 26.2134C19.619 26.3502 19.8774 26.4794 20.0977 26.6161C20.1281 26.6313 20.1585 26.6541 20.1889 26.6693C20.4472 26.7985 20.6904 26.8593 20.9411 26.8593C21.5717 26.8593 21.9668 26.4642 22.096 26.335L24.6945 23.7365C24.9529 23.4781 25.3632 23.1666 25.8418 23.1666C26.3129 23.1666 26.7004 23.4629 26.936 23.7213C26.9436 23.7289 26.9436 23.7289 26.9512 23.7365L31.1377 27.923C31.9203 28.698 31.9203 29.4958 31.1453 30.3012Z" fill="#CDB6A1"/>
<path d="M19.4293 8.56313C21.42 8.89745 23.2283 9.83961 24.6719 11.2832C26.1156 12.7269 27.0501 14.5352 27.392 16.5259C27.4756 17.0274 27.9087 17.3769 28.4026 17.3769C28.4634 17.3769 28.5165 17.3693 28.5773 17.3617C29.1396 17.2705 29.5119 16.7386 29.4207 16.1764C29.0104 13.7678 27.8707 11.572 26.1308 9.83201C24.3908 8.09206 22.195 6.95235 19.7864 6.54205C19.2241 6.45088 18.6999 6.82318 18.6011 7.37784C18.5023 7.9325 18.867 8.47196 19.4293 8.56313Z" fill="#CDB6A1"/>
<path d="M35.9321 15.8804C35.2559 11.9142 33.3868 8.30511 30.5147 5.43305C27.6427 2.56098 24.0336 0.691864 20.0674 0.0156379C19.5127 -0.0831367 18.9885 0.296766 18.8897 0.851423C18.7985 1.41368 19.1708 1.93794 19.7331 2.03672C23.2738 2.63696 26.5029 4.31613 29.0711 6.87668C31.6392 9.44482 33.3108 12.674 33.911 16.2147C33.9946 16.7162 34.4277 17.0657 34.9216 17.0657C34.9824 17.0657 35.0356 17.0581 35.0963 17.0505C35.651 16.9669 36.0309 16.435 35.9321 15.8804Z" fill="#CDB6A1"/>
</svg>
