<svg width="29" height="30" viewBox="0 0 29 30" fill="none" xmlns="http://www.w3.org/2000/svg">
<g clip-path="url(#clip0_1604_3054)">
<path d="M11.0616 23.2864C11.3701 23.2864 11.6205 23.0362 11.6205 22.7275C11.6205 22.4189 11.3701 22.1687 11.0616 22.1687H4.3557C4.04704 22.1687 3.79688 22.4189 3.79688 22.7275C3.79688 23.0362 4.04704 23.2864 4.3557 23.2864H11.0616Z" fill="white"/>
<path d="M28.6074 15.3176L22.3618 13.3679C22.3046 13.3484 22.2442 13.338 22.1824 13.338C22.1822 13.338 22.1817 13.338 22.1815 13.338C22.12 13.338 22.0593 13.3484 22.0023 13.3676L21.1715 13.6272V6.07343C21.1715 5.9191 21.1088 5.77939 21.0078 5.67832L16.0901 0.760643C15.989 0.659355 15.8493 0.596924 15.695 0.596924H2.06418C1.13971 0.596924 0.387695 1.34894 0.387695 2.2734V11.2705C0.387695 11.5792 0.637858 11.8293 0.946522 11.8293C1.25519 11.8293 1.50535 11.5792 1.50535 11.2705V2.2734C1.50535 1.96518 1.75595 1.71458 2.06418 1.71458H15.1361V5.03261C15.1361 5.91473 15.8537 6.63226 16.7356 6.63226H20.0538V13.976L15.7565 15.3176C15.5232 15.3906 15.3643 15.6067 15.3643 15.8512V15.9077H4.35602C4.04736 15.9077 3.79719 16.1579 3.79719 16.4665C3.79719 16.7752 4.04736 17.0253 4.35602 17.0253H15.3643V19.0382H4.35602C4.04736 19.0382 3.79719 19.2884 3.79719 19.597C3.79719 19.9057 4.04736 20.1559 4.35602 20.1559H15.3643V21.0779C15.3643 22.8413 15.9244 24.4962 16.8886 25.8559H2.06418C1.75595 25.8559 1.50535 25.6053 1.50535 25.2971V16.3C1.50535 15.9913 1.25519 15.7411 0.946522 15.7411C0.637858 15.7411 0.387695 15.9913 0.387695 16.3V25.2971C0.387695 26.2215 1.13971 26.9736 2.06418 26.9736H17.8395C18.9713 28.0871 20.4282 28.883 22.0767 29.1988C22.1114 29.2056 22.1468 29.2089 22.1819 29.2089C22.2171 29.2089 22.2525 29.2056 22.2872 29.1988C26.1767 28.4536 28.9996 25.0382 28.9996 21.0779V15.8512C28.9996 15.6067 28.8407 15.3906 28.6074 15.3176ZM16.7356 5.5146C16.4699 5.5146 16.2538 5.29849 16.2538 5.03261V2.50479L19.2634 5.5146H16.7356ZM27.882 21.0779C27.882 24.4671 25.4915 27.3949 22.1819 28.0803C18.8724 27.3949 16.4819 24.4671 16.4819 21.0779V16.2622L22.1819 14.4825L27.882 16.2622V21.0779Z" fill="white"/>
<path d="M22.0154 15.7053L17.9919 16.9616C17.7585 17.0345 17.5996 17.2504 17.5996 17.4949V21.0777C17.5996 23.7863 19.4232 26.1787 22.034 26.8956C22.0824 26.9089 22.1322 26.9155 22.182 26.9155C22.2318 26.9155 22.2815 26.9089 22.33 26.8956C24.9408 26.1787 26.7644 23.7863 26.7644 21.0779V17.4951C26.7644 17.2506 26.6055 17.0345 26.3721 16.9616L22.3485 15.7053C22.2401 15.6715 22.1239 15.6715 22.0154 15.7053ZM25.6467 17.9059V21.0777C25.6467 23.2329 24.2296 25.1425 22.182 25.7747C20.1344 25.1425 18.7173 23.2329 18.7173 21.0777V17.9059L22.182 16.8243L25.6467 17.9059Z" fill="white"/>
<path d="M20.7889 20.6224C20.5706 20.4041 20.217 20.4041 19.9987 20.6224C19.7804 20.8406 19.7804 21.1945 19.9987 21.4126L21.2862 22.7003C21.3953 22.8094 21.5383 22.864 21.6813 22.864C21.8243 22.864 21.9672 22.8094 22.0764 22.7003L24.3654 20.4113C24.5837 20.193 24.5837 19.8391 24.3654 19.6208C24.1471 19.4028 23.7935 19.4028 23.575 19.6208L21.6813 21.5147L20.7889 20.6224Z" fill="white"/>
<path d="M12.4033 6.07275H9.72089C9.41223 6.07275 9.16207 6.32313 9.16207 6.63158V8.30806H7.48558C7.17692 8.30806 6.92676 8.55844 6.92676 8.86689V11.5493C6.92676 11.8579 7.17692 12.1081 7.48558 12.1081H9.16207V13.7846C9.16207 14.0932 9.41223 14.3434 9.72089 14.3434H12.4033C12.7117 14.3434 12.9621 14.0932 12.9621 13.7846V12.1081H14.6386C14.947 12.1081 15.1974 11.8579 15.1974 11.5493V8.86689C15.1974 8.55844 14.947 8.30806 14.6386 8.30806H12.9621V6.63158C12.9621 6.32313 12.7117 6.07275 12.4033 6.07275ZM14.0797 9.42572V10.9904H12.4033C12.0946 10.9904 11.8444 11.2408 11.8444 11.5493V13.2257H10.2797V11.5493C10.2797 11.2408 10.0293 10.9904 9.72089 10.9904H8.04441V9.42572H9.72089C10.0293 9.42572 10.2797 9.17555 10.2797 8.86689V7.19041H11.8444V8.86689C11.8444 9.17555 12.0946 9.42572 12.4033 9.42572H14.0797Z" fill="white"/>
<path d="M0.946522 14.344C1.09343 14.344 1.23772 14.2842 1.34163 14.1803C1.44554 14.0763 1.50535 13.9321 1.50535 13.7851C1.50535 13.6382 1.44554 13.4939 1.34163 13.39C1.23772 13.2861 1.09343 13.2263 0.946522 13.2263C0.799612 13.2263 0.655321 13.2861 0.551414 13.39C0.447507 13.4939 0.387695 13.6382 0.387695 13.7851C0.387695 13.9321 0.447507 14.0763 0.551414 14.1803C0.655321 14.2842 0.799612 14.344 0.946522 14.344Z" fill="white"/>
</g>
<defs>
<clipPath id="clip0_1604_3054">
<rect width="28.6119" height="28.6119" fill="white" transform="translate(0.387695 0.596924)"/>
</clipPath>
</defs>
</svg>
