<svg width="85" height="82" viewBox="0 0 85 82" fill="none" xmlns="http://www.w3.org/2000/svg">
<path fill-rule="evenodd" clip-rule="evenodd" d="M57.3182 39.4961L51.7147 30.9617C39.0469 30.2971 29.2186 23.5963 29.2186 15.5171C29.2186 6.9607 40.2422 0 53.7893 0C67.3364 0 78.36 6.9607 78.36 15.5171C78.36 22.276 71.6834 28.1169 61.6493 30.2324L59.7381 39.0655C59.684 39.3171 59.5542 39.5473 59.3652 39.7267C59.1762 39.9062 58.9365 40.0267 58.6768 40.0729C58.4171 40.1191 58.1492 40.0889 57.9072 39.9862C57.6652 39.8835 57.4601 39.7128 57.3182 39.4961ZM75.7037 15.5171C75.7037 8.38698 65.8754 2.58618 53.7893 2.58618C41.7032 2.58618 31.8749 8.38698 31.8749 15.5171C31.8749 22.3446 40.9382 28.007 52.509 28.404C52.7239 28.4111 52.9339 28.469 53.1209 28.5726C53.3078 28.6762 53.4661 28.8225 53.5821 28.9988L57.8069 35.4306L59.2307 28.8618C59.2848 28.6121 59.4136 28.3836 59.6007 28.2051C59.7879 28.0265 60.0251 27.9059 60.2826 27.8583C69.3618 26.176 75.7037 21.1006 75.7037 15.5171ZM35.5631 69.5527C35.1942 67.7537 34.4333 66.0527 33.3317 64.5644C32.2301 63.0761 30.8135 61.8351 29.1774 60.9252C27.6046 60.0553 25.9218 59.3893 24.1716 58.9442C25.7317 57.8037 26.8837 56.2144 27.4647 54.4012C28.0456 52.588 28.026 50.6428 27.4086 48.8411C26.7912 47.0394 25.6073 45.4724 24.0245 44.362C22.4417 43.2517 20.5403 42.6542 18.5894 42.6542C16.6386 42.6542 14.7372 43.2517 13.1544 44.362C11.5716 45.4724 10.3877 47.0394 9.77032 48.8411C9.15291 50.6428 9.13328 52.588 9.71422 54.4012C10.2952 56.2144 11.4472 57.8037 13.0073 58.9442C11.2585 59.3896 9.57702 60.0556 8.00547 60.9252C6.36959 61.835 4.95311 63.0758 3.85154 64.5639C2.74998 66.052 1.98894 67.7527 1.61976 69.5514L0.0259843 77.3267C-0.0357005 77.6259 0.013253 77.9366 0.164188 78.204C0.315123 78.4714 0.558316 78.6783 0.850761 78.7879C12.2702 83.0707 24.9166 83.0707 36.3361 78.7879C36.6286 78.6783 36.8717 78.4714 37.0227 78.204C37.1736 77.9366 37.2226 77.6259 37.1609 77.3267L35.5631 69.5527ZM11.9527 51.7236C11.9527 50.4448 12.3422 49.1948 13.0719 48.1316C13.8016 47.0683 14.8387 46.2396 16.0521 45.7503C17.2656 45.2609 18.6008 45.1329 19.889 45.3824C21.1771 45.6318 22.3604 46.2476 23.2891 47.1518C24.2179 48.056 24.8503 49.208 25.1066 50.4622C25.3628 51.7164 25.2313 53.0164 24.7287 54.1978C24.226 55.3792 23.3749 56.389 22.2828 57.0994C21.1908 57.8098 19.9068 58.189 18.5934 58.189C16.8329 58.187 15.145 57.5051 13.9001 56.2931C12.6551 55.081 11.9548 53.4377 11.9527 51.7236ZM2.85095 76.7565L4.22823 70.0583C4.52283 68.6221 5.13042 67.2642 6.01 66.0761C6.88958 64.888 8.02068 63.8975 9.32697 63.1713C12.1589 61.6302 15.3491 60.821 18.5934 60.821C21.8377 60.821 25.0279 61.6302 27.8599 63.1713C29.1664 63.8975 30.2976 64.8883 31.1772 66.0766C32.0568 67.2649 32.6643 68.6231 32.9586 70.0596L34.3359 76.7565C24.1576 80.3061 13.0293 80.3061 2.85095 76.7565ZM84.9741 77.3267L83.3804 69.5475C83.0114 67.7485 82.2505 66.0475 81.1489 64.5592C80.0474 63.0709 78.6307 61.8299 76.9947 60.92C75.4203 60.0516 73.7361 59.3874 71.9849 58.9442C73.545 57.8037 74.697 56.2144 75.2779 54.4012C75.8589 52.588 75.8392 50.6428 75.2218 48.8411C74.6044 47.0394 73.4205 45.4724 71.8378 44.362C70.255 43.2517 68.3536 42.6542 66.4027 42.6542C64.4519 42.6542 62.5504 43.2517 60.9677 44.362C59.3849 45.4724 58.201 47.0394 57.5836 48.8411C56.9662 50.6428 56.9466 52.588 57.5275 54.4012C58.1084 56.2144 59.2605 57.8037 60.8205 58.9442C59.0718 59.3896 57.3903 60.0556 55.8187 60.9252C54.1829 61.835 52.7664 63.0758 51.6648 64.5639C50.5633 66.052 49.8022 67.7527 49.433 69.5514L47.8393 77.3267C47.7776 77.6259 47.8265 77.9366 47.9775 78.204C48.1284 78.4714 48.3716 78.6783 48.664 78.7879C60.0835 83.0707 72.7299 83.0707 84.1494 78.7879C84.4418 78.6783 84.685 78.4714 84.8359 78.204C84.9869 77.9366 85.0358 77.6259 84.9741 77.3267ZM59.766 51.7236C59.766 50.4448 60.1555 49.1948 60.8851 48.1316C61.6148 47.0683 62.652 46.2396 63.8654 45.7503C65.0788 45.2609 66.4141 45.1329 67.7022 45.3824C68.9904 45.6318 70.1737 46.2476 71.1024 47.1518C72.0311 48.056 72.6636 49.208 72.9198 50.4622C73.176 51.7164 73.0445 53.0164 72.5419 54.1978C72.0393 55.3792 71.1881 56.389 70.0961 57.0994C69.004 57.8098 67.7201 58.189 66.4067 58.189C64.6461 58.187 62.9583 57.5051 61.7133 56.2931C60.4684 55.081 59.7681 53.4377 59.766 51.7236ZM50.6642 76.7565L52.0415 70.0583C52.3361 68.6221 52.9437 67.2642 53.8233 66.0761C54.7029 64.888 55.834 63.8975 57.1402 63.1713C59.9722 61.6302 63.1624 60.821 66.4067 60.821C69.651 60.821 72.8412 61.6302 75.6732 63.1713C76.9797 63.8975 78.1109 64.8883 78.9905 66.0766C79.8701 67.2649 80.4776 68.6231 80.7719 70.0596L82.1492 76.7565C71.9708 80.3061 60.8426 80.3061 50.6642 76.7565ZM50.4292 33.5854C50.3867 33.4207 50.3113 33.2657 50.2072 33.1294C50.1031 32.993 49.9725 32.878 49.8228 32.7908C49.6731 32.7036 49.5072 32.646 49.3346 32.6213C49.1619 32.5965 48.986 32.6051 48.8168 32.6466C44.5113 33.6813 40.0416 33.9008 35.651 33.2932C35.3383 33.2488 35.0198 33.3164 34.7545 33.4832L28.5547 37.3185L29.5322 33.0332C29.6009 32.7323 29.5569 32.4172 29.4081 32.145C29.2593 31.8728 29.0155 31.6614 28.7207 31.5488C22.3801 29.1281 18.5936 25.0678 18.5936 20.6894C18.5936 16.3899 22.2566 12.371 28.3913 9.93997C28.5529 9.87595 28.7 9.78157 28.8241 9.66222C28.9482 9.54286 29.047 9.40087 29.1148 9.24436C29.1826 9.08784 29.218 8.91986 29.2191 8.75001C29.2202 8.58015 29.1869 8.41175 29.1211 8.25443C29.0554 8.0971 28.9584 7.95392 28.8359 7.83306C28.7133 7.71221 28.5674 7.61604 28.4067 7.55006C28.2459 7.48408 28.0734 7.44957 27.8989 7.44851C27.7245 7.44745 27.5515 7.47985 27.3899 7.54387C20.2193 10.3861 15.9373 15.3011 15.9373 20.6894C15.9373 25.907 19.9364 30.6462 26.6953 33.5311L25.2622 39.8052C25.2049 40.055 25.225 40.3159 25.32 40.5546C25.4151 40.7933 25.5808 40.9992 25.7962 41.1461C26.0115 41.2931 26.2668 41.3745 26.5298 41.38C26.7927 41.3855 27.0514 41.3149 27.273 41.1771L35.7731 35.9117C40.3459 36.4882 44.9888 36.2312 49.465 35.1539C49.8064 35.0703 50.0998 34.8581 50.2806 34.564C50.4614 34.2699 50.5148 33.9179 50.4292 33.5854ZM51.797 9.05163H45.1563V11.6378H51.797V9.05163ZM54.4533 9.05163H57.1096V11.6378H54.4533V9.05163ZM66.4067 9.05163H59.766V11.6378H66.4067V9.05163ZM41.172 14.224H57.1097V16.8102H41.172V14.224ZM66.4067 14.224H59.766V16.8102H66.4067V14.224ZM41.172 19.3963H46.4845V21.9825H41.172V19.3963ZM63.7504 19.3963H49.1408V21.9825H63.7504V19.3963Z" fill="#CDB6A1"/>
</svg>
