<svg width="64" height="64" viewBox="0 0 64 64" fill="none" xmlns="http://www.w3.org/2000/svg">
<path d="M1.72708 19.8087L7.70971 12.8962C8.78783 11.6506 10.351 10.9069 11.891 10.9069C13.0991 10.9069 14.1716 11.3774 14.911 12.2319L23.214 21.825C24.997 23.8854 25.0176 26.7395 23.264 28.7656L20.2726 32.222C20.1217 32.3964 19.9266 32.7022 19.9751 33.3434C20.1223 35.2967 22.3242 38.4049 25.454 41.0774C29.3145 44.3739 33.5475 46.0364 34.6981 44.7075L37.6896 41.2511C39.4486 39.2187 42.2771 38.8306 44.5695 40.3072L55.4526 47.3197C56.4032 47.9322 57.0213 48.9289 57.1931 50.1256C57.4113 51.647 56.8996 53.297 55.8243 54.5396L49.8416 61.4521C48.6916 62.7802 46.7715 63.9965 43.5962 63.9967C41.4872 63.9967 38.8252 63.4605 35.4667 62.0641C29.9983 59.7906 23.6201 55.625 17.5068 50.3335C5.49796 39.9397 -4.03817 26.4702 1.72708 19.8087V19.8087ZM5.81783 32.62C8.68183 37.4051 13.658 43.0347 19.4702 48.0652C25.3477 53.1527 31.4377 57.1402 36.6182 59.294C39.6732 60.5642 45.1587 62.2785 47.5732 59.4889L53.5557 52.5764C54.055 51.9995 54.3171 51.2047 54.2233 50.5514C54.1756 50.2186 54.0425 49.9797 53.8275 49.8412L42.9443 42.8287C42.0966 42.2826 40.8443 42.1897 39.9578 43.2141L36.9662 46.6705C36.1686 47.592 34.2602 48.9375 30.4383 47.5947C28.2781 46.8357 25.8161 45.3314 23.5057 43.3585C22.0557 42.1201 17.2991 37.7544 16.9835 33.5687C16.8867 32.2864 17.2396 31.1417 18.0041 30.2585L20.9956 26.8021C21.8793 25.781 21.6072 24.5521 20.9456 23.7879L12.6428 14.1951C12.4773 14.0039 12.2245 13.9069 11.8911 13.9069C11.23 13.9069 10.4786 14.2809 9.97858 14.8595L3.99608 21.772C1.59296 24.5477 4.10608 29.7601 5.81783 32.62V32.62ZM63.9993 3.66687V22.4007C63.9982 23.3729 63.6115 24.3049 62.9241 24.9923C62.2367 25.6797 61.3047 26.0664 60.3326 26.0675H30.7152C29.7431 26.0664 28.8111 25.6797 28.1237 24.9923C27.4363 24.3049 27.0496 23.3729 27.0485 22.4007V3.66687C27.0495 2.69472 27.4362 1.76269 28.1236 1.07525C28.811 0.38782 29.743 0.00112488 30.7152 0L60.3326 0C61.3047 0.00112488 62.2368 0.38782 62.9242 1.07525C63.6116 1.76269 63.9982 2.69472 63.9993 3.66687ZM60.9993 22.4007V4.7125L51.5397 14.7962L60.9993 22.4125C60.9993 22.4087 60.9993 22.4047 60.9993 22.4007ZM30.0671 22.5517L39.696 14.7926L30.0485 4.50887V22.4007C30.0487 22.4516 30.0549 22.5023 30.0671 22.5517V22.5517ZM58.4926 3H32.7465L45.6196 16.7221L58.4926 3ZM34.2082 23.0675H57.0282L49.4813 16.9905L46.7136 19.9405C46.5733 20.09 46.4039 20.2091 46.2157 20.2905C46.0276 20.372 45.8248 20.414 45.6198 20.414C45.4148 20.414 45.212 20.372 45.0239 20.2905C44.8358 20.2091 44.6664 20.09 44.5261 19.9405L41.7548 16.9865L34.2082 23.0675Z" fill="#CDB6A1"/>
</svg>
