<svg width="51" height="51" viewBox="0 0 51 51" fill="none" xmlns="http://www.w3.org/2000/svg">
<path d="M48.6094 33.4688C48.8207 33.4688 49.0234 33.3848 49.1729 33.2354C49.3223 33.086 49.4062 32.8833 49.4062 32.6719V21.5157C49.4064 21.3983 49.3806 21.2824 49.3307 21.1762C49.2808 21.07 49.2081 20.9761 49.1178 20.9013L46.3375 18.6007L47.7974 11.0886C47.8376 10.8811 47.7938 10.6662 47.6756 10.4911C47.5574 10.3159 47.3744 10.1949 47.167 10.1546L40.7123 8.89954C40.6088 8.87736 40.5018 8.87607 40.3977 8.89572C40.2936 8.91537 40.1945 8.95558 40.1061 9.014C40.0177 9.07242 39.9419 9.14787 39.883 9.23594C39.8242 9.32401 39.7835 9.42293 39.7633 9.52693C39.7431 9.63092 39.7438 9.73789 39.7655 9.84159C39.7871 9.94529 39.8292 10.0436 39.8893 10.1309C39.9494 10.2181 40.0263 10.2925 40.1155 10.3496C40.2047 10.4068 40.3044 10.4456 40.4087 10.4638L46.0825 11.5667L43.5325 24.6713C43.5325 24.6713 43.5325 24.6785 43.5325 24.6817L41.5969 26.2842L43.1906 18.0979C43.2244 17.9244 43.1997 17.7447 43.1202 17.5869C43.0407 17.4291 42.911 17.3022 42.7515 17.2261C41.8534 16.7985 41.0862 16.1381 40.5298 15.3135C39.9734 14.4889 39.6482 13.5302 39.588 12.5373C39.5772 12.3609 39.5081 12.193 39.3916 12.0602C39.275 11.9273 39.1176 11.837 38.9441 11.8034L38.25 11.6687V5.57816C38.25 5.36682 38.166 5.16413 38.0166 5.01469C37.8672 4.86524 37.6645 4.78129 37.4531 4.78129H29.6382L26.0084 1.77627C25.8655 1.65783 25.6856 1.59302 25.5 1.59302C25.3144 1.59302 25.1345 1.65783 24.9916 1.77627L21.3618 4.78129H13.5469C13.3355 4.78129 13.1328 4.86524 12.9834 5.01469C12.834 5.16413 12.75 5.36682 12.75 5.57816V8.1704L9.43978 8.75371C9.23161 8.79038 9.04653 8.90824 8.92525 9.08137C8.80398 9.2545 8.75645 9.46872 8.79312 9.67689C8.82979 9.88506 8.94765 10.0701 9.12078 10.1914C9.29391 10.3127 9.50812 10.3602 9.7163 10.3236L26.8778 7.29543L31.679 34.4904L30.7084 35.2936L30.1282 34.8952L26.52 14.4314C26.4893 14.2575 26.4016 14.0987 26.2708 13.9799C26.1399 13.8612 25.9734 13.7894 25.7972 13.7756C24.8056 13.6984 23.8528 13.3567 23.0381 12.7861C22.2234 12.2156 21.5766 11.437 21.165 10.5315C21.0917 10.3708 20.9671 10.2389 20.8108 10.1567C20.6544 10.0745 20.4752 10.0466 20.3012 10.0773L12.0408 11.5332C11.8668 11.5639 11.708 11.6516 11.5893 11.7824C11.4706 11.9133 11.3987 12.0798 11.385 12.256C11.3076 13.2477 10.9659 14.2005 10.3953 15.0153C9.82479 15.8301 9.0463 16.4771 8.14087 16.889C7.98012 16.9623 7.84828 17.0869 7.76606 17.2432C7.68384 17.3996 7.65591 17.5789 7.68666 17.7528L9.1545 26.0786L7.26113 24.5119L4.90795 11.1738L6.57661 10.8814C6.78478 10.8448 6.96991 10.727 7.09125 10.554C7.2126 10.3809 7.26023 10.1668 7.22367 9.95858C7.18711 9.75041 7.06935 9.56529 6.89629 9.44394C6.72324 9.32259 6.50906 9.27496 6.30089 9.31152L3.84652 9.74183C3.74343 9.76002 3.64493 9.79834 3.55665 9.8546C3.46838 9.91086 3.39205 9.98396 3.33204 10.0697C3.27202 10.1555 3.22949 10.2523 3.20688 10.3545C3.18427 10.4567 3.18201 10.5623 3.20025 10.6654L4.60833 18.6469L1.88222 20.9021C1.79197 20.9768 1.71933 21.0706 1.66947 21.1767C1.61961 21.2827 1.59375 21.3985 1.59375 21.5157V48.6094C1.59375 48.8208 1.67771 49.0235 1.82715 49.1729C1.97659 49.3223 2.17928 49.4063 2.39062 49.4063H48.6094C48.8207 49.4063 49.0234 49.3223 49.1729 49.1729C49.3223 49.0235 49.4062 48.8208 49.4062 48.6094V35.8594C49.4062 35.6481 49.3223 35.4454 49.1729 35.2959C49.0234 35.1465 48.8207 35.0625 48.6094 35.0625C48.398 35.0625 48.1953 35.1465 48.0459 35.2959C47.8965 35.4454 47.8125 35.6481 47.8125 35.8594V47.0954L32.0718 36.2363L47.8125 23.2098V32.6719C47.8125 32.8833 47.8965 33.086 48.0459 33.2354C48.1953 33.3848 48.398 33.4688 48.6094 33.4688ZM9.3577 18.0564C10.2876 17.5309 11.0882 16.8042 11.7009 15.9293C12.3136 15.0545 12.723 14.0537 12.899 13.0003L19.9976 11.7492C20.5229 12.6789 21.2495 13.4792 22.1243 14.0917C22.999 14.7042 23.9997 15.1132 25.053 15.2889L28.2891 33.6282L25.9542 32.0185C25.8213 31.927 25.6637 31.878 25.5024 31.878C25.341 31.878 25.1835 31.927 25.0506 32.0185L20.294 35.2984L18.2445 33.6019C18.5204 33.6408 18.7986 33.6613 19.0772 33.6632C19.4491 33.663 19.8202 33.6305 20.1864 33.566C21.4799 33.3466 22.6751 32.736 23.6109 31.8165C24.5466 30.8969 25.178 29.7126 25.4199 28.4231C25.6619 27.1337 25.5027 25.801 24.9639 24.6048C24.4251 23.4086 23.5326 22.4063 22.4066 21.7329C21.2806 21.0596 19.9752 20.7476 18.6664 20.8391C17.3577 20.9305 16.1084 21.4209 15.0869 22.2442C14.0654 23.0676 13.3209 24.1842 12.9536 25.4437C12.5864 26.7032 12.614 28.0451 13.0329 29.2884L11.0511 27.6484L9.3577 18.0564ZM22.993 30.0279C22.5421 30.6721 21.9392 31.1951 21.2378 31.5506C20.5364 31.9061 19.7582 32.0831 18.972 32.066C18.1859 32.0489 17.4161 31.8381 16.7308 31.4524C16.0456 31.0667 15.4661 30.5179 15.0436 29.8547C14.6211 29.1914 14.3687 28.4343 14.3088 27.6502C14.2489 26.8662 14.3833 26.0794 14.7001 25.3597C15.0169 24.64 15.5063 24.0095 16.1249 23.5242C16.7436 23.0388 17.4724 22.7135 18.2468 22.5771C18.5244 22.528 18.8057 22.5032 19.0875 22.503C20.2105 22.5047 21.2971 22.9016 22.1567 23.6241C23.0164 24.3467 23.5943 25.3488 23.7891 26.4547C23.8994 27.0733 23.8858 27.7077 23.7492 28.3211C23.6125 28.9344 23.3555 29.5146 22.993 30.0279ZM5.36616 22.9437L3.64012 21.5157L4.92628 20.451L5.36616 22.9437ZM3.1875 23.2098L18.9282 36.2363L6.54314 44.778C6.45415 44.8362 6.3777 44.9116 6.31829 44.9997C6.25887 45.0879 6.2177 45.1871 6.19719 45.2914C6.17669 45.3957 6.17726 45.503 6.19888 45.6071C6.2205 45.7112 6.26272 45.8099 6.32307 45.8975C6.38342 45.985 6.46067 46.0595 6.55028 46.1167C6.63988 46.174 6.74003 46.2127 6.84482 46.2306C6.94961 46.2485 7.05692 46.2453 7.16044 46.2211C7.26396 46.1969 7.3616 46.1522 7.44759 46.0897L25.5 33.6401L46.0506 47.8125H3.1875V23.2098ZM45.9908 20.3825L47.3599 21.5157L45.4665 23.0823L45.9908 20.3825ZM41.5116 18.372L39.6621 27.8851L38.25 29.0541V14.127C38.7471 15.9107 39.9161 17.4323 41.5116 18.372ZM36.6562 30.3729L35.0625 31.6926V13.3381C35.0625 13.1615 35.0037 12.9899 34.8955 12.8503C34.7874 12.7106 34.6359 12.6109 34.4648 12.5668C33.5016 12.318 32.6225 11.8157 31.919 11.1123C31.2155 10.4088 30.7133 9.52971 30.4645 8.56644C30.4204 8.39542 30.3206 8.24392 30.181 8.13574C30.0414 8.02756 29.8698 7.96883 29.6932 7.96879H28.6142L28.3329 6.37504H36.6562V30.3729ZM25.5 3.4266L27.1384 4.78129H23.8616L25.5 3.4266ZM14.3438 6.37504H22.9341L14.3438 7.8891V6.37504ZM28.8955 9.56254H29.1035C29.4598 10.5695 30.0367 11.484 30.792 12.2393C31.5473 12.9945 32.4618 13.5715 33.4688 13.9278V33.0114L33.0902 33.3246L28.8955 9.56254Z" fill="white"/>
<path d="M15.7687 18.2564C16.1683 18.5383 16.6454 18.6898 17.1345 18.6899C17.4838 18.6895 17.8288 18.6129 18.1454 18.4653C18.4619 18.3177 18.7424 18.1027 18.9673 17.8354C19.1921 17.5681 19.3558 17.2548 19.4469 16.9177C19.538 16.5805 19.5544 16.2274 19.4948 15.8833C19.4265 15.4961 19.2638 15.1318 19.021 14.8226C18.7782 14.5134 18.463 14.2688 18.1031 14.1105C17.7433 13.9522 17.3499 13.8852 16.958 13.9152C16.566 13.9452 16.1875 14.0715 15.8559 14.2827C15.5244 14.494 15.2501 14.7838 15.0573 15.1264C14.8645 15.4689 14.7591 15.8538 14.7506 16.2468C14.742 16.6399 14.8305 17.0289 15.0082 17.3796C15.186 17.7303 15.4474 18.0317 15.7695 18.2572L15.7687 18.2564ZM16.4859 15.841C16.5459 15.7553 16.6223 15.6822 16.7107 15.626C16.799 15.5698 16.8975 15.5316 17.0006 15.5135C17.0464 15.5056 17.0928 15.5016 17.1393 15.5016C17.2645 15.5016 17.3879 15.5311 17.4995 15.5877C17.6111 15.6443 17.7079 15.7264 17.7819 15.8274C17.8559 15.9283 17.905 16.0453 17.9254 16.1688C17.9457 16.2923 17.9367 16.4189 17.8991 16.5382C17.8614 16.6576 17.7961 16.7664 17.7086 16.8559C17.621 16.9453 17.5136 17.0129 17.3951 17.0531C17.2765 17.0933 17.1502 17.105 17.0263 17.0873C16.9024 17.0696 16.7844 17.0229 16.6819 16.9511C16.5961 16.8911 16.523 16.8148 16.4667 16.7265C16.4104 16.6382 16.3721 16.5397 16.3539 16.4367C16.3357 16.3336 16.338 16.2279 16.3606 16.1257C16.3833 16.0235 16.4258 15.9268 16.4859 15.841Z" fill="white"/>
<path d="M30.2812 39.8438H20.7188C20.5074 39.8438 20.3047 39.9277 20.1553 40.0771C20.0058 40.2266 19.9219 40.4293 19.9219 40.6406C19.9219 40.852 20.0058 41.0547 20.1553 41.2041C20.3047 41.3535 20.5074 41.4375 20.7188 41.4375H30.2812C30.4926 41.4375 30.6953 41.3535 30.8447 41.2041C30.9942 41.0547 31.0781 40.852 31.0781 40.6406C31.0781 40.4293 30.9942 40.2266 30.8447 40.0771C30.6953 39.9277 30.4926 39.8438 30.2812 39.8438Z" fill="white"/>
</svg>
