<svg width="162" height="162" viewBox="0 0 162 162" fill="none" xmlns="http://www.w3.org/2000/svg">
<path d="M159.3 145.8H151.2V94.5C151.199 93.0089 149.989 91.801 148.498 91.802C147.618 91.8027 146.793 92.232 146.289 92.9529L108.489 146.953C107.634 148.175 107.932 149.858 109.154 150.713C109.607 151.03 110.147 151.2 110.7 151.2H145.8V159.3C145.8 160.791 147.009 162 148.5 162C149.991 162 151.2 160.791 151.2 159.3V151.2H159.3C160.791 151.2 162 149.991 162 148.5C162 147.009 160.791 145.8 159.3 145.8ZM145.8 145.8H115.884L145.8 103.064V145.8Z" fill="#CDB6A1"/>
<path d="M110.7 156.6H78.7349L108.454 121.605C108.521 121.525 108.584 121.441 108.643 121.354C114.234 113.079 112.371 101.876 104.404 95.8555C94.7159 88.8945 81.2192 91.1055 74.2586 100.793C71.619 104.467 70.1995 108.877 70.2002 113.4C70.2002 114.891 71.4091 116.1 72.9002 116.1C74.3913 116.1 75.6002 114.891 75.6002 113.4C75.5992 104.453 82.8517 97.1994 91.7985 97.1984C95.1897 97.1981 98.4955 98.2619 101.25 100.24C106.831 104.517 108.131 112.393 104.22 118.236L70.8428 157.553C69.8779 158.69 70.0176 160.394 71.1546 161.359C71.6423 161.773 72.2606 162 72.9002 162H110.7C112.191 162 113.4 160.791 113.4 159.3C113.4 157.809 112.191 156.6 110.7 156.6Z" fill="#CDB6A1"/>
<path d="M72.9594 143.151C73.0158 141.661 71.8531 140.408 70.363 140.351C70.3627 140.351 70.3623 140.351 70.362 140.351C35.1371 139.044 6.86509 110.823 5.4945 75.6H16.2C17.6911 75.6 18.9 74.3911 18.9 72.9C18.9 71.4089 17.6911 70.2 16.2 70.2H5.4945C6.84551 35.0396 35.0392 6.84686 70.2 5.4972V13.5C70.2 14.9911 71.4089 16.2 72.9 16.2C74.3911 16.2 75.6 14.9911 75.6 13.5V5.4972C110.279 6.83842 138.269 34.2994 140.27 68.9472L129.74 58.4172C128.668 57.3811 126.959 57.4108 125.923 58.4833C124.912 59.5296 124.912 61.1884 125.923 62.235L140.994 77.3064C141.278 77.65 141.644 77.9163 142.058 78.0813C142.163 78.113 142.271 78.1393 142.379 78.1596C142.564 78.2264 142.756 78.2727 142.952 78.2973C142.979 78.2973 143.003 78.2973 143.03 78.2973C143.057 78.2973 143.081 78.2973 143.105 78.2973C143.311 78.2818 143.514 78.2419 143.71 78.1785C143.821 78.165 143.931 78.1444 144.04 78.1164C144.405 77.9865 144.738 77.7782 145.014 77.5062L160.291 62.235C161.327 61.1624 161.297 59.4533 160.225 58.4172C159.178 57.4067 157.52 57.4067 156.473 58.4172L145.681 69.201C143.752 30.4999 111.841 0.0948375 73.0917 0.0378C73.0242 0.0351 72.9675 0 72.9 0C72.8325 0 72.7758 0.0351 72.7083 0.0378C32.5964 0.0928125 0.0928125 32.5964 0.0378 72.7083C0.0378 72.7758 0 72.8325 0 72.9C0 72.9675 0.0351 73.0242 0.0378 73.0917C0.104963 112.214 31.0672 144.294 70.1622 145.749H70.2621C71.713 145.748 72.9044 144.601 72.9594 143.151Z" fill="#CDB6A1"/>
<path d="M109.175 36.6255C108.12 35.5715 106.411 35.5715 105.357 36.6255L76.3426 65.637C74.1505 64.6596 71.6466 64.6596 69.4549 65.637L55.7173 51.8994C54.6447 50.8636 52.9352 50.8933 51.8995 51.9659C50.889 53.0121 50.889 54.6709 51.8995 55.7172L65.6101 69.4278C63.685 73.4575 65.3914 78.2851 69.4214 80.2099C72.5146 81.6875 76.2035 81.054 78.6268 78.6294C81.0632 76.2135 81.6906 72.5145 80.1874 69.4305L109.175 40.4433C110.229 39.3889 110.229 37.6798 109.175 36.6255ZM74.8096 74.8082C74.8093 74.8085 74.8093 74.8085 74.809 74.8089C73.7411 75.8298 72.059 75.8298 70.9912 74.8089C69.9365 73.7545 69.9365 72.0451 70.9905 70.9904C72.0448 69.9357 73.7543 69.9357 74.809 70.9897C75.8636 72.0441 75.8636 73.7538 74.8096 74.8082Z" fill="#CDB6A1"/>
</svg>
