<svg width="163" height="163" viewBox="0 0 163 163" fill="none" xmlns="http://www.w3.org/2000/svg">
<path d="M160.612 148.038H140.007C142.774 145.111 144.296 141.304 144.296 137.26C144.296 133.066 142.663 129.123 139.698 126.158C137.671 124.131 135.127 122.697 132.343 122.013C129.943 121.423 127.322 121.454 124.763 122.101L105.512 126.975L107.594 113.35C108.93 105.663 111.073 98.0914 113.963 90.8452C113.971 90.8242 113.979 90.8032 113.987 90.7819L119.251 76.407C122.923 66.3806 120.914 55.0925 114.009 46.9482L95.5849 25.217L88.1289 12.5756C87.0047 10.6699 84.8157 9.78072 82.6811 10.3633C82.2574 10.4789 81.8629 10.6473 81.5003 10.8574C81.1377 10.6473 80.7433 10.4789 80.3195 10.3633C78.183 9.7804 75.9952 10.6699 74.8718 12.5756L67.4196 25.2103L55.0491 39.6419C54.1911 40.6431 54.3067 42.1505 55.3079 43.0085C56.3089 43.8668 57.8163 43.7506 58.6746 42.7497L69.5297 30.0863L74.1214 34.5344L64.5505 46.9062C58.1859 55.1342 56.5884 66.2624 60.382 75.9485L62.3494 80.9713C65.1707 88.1751 71.9932 92.8298 79.7299 92.8298H83.271C91.0078 92.8298 97.8302 88.1751 100.652 80.9713L102.619 75.9482C106.413 66.2621 104.815 55.1339 98.4504 46.9062L88.8796 34.5344L89.5886 33.8477L93.4611 30.0959L110.367 50.0357C116.164 56.8721 117.85 66.3474 114.767 74.7639L109.515 89.107C106.506 96.6575 104.276 104.546 102.886 112.555C102.883 112.571 102.88 112.587 102.878 112.603L100.487 128.246L82.0925 132.903L62.4662 127.934L60.1228 112.603C60.1203 112.587 60.1177 112.571 60.1152 112.555C58.7243 104.543 56.4922 96.6502 53.4818 89.0965L48.1464 74.947C44.9297 66.4153 46.6174 56.8151 52.5516 49.8924C53.4096 48.8912 53.294 47.3837 52.2924 46.5254C51.2912 45.6671 49.7838 45.7833 48.9258 46.7843C41.8566 55.031 39.8459 66.4678 43.6783 76.6314L49.0213 90.8016C49.0267 90.8156 49.0318 90.8296 49.0375 90.8436C51.9273 98.0895 54.0698 105.661 55.406 113.347L57.4409 126.661L39.4215 122.1C36.8628 121.452 34.2418 121.421 31.8423 122.011C29.0583 122.696 26.5152 124.129 24.4872 126.156C21.522 129.122 19.8889 133.065 19.8889 137.258C19.8889 141.303 21.4113 145.11 24.1784 148.036H2.3877C1.06873 148.036 0 149.105 0 150.424C0 151.743 1.06873 152.812 2.3877 152.812H69.3683C70.6872 152.812 71.756 151.743 71.756 150.424C71.756 149.105 70.6872 148.036 69.3683 148.036H34.8559C34.6512 147.947 34.4309 147.883 34.1978 147.854C31.4584 147.51 29.5046 146.624 27.8638 144.984C25.8002 142.92 24.6636 140.177 24.6636 137.258C24.6636 134.34 25.7998 131.596 27.8635 129.533C29.2744 128.123 31.0442 127.125 32.9814 126.649C34.6251 126.245 36.4464 126.273 38.2486 126.729L81.4965 137.677C81.5016 137.679 81.5064 137.68 81.5115 137.681L98.806 142.06V148.037H78.9187C77.5998 148.037 76.531 149.106 76.531 150.424C76.531 151.743 77.5998 152.812 78.9187 152.812H160.612C161.931 152.812 163 151.743 163 150.424C163 149.106 161.931 148.038 160.612 148.038ZM83.889 14.9916C83.9151 14.9728 83.9721 14.9572 83.9816 14.955C83.9819 14.955 83.995 14.9668 84.0157 15.0018L90.62 26.1995L86.6517 30.044L85.9605 30.7135C84.6126 28.5343 83.8877 26.0132 83.8877 23.4135V15.0365C83.8877 15.0123 83.8896 14.9967 83.889 14.9916ZM78.9846 15.0018C78.9971 14.9808 79.0066 14.9684 79.0082 14.9636C79.0407 14.9598 79.097 14.976 79.1072 14.9792C79.1072 14.9792 79.1126 14.9961 79.1126 15.0365V23.4132C79.1126 26.0129 78.388 28.534 77.0398 30.7132L76.85 30.5292L72.3806 26.1991L78.9846 15.0018ZM94.6724 49.8284C100.015 56.7352 101.356 66.0765 98.1718 74.2071L96.2044 79.2302C94.1045 84.591 89.0279 88.0551 83.2704 88.0551H79.7293C73.9718 88.0551 68.8952 84.591 66.7953 79.2302L64.8278 74.2071C61.6433 66.0765 62.9842 56.7352 68.3272 49.8284L79.175 35.8056C80.0715 34.7964 80.849 33.7026 81.4997 32.5437C82.1504 33.7026 82.9278 34.7964 83.8243 35.8056L94.6724 49.8284ZM91.8215 135.366L125.936 126.73C127.739 126.274 129.56 126.246 131.203 126.65C133.14 127.126 134.911 128.123 136.321 129.534C138.384 131.598 139.521 134.341 139.521 137.259C139.521 140.178 138.385 142.921 136.321 144.985C134.124 147.181 131.404 148.037 126.619 148.037H123.953C122.91 142.233 117.827 137.814 111.728 137.814H101.491L91.8215 135.366ZM103.581 142.59H111.728C115.181 142.59 118.105 144.89 119.053 148.038H103.581V142.59Z" fill="#CDB6A1"/>
<path d="M81.4999 50.793C75.773 50.793 71.1138 55.4522 71.1138 61.1791V71.7034C71.1138 77.4304 75.773 82.0896 81.4999 82.0896C87.2269 82.0896 91.8861 77.4304 91.8861 71.7034V61.1791C91.8861 55.4522 87.2269 50.793 81.4999 50.793ZM87.1107 71.7034C87.1107 74.7969 84.5937 77.3142 81.4999 77.3142C78.4061 77.3142 75.8892 74.7973 75.8892 71.7034V61.1791C75.8892 58.0853 78.4061 55.5684 81.4999 55.5684C84.5937 55.5684 87.1107 58.0853 87.1107 61.1791V71.7034Z" fill="#CDB6A1"/>
</svg>
