<svg width="148" height="148" viewBox="0 0 148 148" fill="none" xmlns="http://www.w3.org/2000/svg">
<path d="M71.1467 133.384C69.9306 133.147 68.806 133.97 68.5971 135.088C68.3159 136.437 69.3818 137.681 70.7221 137.681C71.8851 137.681 72.8901 136.737 72.8901 135.513C72.8901 134.531 72.225 133.611 71.1467 133.384Z" fill="#CDB6A1"/>
<path d="M78.4805 129.141C78.4805 128.158 77.8098 127.239 76.7348 127.015C75.4058 126.752 74.1445 127.763 74.1445 129.141C74.1445 130.37 75.1506 131.308 76.3125 131.308C77.5252 131.308 78.4805 130.314 78.4805 129.141Z" fill="#CDB6A1"/>
<path d="M78.5938 138.949C79.7692 138.949 80.7628 137.992 80.7628 136.781C80.7628 135.749 80.0458 134.868 79.0161 134.654C77.6837 134.39 76.4258 135.411 76.4258 136.781C76.4258 137.99 77.416 138.949 78.5938 138.949Z" fill="#CDB6A1"/>
<path d="M84.185 132.578C85.3977 132.578 86.353 131.585 86.353 130.413C86.353 129.052 85.1075 128.02 83.7605 128.285C82.6821 128.508 82.0137 129.438 82.0137 130.413C82.0137 131.59 82.9734 132.578 84.185 132.578Z" fill="#CDB6A1"/>
<path d="M84.07 122.771C84.07 121.785 83.3981 120.866 82.3266 120.644C81.0156 120.381 79.7329 121.381 79.7329 122.771C79.7329 123.952 80.6961 124.94 81.9009 124.94C83.0797 124.94 84.07 123.987 84.07 122.771Z" fill="#CDB6A1"/>
<path d="M123.071 110.135L119.901 110.899C118.737 111.18 118.021 112.353 118.303 113.517C118.584 114.68 119.756 115.397 120.919 115.116L124.088 114.35C127.03 113.64 130.034 115.245 131.081 118.083C132.268 121.3 130.432 124.824 127.122 125.7L115.733 128.713C111.974 129.709 107.983 128.053 106.032 124.689L101.494 116.861C104.422 117.556 107.307 117.811 110.544 117.431C111.733 117.293 112.585 116.214 112.444 115.025C112.306 113.836 111.228 112.987 110.038 113.125C107.594 113.412 105.14 113.269 102.745 112.701L98.4972 111.695L76.6109 73.9501L81.7745 65.0445C82.8133 65.2387 83.8431 65.1789 84.8085 64.8966C84.8085 64.8955 84.8085 64.8955 84.8085 64.8955C86.3521 64.4416 87.7443 63.3971 88.6013 61.9179C89.9202 59.6438 116.744 13.3848 118.841 9.76811C120.646 6.65843 119.587 2.68043 116.477 0.876049C113.373 -0.922687 109.384 0.137585 107.585 3.24162L77.346 55.3903C75.9379 57.8168 76.2563 60.7955 78.0235 62.8687L74.1042 69.6266L70.1872 62.8721C71.9215 60.8305 72.2817 57.836 70.8635 55.3903L40.6237 3.24049C38.825 0.137585 34.8357 -0.922687 31.7317 0.876049C28.6288 2.67591 27.5685 6.66407 29.3672 9.76811C31.4765 13.4051 58.3006 59.6653 59.607 61.9179C60.9654 64.2586 63.6629 65.5628 66.4339 65.0445L71.5975 73.9501L49.7111 111.695L45.4644 112.701C39.4573 114.124 36.1286 112.788 25.1386 110.135C20.0596 108.908 14.8667 111.681 13.0589 116.582C10.9926 122.187 14.205 128.364 19.9783 129.893C32.4216 133.185 32.4995 133.336 34.6731 133.336C39.2236 133.336 43.5697 130.933 45.9285 126.863C46.7742 125.404 74.1053 78.2725 74.1053 78.2725C74.1053 78.2725 101.427 125.391 102.281 126.863C104.641 130.933 108.985 133.336 113.536 133.336C115.711 133.336 115.79 133.184 128.231 129.892C133.993 128.367 137.221 122.196 135.151 116.582C133.343 111.681 128.149 108.909 123.071 110.135ZM111.337 5.41636C111.936 4.38093 113.268 4.02751 114.302 4.62709C115.339 5.22892 115.692 6.55455 115.09 7.59224L90.3199 50.3114L86.5384 48.1818L111.337 5.41636ZM81.097 57.565L84.3625 51.934L88.144 54.0624L84.8503 59.742C84.2586 60.7628 82.9398 61.1422 81.8852 60.5313C80.8486 59.9284 80.4952 58.6027 81.097 57.565ZM57.8896 50.3114L33.1183 7.59224C32.5187 6.55793 32.8721 5.2278 33.9075 4.62709C34.9419 4.02751 36.2731 4.38093 36.8727 5.41636L61.6711 48.1818L57.8896 50.3114ZM66.3232 60.5302C65.2675 61.1422 63.9497 60.7617 63.3581 59.742L60.0655 54.0624L63.8459 51.934L67.1114 57.565C67.7121 58.6005 67.3575 59.9306 66.3232 60.5302ZM42.1763 124.689C40.2251 128.053 36.2381 129.708 32.4758 128.713L21.0872 125.7C17.772 124.822 15.9428 121.295 17.1272 118.083C18.1751 115.24 21.1843 113.642 24.1201 114.35C35.2479 117.037 39.2326 118.637 46.7144 116.861L42.1763 124.689Z" fill="#CDB6A1"/>
<path d="M92.6876 124.183C93.8404 123.86 94.5134 122.663 94.1893 121.51C89.8884 106.161 70.589 101.184 59.3663 112.407C51.2353 120.539 51.2353 133.77 59.3663 141.901C63.4324 145.967 68.7721 148.001 74.1142 148C83.5798 147.999 91.6984 141.688 94.1893 132.799C94.5134 131.645 93.8404 130.449 92.6876 130.125C91.5324 129.802 90.3367 130.475 90.0137 131.628C86.615 143.758 71.3364 147.738 62.4331 138.834C55.9924 132.395 55.9924 121.914 62.4331 115.473C71.3376 106.569 86.6161 110.553 90.0137 122.68C90.3378 123.834 91.5358 124.506 92.6876 124.183Z" fill="#CDB6A1"/>
</svg>
