<svg width="154" height="154" viewBox="0 0 154 154" fill="none" xmlns="http://www.w3.org/2000/svg">
<path d="M137.263 100.58C137.114 100.331 136.957 100.093 136.801 99.882C135.246 97.708 132.933 96.2708 130.294 95.8368C127.669 95.4031 125.007 96.0215 122.841 97.5771L94.1453 118.067H64.1667C62.7524 118.067 61.6001 116.917 61.6001 115.5C61.6001 114.084 62.7524 112.934 64.1667 112.934H80.8501C85.8037 112.934 89.8335 108.904 89.8335 103.95C89.8335 103.922 89.8308 103.686 89.8284 103.66C89.6693 98.7093 85.4933 94.849 80.645 94.9672H47.2553C44.2959 94.9928 41.4135 96.0531 39.142 97.9471L26.591 108.394C26.0057 108.884 25.667 109.605 25.667 110.367V141.167C25.667 142.587 26.8169 143.734 28.2336 143.734H91.9153C96.0835 143.729 100.144 142.261 103.352 139.604L134.468 113.894C138.695 110.882 139.922 105.036 137.263 100.58ZM131.347 109.825L100.082 135.649C97.7874 137.548 94.8846 138.595 91.9123 138.6H30.8001V111.57L42.4295 101.889C43.7951 100.752 45.5225 100.115 47.2781 100.1L80.7268 100.097C82.8545 100.095 84.6306 101.704 84.7001 103.95C84.7001 106.073 82.9727 107.8 80.8501 107.8H64.1667C59.9215 107.8 56.4667 111.255 56.4667 115.5C56.4667 119.745 59.9215 123.2 64.1667 123.2H94.9667C95.5006 123.2 96.0215 123.033 96.4631 122.723L125.831 101.75C126.888 100.991 128.174 100.696 129.463 100.901C130.749 101.114 131.873 101.812 132.645 102.89C132.722 102.995 132.791 103.103 132.858 103.213C134.157 105.388 133.554 108.244 131.347 109.825Z" fill="#CDB6A1"/>
<path d="M28.1564 105.233H0V110.367H25.5896V148.867H0V154H28.1564C29.5731 154 30.723 152.853 30.723 151.433V107.8C30.723 106.381 29.5731 105.233 28.1564 105.233Z" fill="#CDB6A1"/>
<path d="M12.8333 128.333C8.58807 128.333 5.1333 131.788 5.1333 136.033C5.1333 140.279 8.58807 143.733 12.8333 143.733C17.0785 143.733 20.5333 140.279 20.5333 136.033C20.5333 131.788 17.0785 128.333 12.8333 128.333ZM12.8333 138.6C11.419 138.6 10.2667 137.45 10.2667 136.033C10.2667 134.617 11.419 133.467 12.8333 133.467C14.2476 133.467 15.3999 134.617 15.3999 136.033C15.3999 137.45 14.2476 138.6 12.8333 138.6Z" fill="#CDB6A1"/>
<path d="M151.433 79.5667H2.56657C1.14989 79.5667 0 80.7138 0 82.1332C0 92.0379 8.05943 100.1 17.9666 100.1H136.033C145.938 100.1 154 92.0379 154 82.1332C154 80.7141 152.853 79.5667 151.433 79.5667ZM136.033 94.9667H17.9666C11.7681 94.9667 6.5835 90.5494 5.39241 84.7001H148.607C147.417 90.5494 142.232 94.9667 136.033 94.9667Z" fill="#CDB6A1"/>
<path d="M77 12.8335C40.2043 12.8335 10.2666 42.7712 10.2666 79.5669V82.1335C10.2666 83.5529 11.4165 84.7001 12.8332 84.7001H141.167C142.586 84.7001 143.733 83.5529 143.733 82.1335V79.5669C143.733 42.7709 113.798 12.8335 77 12.8335ZM15.4 79.5666C15.4 45.6018 43.0352 17.9666 77 17.9666C110.965 17.9666 138.6 45.6018 138.6 79.5666H15.4Z" fill="#CDB6A1"/>
<path d="M34.7837 42.1111C32.9895 44.1284 31.3265 46.2871 29.8403 48.5304L34.1189 51.3664C35.4743 49.3232 36.9884 47.3546 38.6207 45.5195L34.7837 42.1111Z" fill="#CDB6A1"/>
<path d="M76.9999 23.1001C62.5856 23.1079 48.8616 28.5542 38.3589 38.4282L41.8753 42.1678C51.4233 33.1895 63.8997 28.241 77.0027 28.2335L76.9999 23.1001Z" fill="#CDB6A1"/>
<path d="M84.6998 0H69.2998V5.13343H84.6998V0Z" fill="#CDB6A1"/>
<path d="M79.567 2.56665H74.4336V15.4001H79.567V2.56665Z" fill="#CDB6A1"/>
</svg>
