<svg width="149" height="149" viewBox="0 0 149 149" fill="none" xmlns="http://www.w3.org/2000/svg">
<path d="M146.763 24.0347C147.968 24.0347 148.945 23.0575 148.945 21.8521V8.79827C148.945 7.59289 147.968 6.61566 146.763 6.61566H37.4059C34.6238 2.62118 30.001 0 24.775 0C16.2913 0 9.38896 6.9026 9.38896 15.3872V28.2285C9.38896 31.0374 13.7542 31.0421 13.7542 28.2285V15.3872C13.7542 9.76561 18.1785 4.9234 23.7747 4.41529C30.127 3.83821 35.796 9.08987 35.796 15.3872V57.225C35.796 57.9249 36.1315 58.5823 36.6984 58.9926C41.9778 62.816 45.1295 68.9838 45.1295 75.4909C45.1295 80.9824 42.9762 86.1301 39.0659 89.9864C35.1572 93.8412 29.9699 95.9185 24.4848 95.8454C13.5467 95.6932 4.54646 86.6691 4.4219 75.729C4.34682 69.1264 7.49823 62.8699 12.852 58.9929C13.4187 58.5823 13.7545 57.9252 13.7545 57.2253V40.7422C13.7545 37.9333 9.38925 37.9286 9.38925 40.7422V56.143C3.43944 60.8825 -0.0294702 68.1396 0.0572524 75.7787C0.13117 82.2335 2.70084 88.3244 7.29336 92.9297C10.3636 96.0081 14.1017 98.1782 18.1695 99.3097V131.581H13.4259C12.2202 131.581 11.2433 132.558 11.2433 133.764V146.817C11.2433 148.023 12.2202 149 13.4259 149H117.335C120.144 149 120.148 144.635 117.335 144.635H15.6085V135.946H144.58V144.635H130.43C127.622 144.635 127.617 149 130.43 149H146.763C147.968 149 148.945 148.023 148.945 146.817V133.764C148.945 132.558 147.968 131.581 146.763 131.581H142.019V24.0347H146.763ZM102.808 131.404V96.7851C103.657 96.7851 119.954 96.7851 120.512 96.7851V131.404H102.808ZM137.121 40.574V92.4199H92.6203V40.574H137.121ZM137.654 96.7851V131.404H124.877V96.7851C125.483 96.7851 137.654 96.7851 137.654 96.7851ZM137.654 36.2087H124.877V24.3234H137.654V36.2087ZM120.512 36.2087H102.808V24.3234H120.512V36.2087ZM76.3732 36.4395H58.669V24.3234H76.3732V36.4395ZM40.1612 24.3234H54.3037V36.4398H40.1612V24.3234ZM144.58 10.9809V19.6695H40.1612V15.3872C40.1612 13.8561 39.9334 12.3778 39.5152 10.9809H144.58ZM49.4947 75.4912C49.4947 68.3401 46.3596 61.5289 41.0145 56.8583V40.8048H76.1773V81.7754C76.1773 84.5843 80.5426 84.5889 80.5426 81.7754V24.3234H98.4423V36.2087H90.4377C89.232 36.2087 88.2551 37.186 88.2551 38.3914V94.6025C88.2551 95.8079 89.232 96.7851 90.4377 96.7851C90.4377 96.7851 97.5457 96.7851 98.4423 96.7851V131.404H80.5426V95.4531C80.5426 92.6442 76.1773 92.6396 76.1773 95.4531V131.404H41.0145V94.1243C46.3741 89.4384 49.4947 82.6156 49.4947 75.4912ZM24.424 100.21C24.5424 100.212 24.6606 100.213 24.7787 100.213C28.9967 100.213 33.05 99.1586 36.6493 97.1803V131.404H22.5344V100.105C23.1604 100.161 23.7899 100.201 24.424 100.21Z" fill="#CDB6A1"/>
<path d="M21.3222 48.6305C18.5133 48.6305 18.5086 52.9957 21.3222 52.9957H22.5924V70.943C20.782 71.7738 19.519 73.5996 19.519 75.7185C19.519 78.6168 21.8768 80.9746 24.7751 80.9746C27.6733 80.9746 30.0311 78.6168 30.0311 75.7185C30.0311 73.5996 28.7681 71.7738 26.9577 70.943V52.9957H28.2283C31.0371 52.9957 31.0418 48.6305 28.2283 48.6305H26.9577V38.2872H28.2283C31.0371 38.2872 31.0418 33.922 28.2283 33.922H26.9577V23.5787H28.2283C31.0371 23.5787 31.0418 19.2135 28.2283 19.2135H26.9577V15.3872C26.9577 12.5783 22.5924 12.5737 22.5924 15.3872V19.2135H21.3222C18.5133 19.2135 18.5086 23.5787 21.3222 23.5787H22.5924V33.922H21.3222C19.6686 33.922 18.6009 35.7766 19.4375 37.2061C20.1328 38.394 21.4103 38.2872 22.5924 38.2872V48.6305H21.3222Z" fill="#CDB6A1"/>
</svg>
