<svg width="29" height="36" viewBox="0 0 29 36" fill="none" xmlns="http://www.w3.org/2000/svg">
<path d="M14.4302 0C6.47547 0 0 6.47547 0 14.4302C0 15.3358 0.0830187 16.2491 0.256604 17.1396C0.264151 17.1925 0.29434 17.3509 0.354717 17.6226C0.573585 18.5962 0.898113 19.5547 1.32075 20.4679C2.87547 24.1283 6.29434 29.7509 13.7962 35.7736C13.9849 35.9245 14.2113 36 14.4377 36C14.6642 36 14.8906 35.9245 15.0792 35.7736C22.5736 29.7509 26 24.1283 27.5547 20.4679C27.9774 19.5547 28.3019 18.6038 28.5208 17.6226C28.5811 17.3509 28.6113 17.1925 28.6189 17.1396C28.7849 16.2491 28.8755 15.3358 28.8755 14.4302C28.8604 6.47547 22.3849 0 14.4302 0ZM26.5962 16.7849C26.5962 16.8 26.5887 16.8151 26.5887 16.8302C26.5811 16.8679 26.5585 16.9811 26.5208 17.1547C26.5208 17.1623 26.5208 17.1623 26.5208 17.1698C26.3321 18.0151 26.0528 18.8377 25.683 19.6302C25.6755 19.6377 25.6755 19.6528 25.6679 19.6604C24.2566 23.0038 21.1623 28.1057 14.4302 33.6679C7.69811 28.1057 4.60377 23.0038 3.19245 19.6604C3.18491 19.6528 3.18491 19.6377 3.17736 19.6302C2.81509 18.8453 2.53585 18.0151 2.33962 17.1698C2.33962 17.1623 2.33962 17.1623 2.33962 17.1547C2.29434 16.9811 2.27925 16.8679 2.2717 16.8302C2.2717 16.8151 2.26415 16.8 2.26415 16.7774C2.11321 16 2.03774 15.2151 2.03774 14.4226C2.03774 7.59245 7.6 2.03019 14.4302 2.03019C21.2604 2.03019 26.8226 7.59245 26.8226 14.4226C26.8226 15.2226 26.7472 16.0151 26.5962 16.7849Z" fill="#CDB6A1"/>
<path d="M14.4303 5.42676C9.38127 5.42676 5.26807 9.53997 5.26807 14.589C5.26807 19.6381 9.38127 23.7513 14.4303 23.7513C19.4794 23.7513 23.5926 19.6381 23.5926 14.589C23.5926 9.53997 19.4794 5.42676 14.4303 5.42676ZM14.4303 21.7136C10.4983 21.7136 7.3058 18.5135 7.3058 14.589C7.3058 10.6645 10.5058 7.46449 14.4303 7.46449C18.3549 7.46449 21.5549 10.6645 21.5549 14.589C21.5549 18.5135 18.3624 21.7136 14.4303 21.7136Z" fill="#CDB6A1"/>
</svg>
