<svg width="97" height="16" viewBox="0 0 97 16" fill="none" xmlns="http://www.w3.org/2000/svg">
<path d="M96.7071 8.70712C97.0976 8.31659 97.0976 7.68343 96.7071 7.2929L90.3432 0.92894C89.9526 0.538416 89.3195 0.538416 88.9289 0.92894C88.5384 1.31946 88.5384 1.95263 88.9289 2.34315L94.5858 8.00001L88.9289 13.6569C88.5384 14.0474 88.5384 14.6806 88.9289 15.0711C89.3195 15.4616 89.9526 15.4616 90.3432 15.0711L96.7071 8.70712ZM-8.91756e-08 9L1.95918 9L1.95918 7L8.91756e-08 7L-8.91756e-08 9ZM4.89796 9L8.81633 9L8.81633 7L4.89796 7L4.89796 9ZM11.7551 9L15.6735 9L15.6735 7L11.7551 7L11.7551 9ZM18.6122 9L22.5306 9L22.5306 7L18.6122 7L18.6122 9ZM25.4694 9L29.3878 9L29.3878 7L25.4694 7L25.4694 9ZM32.3265 9L36.2449 9L36.2449 7L32.3265 7L32.3265 9ZM39.1837 9L43.102 9L43.102 7L39.1837 7L39.1837 9ZM46.0408 9L49.9592 9L49.9592 7L46.0408 7L46.0408 9ZM52.898 9L56.8163 9.00001L56.8163 7.00001L52.898 7L52.898 9ZM59.7551 9.00001L63.6735 9.00001L63.6735 7.00001L59.7551 7.00001L59.7551 9.00001ZM66.6123 9.00001L70.5306 9.00001L70.5306 7.00001L66.6123 7.00001L66.6123 9.00001ZM73.4694 9.00001L77.3878 9.00001L77.3878 7.00001L73.4694 7.00001L73.4694 9.00001ZM80.3265 9.00001L84.2449 9.00001L84.2449 7.00001L80.3265 7.00001L80.3265 9.00001ZM87.1837 9.00001L91.102 9.00001L91.102 7.00001L87.1837 7.00001L87.1837 9.00001ZM94.0408 9.00001L96 9.00001L96 7.00001L94.0408 7.00001L94.0408 9.00001Z" fill="#28538F"/>
</svg>
