<svg width="27" height="34" viewBox="0 0 27 34" fill="none" xmlns="http://www.w3.org/2000/svg">
<path d="M13.3004 0C5.96848 0 0 5.96848 0 13.3004C0 14.1351 0.0765188 14.9768 0.236513 15.7977C0.243469 15.8464 0.271294 15.9925 0.326945 16.2429C0.528676 17.1402 0.827795 18.0237 1.21735 18.8654C2.65034 22.2392 5.80153 27.4216 12.7161 32.9727C12.89 33.1118 13.0986 33.1814 13.3073 33.1814C13.516 33.1814 13.7247 33.1118 13.8986 32.9727C20.8062 27.4216 23.9643 22.2392 25.3973 18.8654C25.7869 18.0237 26.086 17.1472 26.2877 16.2429C26.3434 15.9925 26.3712 15.8464 26.3782 15.7977C26.5312 14.9768 26.6147 14.1351 26.6147 13.3004C26.6008 5.96848 20.6323 0 13.3004 0ZM24.5139 15.4707C24.5139 15.4846 24.5069 15.4986 24.5069 15.5125C24.5 15.5473 24.4791 15.6516 24.4443 15.8116C24.4443 15.8186 24.4443 15.8186 24.4443 15.8255C24.2704 16.6046 24.013 17.3628 23.6722 18.0933C23.6652 18.1002 23.6652 18.1141 23.6583 18.1211C22.3574 21.2027 19.5054 25.9051 13.3004 31.0319C7.09539 25.9051 4.24332 21.2027 2.9425 18.1211C2.93554 18.1141 2.93554 18.1002 2.92859 18.0933C2.59469 17.3698 2.33731 16.6046 2.15644 15.8255C2.15644 15.8186 2.15644 15.8186 2.15644 15.8116C2.1147 15.6516 2.10079 15.5473 2.09384 15.5125C2.09384 15.4986 2.08688 15.4846 2.08688 15.4638C1.94775 14.7473 1.87819 14.0238 1.87819 13.2934C1.87819 6.998 7.00496 1.87124 13.3004 1.87124C19.5958 1.87124 24.7226 6.998 24.7226 13.2934C24.7226 14.0308 24.653 14.7612 24.5139 15.4707Z" fill="white"/>
<path d="M13.3004 5.00195C8.64663 5.00195 4.85547 8.79312 4.85547 13.4469C4.85547 18.1006 8.64663 21.8918 13.3004 21.8918C17.9541 21.8918 21.7453 18.1006 21.7453 13.4469C21.7453 8.79312 17.9541 5.00195 13.3004 5.00195ZM13.3004 20.0136C9.67616 20.0136 6.73366 17.0641 6.73366 13.4469C6.73366 9.8296 9.68312 6.88014 13.3004 6.88014C16.9176 6.88014 19.8671 9.8296 19.8671 13.4469C19.8671 17.0641 16.9246 20.0136 13.3004 20.0136Z" fill="white"/>
</svg>
