<svg width="32" height="33" viewBox="0 0 32 33" fill="none" xmlns="http://www.w3.org/2000/svg">
<path d="M25.3036 19.8516C24.6475 19.1685 23.8562 18.8032 23.0175 18.8032C22.1856 18.8032 21.3874 19.1617 20.7043 19.8448L18.567 21.9754C18.3911 21.8807 18.2153 21.7928 18.0462 21.7048C17.8027 21.5831 17.5727 21.4681 17.3766 21.3464C15.3746 20.0748 13.5551 18.4177 11.8101 16.2736C10.9647 15.205 10.3965 14.3054 9.98393 13.3923C10.5385 12.885 11.0526 12.3575 11.5531 11.8502C11.7425 11.6608 11.9319 11.4647 12.1212 11.2753C13.5416 9.85491 13.5416 8.0152 12.1212 6.59484L10.2748 4.74836C10.0651 4.53869 9.84865 4.32225 9.64575 4.10581C9.23993 3.68647 8.81382 3.25359 8.37418 2.84777C7.7181 2.19846 6.93352 1.85352 6.10836 1.85352C5.28319 1.85352 4.48508 2.19846 3.80871 2.84777C3.80195 2.85454 3.80195 2.85454 3.79519 2.8613L1.49554 5.18123C0.629796 6.04698 0.13605 7.10211 0.0278314 8.32633C-0.134496 10.3013 0.447178 12.141 0.893579 13.345C1.98929 16.3007 3.62609 19.04 6.06777 21.9754C9.03025 25.5128 12.5947 28.3062 16.6664 30.2744C18.2221 31.0116 20.2985 31.8841 22.6184 32.0329C22.7605 32.0397 22.9093 32.0465 23.0445 32.0465C24.6069 32.0465 25.9191 31.4851 26.9472 30.3691C26.9539 30.3555 26.9675 30.3488 26.9742 30.3353C27.3259 29.9091 27.7318 29.5236 28.1579 29.111C28.4487 28.8337 28.7463 28.5429 29.0371 28.2385C29.7067 27.5419 30.0585 26.7302 30.0585 25.8983C30.0585 25.0596 29.7 24.2547 29.0168 23.5784L25.3036 19.8516ZM27.725 26.9737C27.7182 26.9737 27.7182 26.9805 27.725 26.9737C27.4612 27.2578 27.1907 27.5148 26.8998 27.7989C26.4602 28.2182 26.0138 28.6579 25.5944 29.1516C24.9113 29.8821 24.1064 30.227 23.0513 30.227C22.9499 30.227 22.8416 30.227 22.7402 30.2203C20.7314 30.0918 18.8646 29.3072 17.4645 28.6376C13.6363 26.7843 10.2748 24.1533 7.48138 20.8188C5.17497 18.0389 3.63286 15.4687 2.61155 12.7092C1.98253 11.025 1.75256 9.71288 1.85402 8.47513C1.92165 7.68378 2.22602 7.02771 2.7874 6.46633L5.09381 4.15992C5.42523 3.84879 5.77694 3.6797 6.12188 3.6797C6.54799 3.6797 6.89294 3.93672 7.10938 4.15316C7.11614 4.15992 7.1229 4.16668 7.12967 4.17345C7.54225 4.55898 7.93454 4.95803 8.34712 5.38414C8.5568 5.60058 8.77323 5.81702 8.98967 6.04022L10.8361 7.88669C11.5531 8.60364 11.5531 9.26648 10.8361 9.98343C10.64 10.1796 10.4506 10.3757 10.2545 10.5651C9.68633 11.1468 9.14524 11.6879 8.5568 12.2154C8.54327 12.229 8.52974 12.2357 8.52298 12.2492C7.94131 12.8309 8.04952 13.3991 8.17127 13.7846C8.17803 13.8049 8.1848 13.8252 8.19156 13.8455C8.67178 15.0088 9.34814 16.1045 10.3762 17.4099L10.383 17.4167C12.2498 19.7163 14.218 21.5087 16.3891 22.8817C16.6664 23.0576 16.9505 23.1996 17.221 23.3349C17.4645 23.4566 17.6945 23.5716 17.8906 23.6933C17.9177 23.7069 17.9447 23.7272 17.9718 23.7407C18.2018 23.8557 18.4182 23.9098 18.6414 23.9098C19.2028 23.9098 19.5545 23.5581 19.6695 23.4431L21.9826 21.1299C22.2126 20.9 22.5778 20.6227 23.004 20.6227C23.4233 20.6227 23.7683 20.8864 23.9779 21.1164C23.9847 21.1232 23.9847 21.1232 23.9915 21.1299L27.7182 24.8567C28.4149 25.5466 28.4149 26.2568 27.725 26.9737Z" fill="white"/>
<path d="M17.2955 7.62288C19.0676 7.92048 20.6774 8.75917 21.9625 10.0443C23.2476 11.3294 24.0795 12.9391 24.3838 14.7112C24.4582 15.1576 24.8438 15.4687 25.2834 15.4687C25.3375 15.4687 25.3849 15.462 25.439 15.4552C25.9395 15.374 26.2709 14.9006 26.1897 14.4001C25.8245 12.256 24.81 10.3013 23.2611 8.75241C21.7122 7.20353 19.7575 6.18899 17.6134 5.82375C17.1129 5.74258 16.6462 6.074 16.5583 6.56775C16.4704 7.0615 16.795 7.54172 17.2955 7.62288Z" fill="white"/>
<path d="M31.9863 14.1364C31.3843 10.6058 29.7205 7.39307 27.1638 4.8364C24.6072 2.27974 21.3944 0.615886 17.8638 0.0139206C17.3701 -0.0740069 16.9034 0.264176 16.8154 0.757922C16.7343 1.25843 17.0657 1.72512 17.5662 1.81305C20.7181 2.34738 23.5926 3.84215 25.8787 6.1215C28.1648 8.40761 29.6529 11.2822 30.1872 14.434C30.2616 14.8804 30.6471 15.1916 31.0867 15.1916C31.1409 15.1916 31.1882 15.1848 31.2423 15.178C31.7361 15.1036 32.0742 14.6302 31.9863 14.1364Z" fill="white"/>
</svg>
