<svg width="80" height="80" viewBox="0 0 80 80" fill="none" xmlns="http://www.w3.org/2000/svg">
<path d="M65 2.5H10C9.66848 2.5 9.35054 2.6317 9.11612 2.86612C8.8817 3.10054 8.75 3.41848 8.75 3.75V71.25C8.75 71.5815 8.8817 71.8995 9.11612 72.1339C9.35054 72.3683 9.66848 72.5 10 72.5H13.75V76.25C13.75 76.5815 13.8817 76.8995 14.1161 77.1339C14.3505 77.3683 14.6685 77.5 15 77.5H70C70.3315 77.5 70.6495 77.3683 70.8839 77.1339C71.1183 76.8995 71.25 76.5815 71.25 76.25V8.75C71.25 8.41848 71.1183 8.10054 70.8839 7.86612C70.6495 7.6317 70.3315 7.5 70 7.5H66.25V3.75C66.25 3.41848 66.1183 3.10054 65.8839 2.86612C65.6495 2.6317 65.3315 2.5 65 2.5ZM11.25 5H63.75V70H11.25V5ZM68.75 10V75H16.25V72.5H65C65.3315 72.5 65.6495 72.3683 65.8839 72.1339C66.1183 71.8995 66.25 71.5815 66.25 71.25V10H68.75ZM60.8839 54.1161C60.7678 54 60.63 53.9079 60.4784 53.8451C60.3267 53.7823 60.1642 53.75 60 53.75C59.8358 53.75 59.6733 53.7823 59.5216 53.8451C59.37 53.9079 59.2322 54 59.1161 54.1161L58.7856 54.4467C57.3939 53.1876 55.5802 52.4969 53.7035 52.5114C51.8268 52.5259 50.024 53.2445 48.6519 54.5251C47.2799 55.8056 46.4387 57.5546 46.2948 59.4258C46.151 61.297 46.715 63.1541 47.8752 64.6292C49.0354 66.1044 50.7073 67.0901 52.5597 67.3913C54.4121 67.6925 56.3101 67.2871 57.8779 66.2555C59.4456 65.2238 60.5689 63.6411 61.0252 61.8207C61.4816 60.0002 61.2378 58.0748 60.342 56.4256L60.8839 55.8839C61 55.7678 61.0921 55.63 61.1549 55.4784C61.2177 55.3267 61.25 55.1642 61.25 55C61.25 54.8358 61.2177 54.6733 61.1549 54.5216C61.0921 54.37 61 54.2322 60.8839 54.1161ZM58.75 60C58.752 61.1435 58.3627 62.2532 57.6467 63.1448C56.9308 64.0364 55.9314 64.6561 54.8145 64.9012C53.6976 65.1462 52.5305 65.0016 51.5071 64.4916C50.4837 63.9815 49.6656 63.1367 49.1888 62.0974C48.7119 61.0581 48.6051 59.8869 48.8859 58.7785C49.1668 57.6701 49.8184 56.6911 50.7326 56.0043C51.6468 55.3174 52.7685 54.964 53.9113 55.0029C55.0541 55.0417 56.1492 55.4704 57.0147 56.2177L53.75 59.4823L53.3839 59.1161C53.2678 59 53.13 58.9079 52.9784 58.8451C52.8267 58.7823 52.6642 58.75 52.5 58.75C52.3358 58.75 52.1733 58.7823 52.0216 58.8451C51.87 58.9079 51.7322 59 51.6161 59.1161C51.5 59.2322 51.4079 59.37 51.3451 59.5216C51.2823 59.6733 51.25 59.8358 51.25 60C51.25 60.1642 51.2823 60.3267 51.3451 60.4784C51.4079 60.63 51.5 60.7678 51.6161 60.8839L52.8661 62.1339C52.9822 62.25 53.12 62.3421 53.2716 62.4049C53.4233 62.4677 53.5858 62.5 53.75 62.5C53.9142 62.5 54.0767 62.4677 54.2284 62.4049C54.38 62.3421 54.5178 62.25 54.6339 62.1339L58.4559 58.3125C58.6508 58.8538 58.7503 59.4247 58.75 60ZM16.25 38.75C15.9185 38.75 15.6005 38.6183 15.3661 38.3839C15.1317 38.1495 15 37.8315 15 37.5C15 37.1685 15.1317 36.8505 15.3661 36.6161C15.6005 36.3817 15.9185 36.25 16.25 36.25H57.5V10C57.5 9.66848 57.6317 9.35054 57.8661 9.11612C58.1005 8.8817 58.4185 8.75 58.75 8.75C59.0815 8.75 59.3995 8.8817 59.6339 9.11612C59.8683 9.35054 60 9.66848 60 10V37.5C60 37.8315 59.8683 38.1495 59.6339 38.3839C59.3995 38.6183 59.0815 38.75 58.75 38.75H16.25ZM60 43.75C60 44.0815 59.8683 44.3995 59.6339 44.6339C59.3995 44.8683 59.0815 45 58.75 45H16.25C15.9185 45 15.6005 44.8683 15.3661 44.6339C15.1317 44.3995 15 44.0815 15 43.75C15 43.4185 15.1317 43.1005 15.3661 42.8661C15.6005 42.6317 15.9185 42.5 16.25 42.5H58.75C59.0815 42.5 59.3995 42.6317 59.6339 42.8661C59.8683 43.1005 60 43.4185 60 43.75ZM60 48.75C60 49.0815 59.8683 49.3995 59.6339 49.6339C59.3995 49.8683 59.0815 50 58.75 50H16.25C15.9185 50 15.6005 49.8683 15.3661 49.6339C15.1317 49.3995 15 49.0815 15 48.75C15 48.4185 15.1317 48.1005 15.3661 47.8661C15.6005 47.6317 15.9185 47.5 16.25 47.5H58.75C59.0815 47.5 59.3995 47.6317 59.6339 47.8661C59.8683 48.1005 60 48.4185 60 48.75ZM43.75 53.75C43.75 54.0815 43.6183 54.3995 43.3839 54.6339C43.1495 54.8683 42.8315 55 42.5 55H16.25C15.9185 55 15.6005 54.8683 15.3661 54.6339C15.1317 54.3995 15 54.0815 15 53.75C15 53.4185 15.1317 53.1005 15.3661 52.8661C15.6005 52.6317 15.9185 52.5 16.25 52.5H42.5C42.8315 52.5 43.1495 52.6317 43.3839 52.8661C43.6183 53.1005 43.75 53.4185 43.75 53.75ZM43.75 58.75C43.75 59.0815 43.6183 59.3995 43.3839 59.6339C43.1495 59.8683 42.8315 60 42.5 60H16.25C15.9185 60 15.6005 59.8683 15.3661 59.6339C15.1317 59.3995 15 59.0815 15 58.75C15 58.4185 15.1317 58.1005 15.3661 57.8661C15.6005 57.6317 15.9185 57.5 16.25 57.5H42.5C42.8315 57.5 43.1495 57.6317 43.3839 57.8661C43.6183 58.1005 43.75 58.4185 43.75 58.75ZM43.75 63.75C43.75 64.0815 43.6183 64.3995 43.3839 64.6339C43.1495 64.8683 42.8315 65 42.5 65H16.25C15.9185 65 15.6005 64.8683 15.3661 64.6339C15.1317 64.3995 15 64.0815 15 63.75C15 63.4185 15.1317 63.1005 15.3661 62.8661C15.6005 62.6317 15.9185 62.5 16.25 62.5H42.5C42.8315 62.5 43.1495 62.6317 43.3839 62.8661C43.6183 63.1005 43.75 63.4185 43.75 63.75ZM15 8.75C15 8.41848 15.1317 8.10054 15.3661 7.86612C15.6005 7.6317 15.9185 7.5 16.25 7.5H21.25C21.5815 7.5 21.8995 7.6317 22.1339 7.86612C22.3683 8.10054 22.5 8.41848 22.5 8.75C22.5 9.08152 22.3683 9.39946 22.1339 9.63388C21.8995 9.8683 21.5815 10 21.25 10H16.25C15.9185 10 15.6005 9.8683 15.3661 9.63388C15.1317 9.39946 15 9.08152 15 8.75ZM15 13.75C15 13.4185 15.1317 13.1005 15.3661 12.8661C15.6005 12.6317 15.9185 12.5 16.25 12.5H21.25C21.5815 12.5 21.8995 12.6317 22.1339 12.8661C22.3683 13.1005 22.5 13.4185 22.5 13.75C22.5 14.0815 22.3683 14.3995 22.1339 14.6339C21.8995 14.8683 21.5815 15 21.25 15H16.25C15.9185 15 15.6005 14.8683 15.3661 14.6339C15.1317 14.3995 15 14.0815 15 13.75ZM53.75 11.25H50C49.6685 11.25 49.3505 11.3817 49.1161 11.6161C48.8817 11.8505 48.75 12.1685 48.75 12.5C48.75 12.8315 48.8817 13.1495 49.1161 13.3839C49.3505 13.6183 49.6685 13.75 50 13.75H51.1492L48.1492 17.5H46.035C45.8661 17.0189 45.6009 16.5774 45.2556 16.2023C44.9103 15.8272 44.4921 15.5265 44.0266 15.3185C43.5611 15.1105 43.0581 14.9996 42.5483 14.9926C42.0386 14.9856 41.5327 15.0826 41.0617 15.2777C40.5906 15.4728 40.1643 15.7619 39.8088 16.1273C39.4533 16.4928 39.1761 16.9269 38.994 17.4031C38.8119 17.8793 38.7289 18.3876 38.7499 18.897C38.771 19.4064 38.8957 19.9062 39.1164 20.3658L36.6164 22.8658C36.1419 22.639 35.625 22.5145 35.0993 22.5005C34.5736 22.4866 34.0508 22.5834 33.565 22.7847C33.0791 22.9859 32.6411 23.2872 32.2793 23.6689C31.9175 24.0506 31.64 24.5041 31.465 25H27.285C27.1161 24.5189 26.8509 24.0774 26.5056 23.7023C26.1603 23.3272 25.7421 23.0265 25.2766 22.8185C24.8111 22.6105 24.3081 22.4996 23.7983 22.4926C23.2886 22.4856 22.7827 22.5826 22.3117 22.7777C21.8406 22.9728 21.4143 23.2619 21.0588 23.6273C20.7033 23.9928 20.4261 24.4269 20.244 24.9031C20.0619 25.3793 19.9789 25.8876 19.9999 26.397C20.021 26.9064 20.1457 27.4062 20.3664 27.8658L16.6164 31.6158C16.382 31.8502 16.2503 32.1682 16.2503 32.4997C16.2503 32.8312 16.382 33.1492 16.6164 33.3836C16.8508 33.618 17.1688 33.7497 17.5003 33.7497C17.8318 33.7497 18.1498 33.618 18.3842 33.3836L22.1342 29.6336C22.6086 29.8603 23.1254 29.9847 23.651 29.9987C24.1766 30.0126 24.6993 29.9159 25.1851 29.7146C25.6708 29.5134 26.1089 29.2123 26.4706 28.8307C26.8324 28.4492 27.1099 27.9958 27.285 27.5H31.465C31.6339 27.9811 31.8991 28.4226 32.2444 28.7977C32.5897 29.1728 33.0079 29.4735 33.4734 29.6815C33.9389 29.8895 34.4419 30.0004 34.9517 30.0074C35.4614 30.0144 35.9673 29.9174 36.4383 29.7223C36.9094 29.5272 37.3357 29.2381 37.6912 28.8727C38.0467 28.5072 38.3239 28.0731 38.506 27.5969C38.6881 27.1207 38.7711 26.6124 38.7501 26.103C38.729 25.5936 38.6043 25.0938 38.3836 24.6342L40.8836 22.1342C41.3581 22.361 41.875 22.4855 42.4007 22.4995C42.9264 22.5134 43.4492 22.4166 43.935 22.2153C44.4209 22.0141 44.8589 21.7128 45.2207 21.3311C45.5825 20.9494 45.86 20.4959 46.035 20H48.75C48.9374 20 49.1225 19.9579 49.2914 19.8768C49.4604 19.7957 49.6089 19.6776 49.7261 19.5312L52.5 16.0634V16.25C52.5 16.5815 52.6317 16.8995 52.8661 17.1339C53.1005 17.3683 53.4185 17.5 53.75 17.5C54.0815 17.5 54.3995 17.3683 54.6339 17.1339C54.8683 16.8995 55 16.5815 55 16.25V12.5C55 12.1685 54.8683 11.8505 54.6339 11.6161C54.3995 11.3817 54.0815 11.25 53.75 11.25ZM23.75 27.5C23.5028 27.5 23.2611 27.4267 23.0555 27.2893C22.85 27.152 22.6898 26.9568 22.5951 26.7284C22.5005 26.4999 22.4758 26.2486 22.524 26.0061C22.5722 25.7637 22.6913 25.5409 22.8661 25.3661C23.0409 25.1913 23.2637 25.0723 23.5061 25.024C23.7486 24.9758 23.9999 25.0005 24.2284 25.0951C24.4568 25.1898 24.652 25.35 24.7893 25.5555C24.9267 25.7611 25 26.0028 25 26.25C24.9996 26.5814 24.8678 26.8991 24.6335 27.1335C24.3991 27.3678 24.0814 27.4996 23.75 27.5ZM35 27.5C34.7528 27.5 34.5111 27.4267 34.3055 27.2893C34.1 27.152 33.9398 26.9568 33.8451 26.7284C33.7505 26.4999 33.7258 26.2486 33.774 26.0061C33.8222 25.7637 33.9413 25.5409 34.1161 25.3661C34.2909 25.1913 34.5137 25.0723 34.7561 25.024C34.9986 24.9758 35.2499 25.0005 35.4784 25.0951C35.7068 25.1898 35.902 25.35 36.0393 25.5555C36.1767 25.7611 36.25 26.0028 36.25 26.25C36.2496 26.5814 36.1178 26.8991 35.8835 27.1335C35.6491 27.3678 35.3314 27.4996 35 27.5ZM42.5 20C42.2528 20 42.0111 19.9267 41.8055 19.7893C41.6 19.652 41.4398 19.4568 41.3451 19.2284C41.2505 18.9999 41.2258 18.7486 41.274 18.5061C41.3222 18.2637 41.4413 18.0409 41.6161 17.8661C41.7909 17.6913 42.0137 17.5722 42.2561 17.524C42.4986 17.4758 42.7499 17.5005 42.9784 17.5951C43.2068 17.6898 43.402 17.85 43.5393 18.0555C43.6767 18.2611 43.75 18.5028 43.75 18.75C43.7496 19.0814 43.6178 19.3991 43.3835 19.6335C43.1491 19.8678 42.8314 19.9996 42.5 20Z" fill="#CDB6A1"/>
</svg>
