<svg width="51" height="51" viewBox="0 0 51 51" fill="none" xmlns="http://www.w3.org/2000/svg">
<path d="M25.5 0C11.4167 0 0 11.4167 0 25.5C0 39.5833 11.4167 51 25.5 51C39.5833 51 51 39.5833 51 25.5C50.9841 11.4233 39.5767 0.0159265 25.5 0ZM45.3101 12.325L41.65 20.3822C41.6402 18.0419 39.7403 16.15 37.4 16.15H21.6886C21.9637 15.486 22.3653 14.8818 22.871 14.3709C23.9036 13.3309 25.3094 12.7472 26.775 12.75H29.75C31.1583 12.75 32.3 11.6083 32.3 10.2C32.293 8.79457 31.1554 7.65698 29.75 7.65H26.35C24.9417 7.65 23.8 6.50833 23.8 5.1V1.76715C24.3619 1.7272 24.9279 1.7 25.5 1.7C33.4655 1.70263 40.9014 5.69079 45.3101 12.325ZM13.6 33.15C12.1917 33.15 11.05 32.0083 11.05 30.6V20.4C11.05 18.9917 12.1917 17.85 13.6 17.85H37.4C38.8083 17.85 39.95 18.9917 39.95 20.4V30.6C39.95 32.0083 38.8083 33.15 37.4 33.15H13.6ZM35.071 34.85L34.7633 35.53C34.5286 36.0484 34.0544 36.4185 33.4945 36.5203C32.9346 36.6221 32.3605 36.4426 31.9583 36.04C31.6399 35.725 31.4574 35.2979 31.45 34.85H35.071ZM22.1 1.9465V5.1C22.1028 7.44605 24.004 9.34719 26.35 9.35H29.75C29.979 9.34926 30.1981 9.44342 30.3552 9.6101C30.5138 9.76514 30.6022 9.97822 30.6 10.2C30.6 10.6694 30.2194 11.05 29.75 11.05H26.775C23.6071 11.0476 20.8109 13.1189 19.89 16.15H13.6C12.5253 16.1517 11.4917 16.5633 10.71 17.3009C10.3731 16.6634 10.198 15.953 10.2 15.232C10.2048 13.4064 9.39441 11.674 7.99 10.5077L7.42815 10.0394C11.1751 5.65122 16.3896 2.77496 22.1 1.9465ZM6.3648 11.3662L6.90285 11.8142C7.91806 12.6584 8.50366 13.9116 8.5 15.232C8.50627 16.5177 8.91333 17.7695 9.6645 18.813C9.4582 19.3168 9.35141 19.8557 9.35 20.4V28.9706C9.1449 29.2073 8.92151 29.4276 8.6819 29.6293C7.82241 30.3347 7.13395 31.2257 6.66825 32.2354C6.196 33.2425 5.95081 34.3411 5.95 35.4535V39.0507C0.134339 30.6893 0.301245 19.5496 6.3648 11.3662ZM15.8703 47.26L19.04 41.7138C19.6618 40.624 20.8198 39.951 22.0745 39.95H23.698C24.6272 39.9477 25.5188 40.3171 26.174 40.976C27.1473 41.9548 28.4717 42.5035 29.852 42.5C31.1343 42.4975 32.3457 43.0884 33.133 44.1006L35.4646 47.1053C29.2603 49.9776 22.1184 50.033 15.8703 47.2575V47.26ZM37.0098 46.325L34.4734 43.0576C33.3655 41.6302 31.6589 40.7965 29.852 40.8C28.9228 40.8023 28.0312 40.4329 27.376 39.7741C26.4027 38.7952 25.0783 38.2465 23.698 38.25H22.0745C20.2092 38.2511 18.4874 39.2514 17.5627 40.8714L14.3378 46.512C11.8097 45.1615 9.54452 43.3682 7.65 41.2174V35.4535C7.65113 34.5893 7.84206 33.7359 8.2093 32.9537C8.50358 32.3193 8.91315 31.7452 9.41715 31.2605C9.73904 33.3228 11.5127 34.8449 13.6 34.85H29.75C29.7649 36.4611 30.8988 37.8449 32.4755 38.1763C34.0522 38.5077 35.6472 37.6975 36.3095 36.2287L36.9368 34.85H37.4C39.746 34.8472 41.6472 32.946 41.65 30.6V24.4851L46.3777 14.0854C52.6725 25.5773 48.4829 39.9959 37.0098 46.325Z" fill="white"/>
<path d="M33.1501 19.55H31.4501C30.9807 19.55 30.6001 19.9306 30.6001 20.4V30.6C30.6001 31.0695 30.9807 31.4501 31.4501 31.4501C31.9195 31.4501 32.3001 31.0695 32.3001 30.6V26.35H33.1501C35.0279 26.35 36.5501 24.8278 36.5501 22.95C36.5501 21.0723 35.0279 19.55 33.1501 19.55ZM33.1501 24.65H32.3001V21.25H33.1501C34.089 21.25 34.8501 22.0112 34.8501 22.95C34.8501 23.8889 34.089 24.65 33.1501 24.65Z" fill="white"/>
<path d="M25.5 19.55H23.8C23.3305 19.55 22.95 19.9306 22.95 20.4V30.6C22.95 31.0695 23.3305 31.4501 23.8 31.4501H25.5C27.3777 31.4501 28.9 29.9278 28.9 28.05V22.95C28.9 21.0723 27.3777 19.55 25.5 19.55ZM27.2 28.05C27.2 28.9889 26.4388 29.75 25.5 29.75H24.65V21.25H25.5C26.4388 21.25 27.2 22.0112 27.2 22.95V28.05Z" fill="white"/>
<path fill-rule="evenodd" clip-rule="evenodd" d="M17.8499 21.25C18.7888 21.25 19.5499 22.0112 19.5499 22.95C19.5499 23.4195 19.9305 23.8 20.3999 23.8C20.8694 23.8 21.2499 23.4195 21.2499 22.95C21.2499 21.0723 19.7277 19.55 17.8499 19.55C15.9722 19.55 14.45 21.0723 14.45 22.95V28.05C14.45 29.9278 15.9722 31.4501 17.8499 31.4501C19.7277 31.4501 21.2499 29.9278 21.2499 28.05V26.35C21.2499 25.8806 20.8694 25.5 20.3999 25.5H18.6999C18.2305 25.5 17.8499 25.8806 17.8499 26.35C17.8499 26.8195 18.2305 27.2 18.6999 27.2H19.5499V28.05C19.5499 28.9889 18.7888 29.75 17.8499 29.75C16.9111 29.75 16.1499 28.9889 16.1499 28.05V22.95C16.1499 22.0112 16.9111 21.25 17.8499 21.25Z" fill="white"/>
</svg>
