<svg width="51" height="47" viewBox="0 0 51 47" fill="none" xmlns="http://www.w3.org/2000/svg">
<path d="M47.3713 16.9032C47.2805 16.8123 47.1881 16.7237 47.095 16.636V13.7652C47.095 10.9105 44.7725 8.58797 41.9178 8.58797H32.8365V5.98618C32.8365 3.20847 30.5767 0.94873 27.7991 0.94873H19.2961C16.5184 0.94873 14.2587 3.20847 14.2587 5.98618V8.58797H5.1772C2.32249 8.58797 0 10.9105 0 13.7652V36.8099C0 39.6646 2.32249 41.9871 5.1772 41.9871H15.9864C16.399 41.9871 16.7335 41.6526 16.7335 41.24C16.7335 40.8274 16.399 40.493 15.9864 40.493H5.1772C3.14626 40.493 1.49404 38.8407 1.49404 36.8098V21.7389C2.9569 23.9088 5.36327 25.3923 8.11996 25.5966V28.3165C8.11996 29.8699 9.3838 31.1338 10.9372 31.1338C12.4907 31.1338 13.7546 29.8699 13.7546 28.3165V25.621H26.2385C26.2385 25.6329 26.2381 25.6448 26.2381 25.6567C26.2381 28.2007 27.001 30.627 28.4173 32.6759L26.8313 34.2619C26.2775 34.1052 25.6569 34.2436 25.2219 34.6788L19.1299 40.7708C17.924 41.9766 17.924 43.9388 19.1299 45.1446C20.3385 46.3533 22.295 46.3535 23.5037 45.1446L29.5957 39.0526C30.0308 38.6175 30.1693 37.997 30.0126 37.4432L31.6 35.8558C35.7978 38.747 41.3935 38.7562 45.6011 35.8793V36.8099C45.6011 38.8408 43.9489 40.4931 41.9179 40.4931H30.1178C29.7052 40.4931 29.3707 40.8275 29.3707 41.2401C29.3707 41.6527 29.7052 41.9872 30.1178 41.9872H41.9178C44.7725 41.9872 47.095 39.6647 47.095 36.81V34.6777C47.188 34.5902 47.2804 34.5016 47.3713 34.4106C52.2093 29.5727 52.2099 21.7417 47.3713 16.9032ZM15.7526 5.98618C15.7526 4.03234 17.3422 2.44277 19.296 2.44277H27.799C29.7528 2.44277 31.3424 4.03234 31.3424 5.98618V8.58797H29.7487V5.98618C29.7487 4.91109 28.8741 4.03642 27.799 4.03642H19.296C18.2209 4.03642 17.3463 4.91109 17.3463 5.98618V8.58797H15.7526V5.98618ZM18.8403 8.58797V5.98618C18.8403 5.73496 19.0447 5.53056 19.296 5.53056H27.799C28.0503 5.53056 28.2547 5.73496 28.2547 5.98618V8.58797H18.8403ZM12.2605 26.0203H9.6141V23.5054C9.6141 22.7757 10.2077 22.1822 10.9373 22.1822C11.6669 22.1822 12.2605 22.7757 12.2605 23.5054V26.0203ZM10.9373 29.6398C10.2077 29.6398 9.6141 29.0462 9.6141 28.3166V27.5144H12.2605V28.3166C12.2605 29.0462 11.6669 29.6398 10.9373 29.6398ZM13.7546 24.127V23.5054C13.7546 21.952 12.4907 20.6881 10.9372 20.6881C9.3838 20.6881 8.11996 21.952 8.11996 23.5054V24.0962C4.4112 23.7639 1.49404 20.6401 1.49404 16.8464V13.7652C1.49404 11.7342 3.14626 10.082 5.1772 10.082H41.9178C43.9487 10.082 45.601 11.7342 45.601 13.7652V15.4317C40.877 12.1907 34.2227 12.5443 29.864 16.9031C27.8902 18.8767 26.6651 21.3995 26.3311 24.1269H13.7546V24.127ZM22.4472 44.0883C21.8224 44.713 20.8111 44.7131 20.1862 44.0883C19.8842 43.7862 19.718 43.3848 19.718 42.9578C19.718 42.5308 19.8842 42.1292 20.1862 41.8273L24.4066 37.607L26.6675 39.8679L22.4472 44.0883ZM28.5392 37.9963L27.724 38.8115L25.463 36.5505L26.2782 35.7353C26.3069 35.7067 26.3445 35.6924 26.382 35.6924C26.4196 35.6924 26.4571 35.7067 26.4857 35.7352C26.4859 35.7353 26.486 35.7355 26.4862 35.7356L28.5392 37.7886C28.5964 37.8458 28.5964 37.939 28.5392 37.9963ZM29.1032 36.2396L28.0348 35.1712L29.3463 33.8597C29.5129 34.0474 29.685 34.2315 29.864 34.4104C30.0434 34.5898 30.2275 34.7617 30.4149 34.9278L29.1032 36.2396ZM30.9204 33.3541C28.8644 31.2981 27.7321 28.5644 27.7321 25.6568C27.7321 22.7492 28.8644 20.0156 30.9204 17.9596C35.1744 13.7056 42.0604 13.705 46.3149 17.9596C50.5689 22.2135 50.5695 29.0995 46.3149 33.3541C42.0608 37.6082 35.175 37.6087 30.9204 33.3541Z" fill="white"/>
<path d="M46.8133 26.6827C46.4102 26.5951 46.0121 26.8507 45.9246 27.254C45.6206 28.6519 44.9225 29.9283 43.9057 30.945C40.983 33.8676 36.2525 33.8679 33.3296 30.945C30.4137 28.0291 30.4137 23.2848 33.3296 20.3689C36.2522 17.4463 40.9827 17.446 43.9057 20.3689C44.9214 21.3846 45.6193 22.6596 45.9238 24.056C46.0116 24.4591 46.4098 24.715 46.8128 24.6268C47.2159 24.5389 47.4714 24.1409 47.3835 23.7378C47.018 22.0612 46.1807 20.531 44.9622 19.3124C41.4557 15.8059 35.7801 15.8055 32.2732 19.3124C28.7748 22.8108 28.7748 28.5031 32.2732 32.0015C35.7715 35.4998 41.4637 35.4999 44.9622 32.0015C46.182 30.7818 47.0196 29.2499 47.3845 27.5714C47.4721 27.1683 47.2164 26.7705 46.8133 26.6827Z" fill="white"/>
</svg>
