<svg width="51" height="51" viewBox="0 0 51 51" fill="none" xmlns="http://www.w3.org/2000/svg">
<path d="M11.1562 18.3281C10.9449 18.3281 10.7422 18.2442 10.5928 18.0947C10.4433 17.9453 10.3594 17.7426 10.3594 17.5312V6.375C10.3594 6.16366 10.4433 5.96097 10.5928 5.81152C10.7422 5.66208 10.9449 5.57812 11.1562 5.57812C11.3676 5.57812 11.5703 5.66208 11.7197 5.81152C11.8692 5.96097 11.9531 6.16366 11.9531 6.375V17.5312C11.9531 17.7426 11.8692 17.9453 11.7197 18.0947C11.5703 18.2442 11.3676 18.3281 11.1562 18.3281Z" fill="white"/>
<path d="M44.4537 49.4062H15.1406C13.8729 49.405 12.6576 48.9008 11.7612 48.0045C10.8648 47.1081 10.3606 45.8927 10.3594 44.625V41.4375C10.3594 41.2262 10.4433 41.0235 10.5928 40.874C10.7422 40.7246 10.9449 40.6406 11.1562 40.6406C11.3676 40.6406 11.5703 40.7246 11.7197 40.874C11.8692 41.0235 11.9531 41.2262 11.9531 41.4375V44.625C11.9531 45.4704 12.289 46.2811 12.8867 46.8789C13.4845 47.4767 14.2952 47.8125 15.1406 47.8125C15.986 47.8125 16.7968 47.4767 17.3945 46.8789C17.9923 46.2811 18.3281 45.4704 18.3281 44.625C18.3294 44.1358 18.217 43.6529 17.9998 43.2145C17.8281 42.8653 17.7489 42.4779 17.7698 42.0893C17.7907 41.7007 17.9111 41.324 18.1193 40.9952C18.3354 40.643 18.6383 40.3522 18.999 40.1506C19.3597 39.949 19.7661 39.8433 20.1793 39.8438H44.625C45.2923 39.8437 45.9522 39.9833 46.5623 40.2536C47.1724 40.5239 47.7192 40.9189 48.1675 41.4133C48.6157 41.9076 48.9555 42.4903 49.165 43.1239C49.3745 43.7574 49.4491 44.4278 49.3839 45.092C49.2371 46.2918 48.653 47.3953 47.7433 48.1913C46.8336 48.9873 45.6624 49.4199 44.4537 49.4062ZM18.6716 47.8125H44.4537C45.2667 47.8296 46.0575 47.5465 46.675 47.0173C47.2924 46.488 47.6931 45.7498 47.8005 44.9437C47.8451 44.5002 47.7962 44.0522 47.6568 43.6287C47.5175 43.2052 47.2909 42.8157 46.9916 42.4853C46.6923 42.1548 46.3271 41.8909 45.9194 41.7104C45.5118 41.5299 45.0708 41.4369 44.625 41.4375H20.1793C20.0375 41.439 19.8985 41.4763 19.7751 41.546C19.6516 41.6157 19.5478 41.7154 19.4732 41.8359C19.4077 41.9342 19.369 42.048 19.3612 42.1659C19.3534 42.2837 19.3766 42.4016 19.4286 42.5077C19.8542 43.3646 20.0097 44.3306 19.8745 45.2778C19.7394 46.225 19.3199 47.1088 18.6716 47.8125Z" fill="white"/>
<path d="M32.1141 25.5H23.9063C23.6949 25.5 23.4922 25.416 23.3428 25.2666C23.1933 25.1172 23.1094 24.9145 23.1094 24.7031C23.1094 24.4918 23.1933 24.2891 23.3428 24.1396C23.4922 23.9902 23.6949 23.9062 23.9063 23.9062H32.1141C32.3254 23.9062 32.5281 23.9902 32.6775 24.1396C32.827 24.2891 32.9109 24.4918 32.9109 24.7031C32.9109 24.9145 32.827 25.1172 32.6775 25.2666C32.5281 25.416 32.3254 25.5 32.1141 25.5Z" fill="white"/>
<path d="M38.25 30.2812H24.7031C24.4918 30.2812 24.2891 30.1973 24.1396 30.0479C23.9902 29.8984 23.9062 29.6957 23.9062 29.4844C23.9062 29.273 23.9902 29.0703 24.1396 28.9209C24.2891 28.7715 24.4918 28.6875 24.7031 28.6875H38.25C38.4613 28.6875 38.664 28.7715 38.8135 28.9209C38.9629 29.0703 39.0469 29.273 39.0469 29.4844C39.0469 29.6957 38.9629 29.8984 38.8135 30.0479C38.664 30.1973 38.4613 30.2812 38.25 30.2812Z" fill="white"/>
<path d="M38.25 35.0625H24.7031C24.4918 35.0625 24.2891 34.9785 24.1396 34.8291C23.9902 34.6797 23.9062 34.477 23.9062 34.2656C23.9062 34.0543 23.9902 33.8516 24.1396 33.7021C24.2891 33.5527 24.4918 33.4688 24.7031 33.4688H38.25C38.4613 33.4688 38.664 33.5527 38.8135 33.7021C38.9629 33.8516 39.0469 34.0543 39.0469 34.2656C39.0469 34.477 38.9629 34.6797 38.8135 34.8291C38.664 34.9785 38.4613 35.0625 38.25 35.0625Z" fill="white"/>
<path d="M44.625 41.4375C44.4137 41.4375 44.211 41.3535 44.0615 41.2041C43.9121 41.0547 43.8281 40.852 43.8281 40.6406V6.375C43.8281 5.52962 43.4923 4.71887 42.8945 4.1211C42.2968 3.52332 41.486 3.1875 40.6406 3.1875H7.17188C6.96053 3.1875 6.75784 3.10354 6.6084 2.9541C6.45896 2.80466 6.375 2.60197 6.375 2.39062C6.375 2.17928 6.45896 1.97659 6.6084 1.82715C6.75784 1.67771 6.96053 1.59375 7.17188 1.59375H40.6406C41.9083 1.59502 43.1237 2.09916 44.0201 2.99554C44.9165 3.89193 45.4206 5.10732 45.4219 6.375V40.6406C45.4219 40.852 45.3379 41.0547 45.1885 41.2041C45.039 41.3535 44.8363 41.4375 44.625 41.4375Z" fill="white"/>
<path d="M11.1563 11.1563H7.17188C6.22624 11.1563 5.30183 10.8758 4.51556 10.3505C3.72928 9.8251 3.11646 9.07837 2.75458 8.20471C2.3927 7.33105 2.29801 6.3697 2.4825 5.44223C2.66698 4.51476 3.12235 3.66282 3.79102 2.99415C4.45969 2.32548 5.31163 1.87011 6.2391 1.68562C7.16657 1.50114 8.12792 1.59582 9.00158 1.9577C9.87524 2.31958 10.622 2.93241 11.1473 3.71868C11.6727 4.50496 11.9531 5.42936 11.9531 6.375C11.9531 6.58635 11.8692 6.78904 11.7197 6.93848C11.5703 7.08792 11.3676 7.17188 11.1563 7.17188C10.9449 7.17188 10.7422 7.08792 10.5928 6.93848C10.4433 6.78904 10.3594 6.58635 10.3594 6.375C10.3594 5.74457 10.1724 5.1283 9.82219 4.60412C9.47194 4.07994 8.97412 3.67139 8.39168 3.43014C7.80924 3.18888 7.16834 3.12576 6.55003 3.24875C5.93171 3.37174 5.36375 3.67532 4.91797 4.1211C4.47219 4.56688 4.16861 5.13484 4.04562 5.75315C3.92263 6.37147 3.98576 7.01237 4.22701 7.59481C4.46827 8.17725 4.87682 8.67507 5.401 9.02531C5.92518 9.37556 6.54145 9.5625 7.17188 9.5625H11.1563C11.3676 9.5625 11.5703 9.64646 11.7197 9.7959C11.8692 9.94534 11.9531 10.148 11.9531 10.3594C11.9531 10.5707 11.8692 10.7734 11.7197 10.9229C11.5703 11.0723 11.3676 11.1563 11.1563 11.1563Z" fill="white"/>
<path d="M21.5156 18.3281C21.3043 18.3281 21.1016 18.2442 20.9521 18.0947C20.8027 17.9453 20.7188 17.7426 20.7188 17.5312V11.1562C20.7188 10.9449 20.8027 10.7422 20.9521 10.5928C21.1016 10.4433 21.3043 10.3594 21.5156 10.3594C21.727 10.3594 21.9297 10.4433 22.0791 10.5928C22.2285 10.7422 22.3125 10.9449 22.3125 11.1562V17.5312C22.3125 17.7426 22.2285 17.9453 22.0791 18.0947C21.9297 18.2442 21.727 18.3281 21.5156 18.3281Z" fill="white"/>
<path d="M23.9062 11.9531H19.125C18.9137 11.9531 18.711 11.8692 18.5615 11.7197C18.4121 11.5703 18.3281 11.3676 18.3281 11.1562C18.3281 10.9449 18.4121 10.7422 18.5615 10.5928C18.711 10.4433 18.9137 10.3594 19.125 10.3594H23.9062C24.1176 10.3594 24.3203 10.4433 24.4697 10.5928C24.6192 10.7422 24.7031 10.9449 24.7031 11.1562C24.7031 11.3676 24.6192 11.5703 24.4697 11.7197C24.3203 11.8692 24.1176 11.9531 23.9062 11.9531Z" fill="white"/>
<path d="M24.703 18.3282C24.6076 18.3279 24.5129 18.3109 24.4233 18.278C24.3251 18.2413 24.2351 18.1856 24.1585 18.1141C24.0819 18.0426 24.0201 17.9567 23.9767 17.8613C23.9333 17.7659 23.9092 17.6628 23.9057 17.5581C23.9022 17.4533 23.9194 17.3489 23.9563 17.2508L26.347 10.8758C26.4209 10.6778 26.5705 10.5173 26.7629 10.4295C26.9552 10.3418 27.1745 10.3341 27.3725 10.4081C27.5706 10.482 27.7311 10.6316 27.8188 10.824C27.9065 11.0163 27.9143 11.2356 27.8403 11.4336L25.4497 17.8086C25.3931 17.9611 25.2912 18.0926 25.1578 18.1854C25.0243 18.2783 24.8656 18.3281 24.703 18.3282Z" fill="white"/>
<path d="M29.4846 18.3282C29.3223 18.3283 29.1639 18.279 29.0305 18.1867C28.8971 18.0944 28.795 17.9636 28.7379 17.8118L26.3473 11.4368C26.2733 11.2388 26.281 11.0195 26.3687 10.8271C26.4565 10.6348 26.617 10.4852 26.815 10.4112C27.0131 10.3373 27.2324 10.345 27.4247 10.4327C27.617 10.5204 27.7666 10.681 27.8406 10.879L30.2312 17.254C30.2682 17.3521 30.2854 17.4565 30.2819 17.5613C30.2784 17.666 30.2542 17.769 30.2109 17.8645C30.1675 17.9599 30.1057 18.0458 30.0291 18.1173C29.9524 18.1888 29.8625 18.2445 29.7643 18.2812C29.6745 18.313 29.5798 18.3289 29.4846 18.3282Z" fill="white"/>
<path d="M36.6563 18.3281C36.5325 18.3281 36.4105 18.2993 36.2999 18.244C36.1892 18.1887 36.093 18.1083 36.0188 18.0094L31.2375 11.6344C31.1107 11.4653 31.0562 11.2528 31.0861 11.0436C31.116 10.8343 31.2278 10.6456 31.3969 10.5188C31.566 10.3919 31.7785 10.3375 31.9877 10.3674C32.1969 10.3973 32.3857 10.5091 32.5125 10.6781L37.2938 17.0531C37.3826 17.1715 37.4366 17.3123 37.4499 17.4597C37.4632 17.6071 37.4352 17.7553 37.369 17.8876C37.3028 18.02 37.2011 18.1313 37.0752 18.2091C36.9493 18.2869 36.8042 18.3281 36.6563 18.3281Z" fill="white"/>
<path d="M31.875 18.3281C31.727 18.3281 31.5819 18.2869 31.4561 18.2091C31.3302 18.1313 31.2284 18.02 31.1623 17.8876C31.0961 17.7553 31.0681 17.6071 31.0813 17.4597C31.0946 17.3123 31.1487 17.1715 31.2375 17.0531L36.0188 10.6781C36.0815 10.5944 36.1602 10.5239 36.2502 10.4706C36.3403 10.4172 36.44 10.3822 36.5436 10.3674C36.6472 10.3526 36.7526 10.3583 36.854 10.3843C36.9554 10.4103 37.0507 10.456 37.1344 10.5187C37.2181 10.5815 37.2886 10.6602 37.3419 10.7502C37.3953 10.8403 37.4303 10.94 37.4451 11.0436C37.4599 11.1472 37.4542 11.2526 37.4282 11.354C37.4022 11.4554 37.3565 11.5507 37.2938 11.6344L32.5125 18.0094C32.4383 18.1083 32.342 18.1887 32.2314 18.244C32.1207 18.2993 31.9987 18.3281 31.875 18.3281Z" fill="white"/>
<path d="M28.6875 16.7344H25.5C25.2887 16.7344 25.086 16.6504 24.9365 16.501C24.7871 16.3515 24.7031 16.1488 24.7031 15.9375C24.7031 15.7262 24.7871 15.5235 24.9365 15.374C25.086 15.2246 25.2887 15.1406 25.5 15.1406H28.6875C28.8988 15.1406 29.1015 15.2246 29.251 15.374C29.4004 15.5235 29.4844 15.7262 29.4844 15.9375C29.4844 16.1488 29.4004 16.3515 29.251 16.501C29.1015 16.6504 28.8988 16.7344 28.6875 16.7344Z" fill="white"/>
<path d="M11.9531 39.8438C9.90424 39.8438 7.90136 39.2362 6.19777 38.0979C4.49418 36.9596 3.16639 35.3417 2.38232 33.4487C1.59824 31.5558 1.39309 29.4729 1.79281 27.4634C2.19253 25.4538 3.17916 23.608 4.62795 22.1592C6.07673 20.7104 7.92259 19.7238 9.93212 19.3241C11.9416 18.9243 14.0246 19.1295 15.9175 19.9136C17.8104 20.6976 19.4283 22.0254 20.5666 23.729C21.7049 25.4326 22.3125 27.4355 22.3125 29.4844C22.3093 32.2309 21.2169 34.864 19.2748 36.8061C17.3327 38.7481 14.6996 39.8406 11.9531 39.8438ZM11.9531 20.7188C10.2195 20.7188 8.52471 21.2328 7.08321 22.196C5.64171 23.1592 4.5182 24.5282 3.85475 26.1299C3.1913 27.7316 3.01771 29.4941 3.35593 31.1945C3.69416 32.8948 4.529 34.4567 5.7549 35.6826C6.98079 36.9085 8.54268 37.7434 10.243 38.0816C11.9434 38.4198 13.7059 38.2462 15.3076 37.5828C16.9093 36.9193 18.2783 35.7958 19.2415 34.3543C20.2047 32.9128 20.7188 31.2181 20.7188 29.4844C20.716 27.1604 19.7916 24.9325 18.1483 23.2892C16.5051 21.6459 14.2771 20.7215 11.9531 20.7188Z" fill="white"/>
<path d="M11.9531 35.0625C11.1077 35.0625 10.297 34.7267 9.69922 34.1289C9.10145 33.5311 8.76563 32.7204 8.76563 31.875C8.76563 31.6637 8.84958 31.461 8.99903 31.3115C9.14847 31.1621 9.35116 31.0781 9.5625 31.0781C9.77385 31.0781 9.97653 31.1621 10.126 31.3115C10.2754 31.461 10.3594 31.6637 10.3594 31.875C10.3594 32.1902 10.4528 32.4984 10.628 32.7604C10.8031 33.0225 11.052 33.2268 11.3432 33.3474C11.6344 33.4681 11.9549 33.4996 12.2641 33.4381C12.5732 33.3766 12.8572 33.2248 13.0801 33.002C13.303 32.7791 13.4548 32.4951 13.5163 32.1859C13.5777 31.8768 13.5462 31.5563 13.4256 31.2651C13.3049 30.9739 13.1007 30.725 12.8386 30.5498C12.5765 30.3747 12.2683 30.2813 11.9531 30.2813C11.3227 30.2813 10.7064 30.0943 10.1822 29.7441C9.65807 29.3938 9.24951 28.896 9.00826 28.3136C8.76701 27.7311 8.70388 27.0902 8.82687 26.4719C8.94986 25.8536 9.25344 25.2856 9.69922 24.8398C10.145 24.3941 10.713 24.0905 11.3313 23.9675C11.9496 23.8445 12.5905 23.9076 13.1729 24.1489C13.7554 24.3901 14.2532 24.7987 14.6034 25.3229C14.9537 25.8471 15.1406 26.4633 15.1406 27.0938C15.1406 27.3051 15.0567 27.5078 14.9072 27.6572C14.7578 27.8067 14.5551 27.8906 14.3438 27.8906C14.1324 27.8906 13.9297 27.8067 13.7803 27.6572C13.6308 27.5078 13.5469 27.3051 13.5469 27.0938C13.5469 26.7785 13.4534 26.4704 13.2783 26.2083C13.1032 25.9462 12.8542 25.7419 12.563 25.6213C12.2718 25.5007 11.9514 25.4691 11.6422 25.5306C11.333 25.5921 11.0491 25.7439 10.8262 25.9668C10.6033 26.1897 10.4515 26.4737 10.39 26.7828C10.3285 27.092 10.3601 27.4124 10.4807 27.7037C10.6013 27.9949 10.8056 28.2438 11.0677 28.4189C11.3298 28.594 11.6379 28.6875 11.9531 28.6875C12.7985 28.6875 13.6093 29.0233 14.207 29.6211C14.8048 30.2189 15.1406 31.0296 15.1406 31.875C15.1406 32.7204 14.8048 33.5311 14.207 34.1289C13.6093 34.7267 12.7985 35.0625 11.9531 35.0625Z" fill="white"/>
<path d="M11.9531 25.5C11.7418 25.5 11.5391 25.416 11.3896 25.2666C11.2402 25.1172 11.1562 24.9145 11.1562 24.7031V23.1094C11.1562 22.898 11.2402 22.6953 11.3896 22.5459C11.5391 22.3965 11.7418 22.3125 11.9531 22.3125C12.1645 22.3125 12.3672 22.3965 12.5166 22.5459C12.666 22.6953 12.75 22.898 12.75 23.1094V24.7031C12.75 24.9145 12.666 25.1172 12.5166 25.2666C12.3672 25.416 12.1645 25.5 11.9531 25.5Z" fill="white"/>
<path d="M11.9531 36.6562C11.7418 36.6562 11.5391 36.5723 11.3896 36.4229C11.2402 36.2734 11.1562 36.0707 11.1562 35.8594V34.2656C11.1562 34.0543 11.2402 33.8516 11.3896 33.7021C11.5391 33.5527 11.7418 33.4688 11.9531 33.4688C12.1645 33.4688 12.3672 33.5527 12.5166 33.7021C12.666 33.8516 12.75 34.0543 12.75 34.2656V35.8594C12.75 36.0707 12.666 36.2734 12.5166 36.4229C12.3672 36.5723 12.1645 36.6562 11.9531 36.6562Z" fill="white"/>
</svg>
