<svg width="159" height="159" viewBox="0 0 159 159" fill="none" xmlns="http://www.w3.org/2000/svg">
<path d="M83.1023 154.334C84.7023 141.316 83.9892 128.246 80.9856 115.486C78.4416 104.672 77.6193 93.5739 78.541 82.501L79.6018 69.7686L74.653 69.3562L73.5921 82.0886C72.6232 93.6832 73.4853 105.303 76.1485 116.626C79.018 128.81 79.6987 141.294 78.1708 153.728L83.1023 154.334Z" fill="#CDB6A1"/>
<path d="M57.4139 34.7962C52.5669 34.2571 48.9397 32.3193 46.3236 28.866C39.8344 20.3024 42.1747 5.52283 42.1996 5.37377L37.2979 4.56137C37.1836 5.24955 34.5725 21.5669 42.3511 31.8498C45.3572 35.8248 49.4688 38.3514 54.5966 39.3824C53.7941 46.2368 49.1931 52.09 42.5672 54.3979L40.2394 52.8278L36.5228 39.3401L31.7329 40.6593L35.693 55.0315C35.8495 55.6029 36.2072 56.0997 36.6967 56.4302L53.5705 67.8111C54.2314 68.2558 54.6338 68.9936 54.6512 69.7886C54.6736 70.6383 54.2811 71.3985 53.5755 71.878C52.8675 72.3525 52.0128 72.437 51.2352 72.0991L43.6877 68.852C42.7734 68.462 41.7176 68.6483 40.9971 69.3315C40.2766 70.0122 40.0307 71.0582 40.3735 71.9898L50.2017 98.7391L50.5321 99.8794C51.7694 104.138 50.1918 104.903 49.6726 105.156C48.6291 105.668 46.7484 104.682 46.0404 103.549C45.5435 102.754 45.1858 101.551 44.8429 100.389C44.674 99.8198 44.5051 99.2608 44.3237 98.7341L40.0307 86.3644C39.9413 86.106 39.658 85.1694 39.3674 84.2303C39.0568 83.2167 38.7438 82.2031 38.6469 81.9198L33.9539 83.5496C34.0433 83.808 34.3266 84.7446 34.6172 85.6837C34.9278 86.6973 35.2408 87.7109 35.3352 87.9917L39.6282 100.361C39.7847 100.816 39.9313 101.305 40.0779 101.802C40.4058 102.903 40.771 104.113 41.3176 105.241L43.0865 110.16C43.2778 110.853 43.0045 111.588 42.4082 111.988C41.8493 112.363 41.3077 112.291 41.0269 112.209C40.7512 112.132 40.2443 111.911 40.0531 111.531L30.995 85.5098L26.302 87.1445L33.6856 108.324L32.826 108.644C32.2422 108.801 31.6136 108.632 31.1938 108.207L24.8263 91.7207L20.1979 93.5169L25.7778 107.959C24.2822 108.128 23.3928 107.439 22.9879 106.98L16.1608 82.1062C15.9546 81.346 15.7236 80.5733 15.4925 79.7858C14.1062 75.0978 12.6727 70.2507 15.1919 66.5142C15.4503 66.1316 15.726 65.7664 15.9993 65.4037C16.8266 64.3131 17.7657 63.0734 18.2775 61.4238C18.8588 59.5406 18.9682 57.6102 19.0005 56.1395C19.0725 52.7583 18.67 49.3646 17.8328 46.3262C17.7955 46.192 17.7508 46.0653 17.6912 45.9386L9.70392 28.7642L5.19727 30.861L13.0976 47.8417C13.7708 50.3733 14.0913 53.2005 14.0317 56.0376C14.0069 57.1854 13.9298 58.6661 13.5323 59.953C13.2789 60.7679 12.705 61.5281 12.0392 62.4051C11.7063 62.8423 11.3759 63.2821 11.0678 63.7392C8.63067 67.3589 8.53875 71.3215 9.18717 75.0804C8.49403 77.3834 7.56239 81.341 7.56239 83.9446V133.215C7.56487 138.67 7.45308 154.011 7.45308 154.014L12.4218 154.049C12.4218 154.049 12.5336 138.68 12.5336 133.215V87.6563L18.3197 108.749C18.3868 108.99 18.4887 109.218 18.6228 109.429C19.5893 110.935 21.9345 112.98 25.3232 112.98C26.307 112.98 27.3827 112.788 28.533 112.383C29.646 113.173 30.9751 113.643 32.3987 113.643C33.0397 113.643 33.6955 113.556 34.3514 113.372L35.3228 113.014L35.457 113.397C36.2718 115.163 37.8146 116.475 39.6878 116.999C40.2791 117.166 40.8803 117.248 41.4841 117.248C42.7834 117.248 44.0728 116.865 45.1783 116.122C47.1385 114.806 48.2018 112.58 48.0602 110.195C48.3807 110.237 48.7036 110.267 49.0266 110.267C49.9881 110.267 50.9445 110.07 51.8489 109.631C54.0401 108.562 57.399 105.7 55.3046 98.5006L47.0292 75.7039L49.2751 76.6704C51.6054 77.6666 54.2562 77.4231 56.363 75.9971C58.4672 74.576 59.6846 72.2109 59.625 69.6768C59.5703 67.2745 58.348 65.041 56.358 63.697L47.4515 57.6922C54.1693 54.1346 58.7182 47.479 59.5728 39.8718C82.2725 39.755 105.357 7.82584 106.364 6.41223L102.321 3.52539C102.083 3.86078 78.141 37.1514 57.4139 34.7962Z" fill="#CDB6A1"/>
<path d="M109.593 44.3933C112.594 44.3933 115.526 43.243 117.578 41.0295C119.205 39.273 120.221 37.0843 120.522 34.6993L124.199 5.27433L119.27 4.6582L115.593 34.0831C115.424 35.4297 114.85 36.6644 113.936 37.6532C111.993 39.75 108.522 40.0432 105.866 38.3265L93.2707 30.2075L90.5776 34.3862L97.0569 38.56C97.5364 47.1982 102.771 54.783 110.594 58.3207L103.313 62.7479C101.263 63.995 99.9388 66.1688 99.7673 68.5613C99.586 71.0978 100.694 73.5151 102.729 75.0331C104.763 76.5535 107.404 76.9262 109.777 76.0343L112.065 75.1747L103.106 96.436L102.724 97.5564C100.297 104.649 103.516 107.668 105.653 108.838C106.637 109.375 107.702 109.613 108.773 109.613C108.977 109.613 109.181 109.588 109.384 109.571C109.126 111.886 110.087 114.207 112.015 115.638C113.171 116.495 114.554 116.94 115.963 116.94C116.462 116.94 116.964 116.885 117.461 116.771C119.354 116.333 120.954 115.094 121.955 113.151L122.017 112.997L123.155 113.476C123.826 113.697 124.517 113.802 125.2 113.802C126.489 113.802 127.736 113.392 128.817 112.694C130.099 113.215 131.297 113.447 132.387 113.447C135.57 113.447 137.863 111.611 138.856 110.204C139.001 110.001 139.115 109.777 139.192 109.539L144.213 94.1205V154.031H149.182V83.9445C149.182 83.9073 149.169 81.0552 149.122 79.1919C150.513 74.6952 151.41 69.6246 148.553 64.9217C148.267 64.4497 147.957 63.995 147.646 63.5404C147.023 62.6311 146.486 61.846 146.27 61.0162C145.93 59.7144 145.922 58.2313 145.954 57.081C146.026 54.1693 146.506 51.2874 147.311 48.8254L153.889 30.6572L149.216 28.9628L142.613 47.2056C141.634 50.1943 141.073 53.5656 140.986 56.9493C140.946 58.425 140.966 60.3604 141.46 62.2659C141.892 63.9354 142.769 65.2173 143.545 66.3502C143.803 66.7253 144.064 67.103 144.305 67.498C146.24 70.6854 145.477 74.3648 144.208 78.2727L144.111 78.2827C144.116 78.3323 144.121 78.4367 144.126 78.5311C143.887 79.259 143.636 79.9919 143.381 80.7347C143.112 81.5123 142.844 82.2775 142.6 83.0278L134.616 107.544C134.173 107.996 133.252 108.632 131.783 108.398L138.034 94.2373L133.488 92.2275L126.35 108.398C125.913 108.803 125.294 108.962 124.899 108.831L123.868 108.393L132.226 87.5891L127.617 85.7358L117.439 111.076C117.131 111.668 116.614 111.864 116.336 111.931C116.055 111.988 115.501 112.043 114.967 111.645C114.388 111.218 114.149 110.468 114.308 109.958L116.44 104.788L116.405 104.774C116.959 103.718 117.409 102.612 117.769 101.584C117.941 101.092 118.109 100.607 118.288 100.163L123.158 88.0065C123.267 87.7307 123.625 86.732 123.983 85.7358C124.315 84.8116 124.646 83.8849 124.748 83.6315L120.134 81.7881C120.025 82.0639 119.667 83.0626 119.309 84.0588C118.977 84.983 118.646 85.9097 118.544 86.1606L113.675 98.3167C113.469 98.8309 113.277 99.3825 113.081 99.9439C112.681 101.089 112.266 102.274 111.732 103.044C110.974 104.135 109.044 105.022 108.03 104.48C107.526 104.205 105.986 103.362 107.422 99.1638L118.882 71.786C119.265 70.8718 119.071 69.8134 118.383 69.1004C117.697 68.3849 116.646 68.1439 115.72 68.4942L108.028 71.3811C107.23 71.6842 106.383 71.5599 105.698 71.0506C105.017 70.5413 104.659 69.7613 104.716 68.9141C104.773 68.124 105.213 67.4036 105.891 66.9912L123.282 56.4152C123.789 56.1071 124.166 55.6276 124.353 55.0637L128.984 40.8953L124.263 39.3525L119.916 52.6489L116 55.0314L114.415 54.5047C108.587 52.5719 104.296 47.8938 102.691 42.1946L103.171 42.5027C105.141 43.7722 107.387 44.3933 109.593 44.3933Z" fill="#CDB6A1"/>
<path d="M32.2969 126.703H37.2656V154.031H32.2969V126.703Z" fill="#CDB6A1"/>
<path d="M121.734 126.703H126.703V154.031H121.734V126.703Z" fill="#CDB6A1"/>
</svg>
