<svg width="162" height="162" viewBox="0 0 162 162" fill="none" xmlns="http://www.w3.org/2000/svg">
<g clip-path="url(#clip0_1301_3026)">
<path d="M158.515 135.593C157.883 133.639 157.408 131.627 157.102 129.614L154.235 110.756C153.301 104.618 150.995 98.6391 147.564 93.4652C146.84 92.3742 145.369 92.0765 144.278 92.8001C143.187 93.5234 142.889 94.9944 143.613 96.0857C146.665 100.688 148.718 106.008 149.548 111.468L152.415 130.326C152.705 132.235 153.131 134.142 153.681 136.008H150.172C147.9 126.912 139.662 120.153 129.873 120.153C120.084 120.153 111.846 126.912 109.574 136.008H93.0966C93.4263 132.284 94.791 128.688 97.0463 125.692L102.468 118.49C103.672 116.892 103.744 114.776 102.652 113.099C101.561 111.423 99.5972 110.634 97.6488 111.087L92.3926 112.31C91.5947 112.512 90.7366 112.01 90.4186 111.18L89.4241 108.572C89.0447 107.578 88.2455 106.822 87.2301 106.498C85.2751 105.874 83.4757 104.776 82.0265 103.322L81.9316 103.226L82.1847 103.207C83.4902 103.111 84.4701 101.974 84.3733 100.668C84.2815 99.4294 83.2545 98.4884 82.0325 98.4755L85.7146 94.4214C86.2316 93.8521 86.4404 93.0678 86.2746 92.3166L85.3567 88.1584C84.4176 83.905 85.9164 79.5351 89.2684 76.7532L92.0493 74.446C97.1052 70.2511 103.601 68.1793 110.115 68.6162C109.932 70.3504 110.388 72.1068 111.415 73.5379L119.663 85.0377C121.571 87.8797 126.215 87.5028 127.646 84.4062L129.185 81.3332C129.496 80.7127 129.766 80.0777 130.002 79.4332L137.192 88.0379C137.661 88.5989 138.335 88.8884 139.013 88.8884C139.549 88.8884 140.088 88.7074 140.531 88.3369C141.536 87.4978 141.67 86.0027 140.83 84.9985L132.326 74.8209C131.942 74.3606 131.537 73.9094 131.124 73.4712C131.192 70.3685 130.489 67.2538 129.003 64.4412L121.848 50.8962C120.989 49.2705 119.256 48.377 117.434 48.6222C115.773 48.8449 114.435 49.9615 113.908 51.5167C111.402 47.049 108.698 42.6722 105.838 38.4387C106.867 37.049 107.651 35.4629 108.128 33.7359L113.567 14.038C114.068 12.2225 113.538 10.2826 112.183 8.97459C110.827 7.6672 108.87 7.20588 107.073 7.77129L95.5345 11.4043L95.975 5.52101C96.1155 3.64282 95.2197 1.84247 93.6374 0.82143C92.0547 -0.199297 90.0449 -0.273652 88.3917 0.629055L75.4715 7.68238C72.2616 9.43464 69.5933 12.1156 67.8392 15.3173C62.0654 15.8327 56.4188 17.7704 51.3993 21.0933L41.5357 27.6233C36.8405 30.7316 33.7958 35.7242 33.1816 41.3214L32.2951 49.4031C32.0802 51.3601 30.7314 53.0174 28.8586 53.6246L10.2668 59.6553C7.49924 60.5529 5.25497 62.6017 4.1099 65.2762C2.96451 67.9508 3.03064 70.989 4.29088 73.6113L7.03033 79.3117C10.6234 86.7884 17.6885 91.8176 25.9299 92.7653L31.4907 93.4041C34.1435 96.8805 38.5279 98.5261 42.8529 97.6168L51.667 95.7626C51.8762 95.8528 52.0027 96.0031 52.0673 96.1012C52.1556 96.235 52.2872 96.5134 52.1796 96.8713L45.2902 119.767C43.941 124.25 43.2573 128.896 43.2573 133.578V136.799C43.2573 138.977 45.0295 140.749 47.2079 140.749H108.959C108.957 140.859 108.951 140.968 108.951 141.078C108.951 152.615 118.337 162.001 129.874 162.001C141.411 162.001 150.797 152.615 150.797 141.078C150.797 140.968 150.791 140.859 150.789 140.749H154.756C156.015 140.749 157.21 140.141 157.951 139.123C158.69 138.106 158.9 136.787 158.515 135.593ZM100.559 64.8447L99.0492 56.0258L108.372 63.8119C105.725 63.8151 103.098 64.166 100.559 64.8447ZM118.165 54.0745L124.811 66.6548C126.876 70.5637 126.926 75.257 124.946 79.2092L123.454 82.1881L115.267 70.7738C114.866 70.2157 114.722 69.5107 114.872 68.8402L118.165 54.0745ZM77.743 11.8431L90.6631 4.7898C90.7138 4.76164 90.8698 4.67684 91.0675 4.80467C91.2653 4.93218 91.252 5.10905 91.2476 5.16695L90.6518 13.1252C88.2477 14.2491 86.1227 15.8447 84.3942 17.8134C80.8884 16.3867 77.2421 15.5432 73.5804 15.272C74.7384 13.8849 76.1518 12.7117 77.743 11.8431ZM8.46745 67.1421C8.9873 65.9274 9.93715 64.9598 11.1208 64.4077L15.6138 69.0139L12.7351 68.9149C11.0199 68.8551 9.40907 69.5139 8.23457 70.6593C7.91563 69.5018 7.98777 68.2625 8.46745 67.1421ZM47.997 133.577C47.997 129.359 48.6134 125.172 49.829 121.132L56.7185 98.2366C57.2026 96.627 56.9507 94.8985 56.0265 93.4943C55.1023 92.0904 53.6145 91.1747 51.9448 90.983C51.6917 90.9545 51.4357 90.9659 51.1864 91.0181L41.8762 92.977C39.2237 93.5354 36.5317 92.4426 35.019 90.1929C34.4833 89.3965 33.6224 88.8767 32.6561 88.7656L26.4706 88.055C19.8565 87.2946 14.1865 83.2586 11.3028 77.2576L10.6807 75.9635L11.2069 74.5624C11.4192 73.9973 11.9685 73.642 12.5706 73.6525L16.7393 73.7964C18.4773 73.8663 20.046 72.87 20.7472 71.2832C21.4483 69.6967 21.1186 67.8695 19.9077 66.6276L16.1169 62.7409L30.3207 58.1334C33.9647 56.9516 36.589 53.7274 37.007 49.9195L37.8935 41.8378C38.3536 37.6445 40.6349 33.9039 44.1524 31.5755L54.016 25.0455C62.2673 19.5831 72.4755 18.4332 81.6823 21.8444C81.4386 22.3288 81.208 22.8215 81.0039 23.3303L75.4222 37.2328C74.8748 38.5965 75.0213 40.1488 75.8145 41.386C76.6074 42.6231 77.9572 43.404 79.4247 43.4758L86.7954 43.8356C86.8346 43.8375 86.8739 43.8384 86.9131 43.8384C88.1689 43.8384 89.2169 42.8516 89.2786 41.5837C89.3422 40.276 88.3341 39.1642 87.0267 39.1006L79.9205 38.7538L85.4035 25.0964C87.0197 21.0711 90.3192 18.0156 94.4566 16.7136L108.497 12.2931C108.553 12.2757 108.721 12.2225 108.891 12.3858C109.061 12.5493 109.013 12.7199 108.998 12.7762L103.559 32.4741C102.693 35.6078 100.323 38.0555 97.2191 39.0218C95.969 39.411 95.2713 40.7396 95.6605 41.9897C96.0497 43.2398 97.3779 43.9365 98.6284 43.5483C99.9747 43.1291 101.225 42.519 102.359 41.7568C105.967 47.1496 109.311 52.7776 112.309 58.5172C112.311 58.521 112.313 58.5238 112.315 58.5276L111.864 60.5507L101.251 51.6879C99.8396 50.5096 97.8981 50.3409 96.3047 51.2579C94.7116 52.1751 93.8823 53.9388 94.1927 55.7508L96.025 66.4507C93.5244 67.5658 91.1637 69.0203 89.0223 70.7972L86.2417 73.1044C81.5168 77.025 79.4042 83.1848 80.728 89.1798L81.3817 92.1407L76.5258 97.4873C74.7957 99.381 74.684 102.425 76.3844 104.373L78.6685 106.666C80.5071 108.512 82.7577 109.938 85.2067 110.816L85.9895 112.869C87.1403 115.909 90.3778 117.671 93.4728 116.926L98.6116 115.731L93.2593 122.84C90.3866 126.656 88.6834 131.257 88.3426 136.008H78.3714L79.0846 133.601C79.6601 131.66 79.2953 129.615 78.0838 127.992C76.8719 126.369 75.0156 125.438 72.9903 125.438C71.244 125.321 71.1773 123.794 71.6842 122.451C72.198 120.528 71.7971 118.519 70.584 116.94C69.3712 115.36 67.5339 114.455 65.5427 114.455C63.3247 114.652 63.1333 112.911 63.7136 111.209C64.2312 109.609 63.432 107.664 61.5813 107.613C60.2714 107.561 59.1722 108.584 59.1228 109.892C59.1295 110.09 58.8409 111.255 58.8017 111.471C58.385 113.362 58.8415 115.311 60.0543 116.821C61.2671 118.33 63.0732 119.195 65.0089 119.195C66.9931 118.991 67.5301 120.555 66.8488 122.182C66.335 124.106 66.7359 126.115 67.9487 127.694C69.1614 129.273 70.9988 130.179 72.99 130.179C73.5048 130.179 73.9768 130.415 74.2847 130.828C74.5926 131.24 74.6853 131.76 74.5391 132.254L73.4269 136.007H47.9973V133.577H47.997ZM129.873 157.259C120.95 157.259 113.691 150 113.691 141.077C113.691 132.153 120.95 124.894 129.873 124.894C138.796 124.894 146.056 132.153 146.056 141.077C146.056 150 138.796 157.259 129.873 157.259Z" fill="#CDB6A1"/>
<path d="M50.1514 60.2946C51.7395 58.7064 51.7395 56.1315 50.1514 54.5433C48.5632 52.9551 45.9882 52.9551 44.4001 54.5433C42.8119 56.1315 42.8119 58.7064 44.4001 60.2946C45.9882 61.8828 48.5632 61.8828 50.1514 60.2946Z" fill="#CDB6A1"/>
<path d="M30.5755 77.9012C32.0295 77.6655 33.0171 76.2958 32.7814 74.8418C32.5457 73.3879 31.176 72.4003 29.722 72.636C28.268 72.8717 27.2804 74.2414 27.5161 75.6954C27.7518 77.1493 29.1216 78.1369 30.5755 77.9012Z" fill="#CDB6A1"/>
<path d="M40.4744 77.9369C41.9475 77.9369 43.1417 76.7427 43.1417 75.2696C43.1417 73.7965 41.9475 72.6023 40.4744 72.6023C39.0013 72.6023 37.8071 73.7965 37.8071 75.2696C37.8071 76.7427 39.0013 77.9369 40.4744 77.9369Z" fill="#CDB6A1"/>
<path d="M38.6251 83.7185C39.1893 82.3573 38.5432 80.7965 37.1821 80.2323C35.8209 79.6681 34.2601 80.3141 33.6959 81.6753C33.1317 83.0365 33.7777 84.5973 35.1389 85.1615C36.5001 85.7257 38.0609 85.0796 38.6251 83.7185Z" fill="#CDB6A1"/>
<path d="M95.619 96.6064C97.7067 96.6064 99.3991 94.914 99.3991 92.8263C99.3991 90.7386 97.7067 89.0461 95.619 89.0461C93.5313 89.0461 91.8389 90.7386 91.8389 92.8263C91.8389 94.914 93.5313 96.6064 95.619 96.6064Z" fill="#CDB6A1"/>
<path d="M117.131 101.043L125.193 102.153C126.49 102.331 127.686 101.425 127.864 100.128C128.043 98.8314 127.136 97.6351 125.84 97.457L117.778 96.3467C113.297 95.7294 108.797 96.484 104.755 98.5315L99.7799 101.077C97.6473 102.084 97.7995 105.415 100.011 106.237L105.539 108.47C107.937 109.415 110.067 110.967 111.701 112.959L114.457 116.317C114.925 116.888 115.605 117.184 116.291 117.184C116.82 117.184 117.352 117.007 117.793 116.646C118.804 115.815 118.952 114.322 118.121 113.31L115.366 109.952C114.277 108.624 113.019 107.447 111.636 106.446C113.518 106.864 115.328 107.586 116.991 108.596L124.06 112.891C124.445 113.125 124.87 113.236 125.289 113.236C126.089 113.236 126.871 112.831 127.317 112.097C127.997 110.978 127.641 109.52 126.522 108.84L119.453 104.545C116.684 102.863 113.594 101.809 110.397 101.437C112.579 100.869 114.858 100.73 117.131 101.043Z" fill="#CDB6A1"/>
<path d="M135.57 134.551L127.788 142.333L124.741 139.285C123.815 138.36 122.314 138.36 121.389 139.285C120.463 140.211 120.463 141.712 121.389 142.638L126.112 147.361C126.557 147.806 127.16 148.055 127.788 148.055C128.417 148.055 129.02 147.806 129.464 147.361L138.922 137.903C139.848 136.977 139.848 135.476 138.922 134.551C137.997 133.625 136.496 133.625 135.57 134.551Z" fill="#CDB6A1"/>
</g>
<defs>
<clipPath id="clip0_1301_3026">
<rect width="162" height="162" fill="white"/>
</clipPath>
</defs>
</svg>
