<svg width="171" height="171" viewBox="0 0 171 171" fill="none" xmlns="http://www.w3.org/2000/svg">
<path d="M49.4556 160.312H121.544C126.503 160.307 131.256 158.334 134.763 154.828C138.269 151.322 140.241 146.568 140.247 141.609V29.3906C140.241 24.432 138.269 19.6782 134.763 16.1719C131.256 12.6656 126.503 10.6933 121.544 10.6875H49.4556C44.497 10.6933 39.7431 12.6656 36.2368 16.1719C32.7306 19.6782 30.7582 24.432 30.7524 29.3906V141.609C30.7582 146.568 32.7306 151.322 36.2368 154.828C39.7431 158.334 44.497 160.307 49.4556 160.312ZM36.0962 29.3906C36.1003 25.8488 37.5092 22.4532 40.0137 19.9487C42.5181 17.4442 45.9137 16.0354 49.4556 16.0312H121.544C125.086 16.0354 128.481 17.4442 130.986 19.9487C133.49 22.4532 134.899 25.8488 134.903 29.3906V141.609C134.899 145.151 133.49 148.547 130.986 151.051C128.481 153.556 125.086 154.965 121.544 154.969H49.4556C45.9137 154.965 42.5181 153.556 40.0137 151.051C37.5092 148.547 36.1003 145.151 36.0962 141.609V29.3906Z" fill="#CDB6A1"/>
<path d="M69.8497 53.3971H76.7773C76.9267 53.3974 77.0699 53.4568 77.1755 53.5625C77.2812 53.6681 77.3406 53.8113 77.3409 53.9607V60.8896C77.3428 62.4557 77.9658 63.9572 79.0732 65.0646C80.1806 66.1721 81.6821 66.795 83.2483 66.7969H87.7518C89.318 66.795 90.8194 66.1721 91.9269 65.0646C93.0343 63.9572 93.6573 62.4557 93.6592 60.8896V53.9607C93.6594 53.8113 93.7189 53.6681 93.8245 53.5625C93.9302 53.4568 94.0734 53.3974 94.2228 53.3971H101.15C102.716 53.3952 104.218 52.7722 105.325 51.6648C106.433 50.5574 107.056 49.0559 107.058 47.4898V42.9888C107.056 41.4227 106.433 39.9212 105.325 38.8138C104.218 37.7063 102.716 37.0833 101.15 37.0815H94.2228C94.0734 37.0812 93.9302 37.0217 93.8245 36.9161C93.7189 36.8105 93.6594 36.6673 93.6592 36.5179V29.589C93.6573 28.0228 93.0343 26.5214 91.9269 25.4139C90.8194 24.3065 89.318 23.6835 87.7518 23.6816H83.2483C81.6821 23.6835 80.1806 24.3065 79.0732 25.4139C77.9658 26.5214 77.3428 28.0228 77.3409 29.589V36.5179C77.3406 36.6673 77.2812 36.8105 77.1755 36.9161C77.0699 37.0217 76.9267 37.0812 76.7773 37.0815H69.8497C68.2836 37.0833 66.7821 37.7063 65.6747 38.8138C64.5672 39.9212 63.9443 41.4227 63.9424 42.9888V47.4898C63.9443 49.0559 64.5673 50.5574 65.6747 51.6648C66.7821 52.7722 68.2836 53.3952 69.8497 53.3971ZM69.2861 42.9888C69.2864 42.8394 69.3458 42.6962 69.4515 42.5906C69.5571 42.4849 69.7003 42.4255 69.8497 42.4252H76.7773C78.3434 42.4233 79.8449 41.8003 80.9523 40.6929C82.0598 39.5855 82.6828 38.084 82.6846 36.5179V29.589C82.6849 29.4396 82.7444 29.2964 82.85 29.1908C82.9557 29.0851 83.0989 29.0257 83.2483 29.0254H87.7518C87.9012 29.0257 88.0444 29.0851 88.15 29.1908C88.2557 29.2964 88.3152 29.4396 88.3154 29.589V36.5179C88.3173 38.084 88.9403 39.5855 90.0477 40.6929C91.1551 41.8003 92.6566 42.4233 94.2228 42.4252H101.15C101.3 42.4255 101.443 42.4849 101.549 42.5906C101.654 42.6962 101.714 42.8394 101.714 42.9888V47.4898C101.714 47.6392 101.654 47.7824 101.549 47.888C101.443 47.9936 101.3 48.0531 101.15 48.0534H94.2228C92.6566 48.0552 91.1551 48.6782 90.0477 49.7857C88.9403 50.8931 88.3173 52.3946 88.3154 53.9607V60.8896C88.3152 61.039 88.2557 61.1822 88.15 61.2878C88.0444 61.3935 87.9012 61.4529 87.7518 61.4532H83.2483C83.0989 61.4529 82.9557 61.3935 82.85 61.2878C82.7444 61.1822 82.6849 61.039 82.6846 60.8896V53.9607C82.6828 52.3946 82.0598 50.8931 80.9523 49.7857C79.8449 48.6782 78.3434 48.0552 76.7773 48.0534H69.8497C69.7003 48.0531 69.5571 47.9936 69.4515 47.888C69.3459 47.7824 69.2864 47.6392 69.2861 47.4898V42.9888Z" fill="#CDB6A1"/>
<path d="M47.3291 98.104H63.9422C65.359 98.1024 66.7172 97.5389 67.719 96.5371C68.7208 95.5353 69.2843 94.177 69.286 92.7603V76.1484C69.2843 74.7317 68.7208 73.3734 67.719 72.3716C66.7172 71.3698 65.359 70.8063 63.9422 70.8047H47.3291C45.9123 70.8063 44.5541 71.3698 43.5523 72.3716C42.5505 73.3734 41.987 74.7317 41.9854 76.1484V92.7603C41.987 94.177 42.5505 95.5353 43.5523 96.5371C44.5541 97.5389 45.9123 98.1024 47.3291 98.104ZM47.3291 76.1484H63.9422L63.9449 92.7603H47.3291V76.1484Z" fill="#CDB6A1"/>
<path d="M47.3291 135.873H63.9422C65.359 135.871 66.7172 135.308 67.719 134.306C68.7208 133.304 69.2843 131.946 69.286 130.529V113.917C69.2843 112.501 68.7208 111.142 67.719 110.141C66.7172 109.139 65.359 108.575 63.9422 108.574H47.3291C45.9123 108.575 44.5541 109.139 43.5523 110.141C42.5505 111.142 41.987 112.501 41.9854 113.917V130.529C41.987 131.946 42.5505 133.304 43.5523 134.306C44.5541 135.308 45.9123 135.871 47.3291 135.873ZM47.3291 113.917H63.9422L63.9474 130.529H47.3291V113.917Z" fill="#CDB6A1"/>
<path d="M73.7661 78.2971C73.766 78.648 73.8351 78.9955 73.9693 79.3197C74.1035 79.6439 74.3004 79.9385 74.5485 80.1866C74.7966 80.4348 75.0912 80.6316 75.4154 80.7658C75.7396 80.9 76.0871 80.9691 76.438 80.969H124.185C124.893 80.969 125.573 80.6875 126.074 80.1864C126.575 79.6853 126.857 79.0057 126.857 78.2971C126.857 77.5885 126.575 76.9089 126.074 76.4078C125.573 75.9067 124.893 75.6252 124.185 75.6252H76.438C76.0871 75.6251 75.7396 75.6942 75.4154 75.8284C75.0912 75.9627 74.7966 76.1595 74.5485 76.4076C74.3004 76.6557 74.1035 76.9503 73.9693 77.2745C73.8351 77.5987 73.766 77.9462 73.7661 78.2971Z" fill="#CDB6A1"/>
<path d="M76.438 93.2834H116.169C116.878 93.2834 117.557 93.0019 118.058 92.5009C118.559 91.9998 118.841 91.3202 118.841 90.6116C118.841 89.9029 118.559 89.2233 118.058 88.7223C117.557 88.2212 116.878 87.9397 116.169 87.9397H76.438C75.7294 87.9397 75.0498 88.2212 74.5487 88.7223C74.0476 89.2233 73.7661 89.9029 73.7661 90.6116C73.7661 91.3202 74.0476 91.9998 74.5487 92.5009C75.0498 93.0019 75.7294 93.2834 76.438 93.2834Z" fill="#CDB6A1"/>
<path d="M124.185 113.396H76.438C75.7294 113.396 75.0498 113.677 74.5487 114.178C74.0476 114.679 73.7661 115.359 73.7661 116.067C73.7661 116.776 74.0476 117.456 74.5487 117.957C75.0498 118.458 75.7294 118.739 76.438 118.739H124.185C124.893 118.739 125.573 118.458 126.074 117.957C126.575 117.456 126.857 116.776 126.857 116.067C126.857 115.359 126.575 114.679 126.074 114.178C125.573 113.677 124.893 113.396 124.185 113.396Z" fill="#CDB6A1"/>
<path d="M116.169 125.708H76.438C75.7294 125.708 75.0498 125.99 74.5487 126.491C74.0476 126.992 73.7661 127.672 73.7661 128.38C73.7661 129.089 74.0476 129.769 74.5487 130.27C75.0498 130.771 75.7294 131.052 76.438 131.052H116.169C116.878 131.052 117.557 130.771 118.058 130.27C118.559 129.769 118.841 129.089 118.841 128.38C118.841 127.672 118.559 126.992 118.058 126.491C117.557 125.99 116.878 125.708 116.169 125.708Z" fill="#CDB6A1"/>
</svg>
