<svg width="179" height="179" viewBox="0 0 179 179" fill="none" xmlns="http://www.w3.org/2000/svg">
<path d="M153.828 100.506C166.394 98.9534 176.203 87.0807 176.203 72.7188C176.203 59.056 166.316 19.5781 151.031 19.5781C135.746 19.5781 125.859 59.056 125.859 72.7188C125.859 87.0891 135.668 98.9534 148.234 100.506V117.469H139.701C139.256 112.953 137.717 108.613 135.216 104.826C132.715 101.039 129.329 97.9194 125.35 95.7368C121.372 93.5542 116.921 92.3748 112.383 92.3007C107.846 92.2267 103.359 93.2603 99.3112 95.3119L94.8362 88.2834L90.585 75.5156H102.086C103.198 75.5156 104.265 75.9576 105.052 76.7444C105.839 77.5312 106.281 78.5983 106.281 79.7109C106.281 80.8236 105.839 81.8907 105.052 82.6775C104.265 83.4642 103.198 83.9062 102.086 83.9062H100.687V89.5H102.086C104.682 89.5 107.172 88.4687 109.008 86.6329C110.843 84.7971 111.875 82.3072 111.875 79.7109C111.875 77.1147 110.843 74.6248 109.008 72.789C107.172 70.9532 104.682 69.9219 102.086 69.9219H86.7029C86.26 69.9222 85.8235 70.0277 85.4293 70.2298C85.0351 70.4318 84.6946 70.7246 84.4357 71.084C84.1768 71.4434 84.0069 71.8591 83.9401 72.297C83.8734 72.7349 83.9115 73.1823 84.0515 73.6026L88.4174 86.7031H55.9373V81.1094H64.3279C65.0697 81.1094 65.7811 80.8147 66.3056 80.2902C66.8301 79.7657 67.1248 79.0543 67.1248 78.3125C67.1248 74.6036 65.6514 71.0466 63.0289 68.4241C60.4063 65.8015 56.8493 64.3281 53.1404 64.3281C49.4315 64.3281 45.8745 65.8015 43.252 68.4241C40.6294 71.0466 39.156 74.6036 39.156 78.3125C39.156 79.0543 39.4507 79.7657 39.9752 80.2902C40.4997 80.8147 41.2111 81.1094 41.9529 81.1094H50.3435V88.591L44.8505 96.1426C39.8429 93.2259 34.0523 91.9382 28.2806 92.4579C22.5088 92.9775 17.0414 95.2788 12.6353 99.0431C8.22925 102.807 5.1025 107.848 3.68798 113.468C2.27347 119.088 2.64118 125.009 4.7402 130.41C6.83922 135.812 10.5657 140.427 15.4037 143.617C20.2417 146.807 25.9519 148.415 31.7436 148.216C37.5353 148.018 43.122 146.023 47.7302 142.509C52.3384 138.995 55.7401 134.136 57.4644 128.603C58.2359 129.967 59.2863 131.153 60.547 132.083C61.8078 133.014 63.2505 133.668 64.7812 134.003C66.3119 134.338 67.896 134.347 69.4303 134.029C70.9645 133.71 72.4144 133.072 73.6853 132.155C74.9561 131.239 76.0195 130.064 76.8058 128.709C77.5922 127.354 78.084 125.848 78.249 124.29C78.4141 122.731 78.2487 121.156 77.7637 119.666C77.2787 118.176 76.485 116.805 75.4343 115.642L90.8759 92.4759L94.5929 98.3186C90.9631 101.176 88.0981 104.888 86.2539 109.124C84.4098 113.359 83.644 117.986 84.0251 122.59C84.4062 127.194 85.9223 131.631 88.4378 135.506C90.9533 139.38 94.3898 142.571 98.44 144.793C102.49 147.015 107.028 148.198 111.647 148.237C116.267 148.277 120.824 147.17 124.911 145.018C128.998 142.865 132.489 139.733 135.07 135.902C137.65 132.07 139.242 127.659 139.701 123.062H176.203V117.469H153.828V100.506ZM131.453 72.7188C131.453 58.547 141.692 25.1719 151.031 25.1719C160.37 25.1719 170.609 58.547 170.609 72.7188C170.609 83.9678 163.298 93.2786 153.828 94.8392V51.8401L160.974 47.0854L157.869 42.4314L149.479 48.0251C149.097 48.2798 148.784 48.6246 148.567 49.0289C148.35 49.4333 148.235 49.8848 148.234 50.3438V69.9219L141.522 64.8875L138.165 69.3625L148.234 76.9141V94.8392C138.764 93.2786 131.453 83.9678 131.453 72.7188ZM53.1404 69.9219C54.8752 69.924 56.5669 70.4627 57.9835 71.4642C59.4001 72.4657 60.4722 73.8808 61.0528 75.5156H45.2281C45.8086 73.8808 46.8807 72.4657 48.2973 71.4642C49.7139 70.4627 51.4056 69.924 53.1404 69.9219ZM67.1248 111.875C66.5995 111.89 66.076 111.943 65.5585 112.034L57.3357 92.2969H84.2752L70.7803 112.538C69.6077 112.113 68.3719 111.889 67.1248 111.875ZM30.7654 142.641C27.3487 142.647 23.9758 141.872 20.9054 140.373C17.835 138.874 15.1487 136.692 13.0523 133.994C10.956 131.296 9.50539 128.154 8.81174 124.808C8.1181 121.463 8.19985 118.003 9.05072 114.694C9.90159 111.385 11.499 108.314 13.7204 105.718C15.9418 103.122 18.7282 101.07 21.866 99.7174C25.0038 98.3652 28.4095 97.7496 31.8221 97.9178C35.2346 98.086 38.5633 99.0334 41.553 100.688L33.1316 112.267C32.366 112.022 31.569 111.89 30.7654 111.875C29.2539 111.872 27.7696 112.278 26.4696 113.049C25.1695 113.82 24.1019 114.928 23.3796 116.256C22.6574 117.584 22.3072 119.082 22.3661 120.593C22.425 122.103 22.8909 123.57 23.7144 124.837C24.538 126.105 25.6887 127.126 27.0448 127.794C28.401 128.461 29.9123 128.75 31.4191 128.63C32.9259 128.509 34.3721 127.984 35.605 127.109C36.8378 126.235 37.8116 125.043 38.4233 123.661L52.6873 124.757C51.6457 129.804 48.8971 134.337 44.9043 137.595C40.9115 140.852 35.9183 142.634 30.7654 142.641ZM53.0845 119.178L38.8204 118.081C38.581 117.168 38.1896 116.302 37.6625 115.519L46.0531 103.982C50.2827 107.941 52.8046 113.391 53.0845 119.178ZM33.5623 120.266C33.5623 120.819 33.3983 121.36 33.0909 121.819C32.7836 122.279 32.3468 122.638 31.8357 122.85C31.3247 123.061 30.7623 123.117 30.2198 123.009C29.6772 122.901 29.1789 122.634 28.7877 122.243C28.3966 121.852 28.1302 121.354 28.0223 120.811C27.9144 120.269 27.9698 119.706 28.1814 119.195C28.3931 118.684 28.7516 118.247 29.2116 117.94C29.6715 117.633 30.2122 117.469 30.7654 117.469C31.5072 117.469 32.2186 117.763 32.7431 118.288C33.2676 118.812 33.5623 119.524 33.5623 120.266ZM58.3957 116.149C57.4345 109.694 54.2396 103.781 49.3674 99.4401L52.4748 95.1693L60.3955 114.188C59.65 114.756 58.9783 115.415 58.3957 116.149ZM67.1248 128.656C66.0185 128.656 64.937 128.328 64.0171 127.714C63.0972 127.099 62.3802 126.225 61.9568 125.203C61.5335 124.181 61.4227 123.056 61.6385 121.971C61.8544 120.886 62.3871 119.889 63.1694 119.107C63.9517 118.325 64.9484 117.792 66.0335 117.576C67.1186 117.36 68.2433 117.471 69.2654 117.895C70.2876 118.318 71.1612 119.035 71.7758 119.955C72.3905 120.875 72.7185 121.956 72.7185 123.062C72.7185 124.546 72.1292 125.969 71.0802 127.018C70.0311 128.067 68.6083 128.656 67.1248 128.656ZM111.875 142.641C107.275 142.635 102.788 141.212 99.0262 138.566C95.264 135.919 92.409 132.177 90.8499 127.85C89.2908 123.522 89.1034 118.819 90.3131 114.381C91.5229 109.943 94.0711 105.986 97.6107 103.048L105.297 115.128C104.131 116.588 103.493 118.398 103.484 120.266C103.484 121.925 103.976 123.547 104.898 124.927C105.82 126.307 107.131 127.382 108.664 128.018C110.197 128.653 111.884 128.819 113.512 128.495C115.139 128.171 116.634 127.372 117.808 126.199C118.981 125.025 119.78 123.53 120.104 121.903C120.428 120.275 120.262 118.588 119.627 117.055C118.992 115.521 117.916 114.211 116.536 113.289C115.157 112.367 113.534 111.875 111.875 111.875C111.243 111.88 110.613 111.957 109.998 112.104L102.332 100.058C105.366 98.6158 108.686 97.8751 112.045 97.891C115.404 97.9069 118.717 98.679 121.737 100.15C124.757 101.621 127.407 103.754 129.491 106.389C131.574 109.024 133.038 112.095 133.772 115.373C134.507 118.651 134.494 122.052 133.735 125.325C132.975 128.597 131.488 131.656 129.385 134.276C127.281 136.895 124.615 139.007 121.584 140.455C118.553 141.903 115.234 142.65 111.875 142.641ZM111.875 117.469C112.428 117.469 112.969 117.633 113.429 117.94C113.889 118.247 114.247 118.684 114.459 119.195C114.67 119.706 114.726 120.269 114.618 120.811C114.51 121.354 114.244 121.852 113.852 122.243C113.461 122.634 112.963 122.901 112.42 123.009C111.878 123.117 111.316 123.061 110.804 122.85C110.293 122.638 109.857 122.279 109.549 121.819C109.242 121.36 109.078 120.819 109.078 120.266C109.078 119.524 109.373 118.812 109.897 118.288C110.422 117.763 111.133 117.469 111.875 117.469Z" fill="#CDB6A1"/>
<path d="M19.5781 50.3438C22.4931 50.3383 25.2909 49.1953 27.3758 47.1581C31.1308 48.0218 35.0721 47.4795 38.4543 45.6338C39.4779 47.0938 40.8393 48.2845 42.4226 49.1046C44.0058 49.9247 45.7639 50.3499 47.5469 50.3438C50.514 50.313 53.3474 49.1048 55.4237 46.985C57.5 44.8651 58.6491 42.0073 58.6183 39.0402C58.5875 36.0731 57.3793 33.2397 55.2595 31.1634C53.1397 29.0871 50.2819 27.938 47.3148 27.9688C46.6363 23.9256 44.5013 20.2707 41.3127 17.6939C38.1241 15.117 34.1025 13.7966 30.007 13.9817C25.9115 14.1669 22.0255 15.8449 19.0824 18.6989C16.1393 21.5529 14.3428 25.3856 14.0319 29.4735C11.8882 30.6928 10.2084 32.5876 9.25492 34.862C8.30142 37.1365 8.12783 39.6627 8.76125 42.0462C9.39466 44.4298 10.7994 46.5365 12.7563 48.0376C14.7131 49.5387 17.1119 50.3496 19.5781 50.3438ZM17.7518 33.9065C18.3145 33.7102 18.7998 33.3392 19.1369 32.8476C19.474 32.3561 19.6453 31.7697 19.6257 31.174C19.6266 31.0364 19.6107 30.8993 19.5781 30.7656C19.5629 27.7985 20.727 24.9469 22.8143 22.8381C24.9017 20.7293 27.7412 19.536 30.7083 19.5208C33.6754 19.5056 36.527 20.6697 38.6359 22.757C40.7447 24.8443 41.9379 27.6839 41.9531 30.651C41.9531 30.7433 41.9028 31.0761 41.8972 31.1684C41.8762 31.6278 41.9689 32.0854 42.167 32.5004C42.365 32.9155 42.6624 33.2753 43.0328 33.5481C43.4031 33.8208 43.835 33.9979 44.2901 34.0639C44.7453 34.1298 45.2097 34.0825 45.6422 33.9261C46.2506 33.6933 46.8955 33.5702 47.5469 33.5625C48.586 33.5541 49.6069 33.8354 50.4951 34.3746C51.3833 34.9139 52.1038 35.69 52.5757 36.6158C53.0476 37.5416 53.2523 38.5805 53.1668 39.6161C53.0814 40.6517 52.7092 41.643 52.0919 42.479C51.4746 43.3149 50.6367 43.9623 49.6721 44.3487C48.7075 44.7351 47.6543 44.8452 46.6306 44.6666C45.607 44.488 44.6533 44.0278 43.8765 43.3376C43.0997 42.6474 42.5306 41.7544 42.2328 40.7589C42.1003 40.3189 41.8614 39.9183 41.5373 39.5926C41.2131 39.2669 40.8137 39.026 40.3743 38.8914C39.935 38.7567 39.4692 38.7324 39.0182 38.8205C38.5672 38.9087 38.1449 39.1066 37.7886 39.3968C36.3659 40.6159 34.6463 41.4373 32.8039 41.7777C30.9615 42.118 29.0619 41.9653 27.2975 41.335C26.7291 41.1478 26.1157 41.1479 25.5473 41.3351C24.9789 41.5224 24.4856 41.8871 24.1398 42.3755C23.6355 43.0973 22.9674 43.6895 22.1903 44.1035C21.4131 44.5175 20.5489 44.7416 19.6685 44.7574C18.7881 44.7733 17.9164 44.5804 17.1249 44.1946C16.3333 43.8088 15.6444 43.2411 15.1144 42.5379C14.5844 41.8346 14.2285 41.0159 14.0758 40.1487C13.923 39.2815 13.9778 38.3904 14.2356 37.5485C14.4934 36.7065 14.947 35.9375 15.5591 35.3045C16.1712 34.6715 16.9245 34.1925 17.7574 33.9065H17.7518Z" fill="#CDB6A1"/>
<path d="M176.203 153.828H2.79688V159.422H176.203V153.828Z" fill="#CDB6A1"/>
</svg>
