<svg width="148" height="148" viewBox="0 0 148 148" fill="none" xmlns="http://www.w3.org/2000/svg">
<path d="M94.5278 94.1724C94.0695 94.0465 93.7333 93.6411 93.7333 93.1659V71.5333C93.7333 67.4534 90.4132 64.1333 86.3333 64.1333H17.2667C13.1868 64.1333 9.86667 67.4534 9.86667 71.5333V93.1659C9.86667 93.6411 9.53047 94.0465 9.07222 94.1724C3.84995 95.6068 0 100.396 0 106.067V120.867V145.533C0 146.895 1.10507 148 2.46667 148H12.3333C13.6949 148 14.8 146.895 14.8 145.533V139.133C14.8 138.581 15.2477 138.133 15.8 138.133H87.8C88.3523 138.133 88.8 138.581 88.8 139.133V145.533C88.8 146.895 89.9051 148 91.2667 148H101.133C102.495 148 103.6 146.895 103.6 145.533V120.867V106.067C103.6 100.396 99.7501 95.6068 94.5278 94.1724ZM14.8 71.5333C14.8 70.1742 15.9075 69.0666 17.2667 69.0666H86.3333C87.6925 69.0666 88.8 70.1742 88.8 71.5333V92.7333C88.8 93.2856 88.3523 93.7333 87.8 93.7333H84.8667C84.3144 93.7333 83.8667 93.2856 83.8667 92.7333V83.8666C83.8667 79.7868 80.5465 76.4666 76.4667 76.4666H61.6667C57.5868 76.4666 54.2667 79.7868 54.2667 83.8666V92.7333C54.2667 93.2856 53.819 93.7333 53.2667 93.7333H50.3333C49.781 93.7333 49.3333 93.2856 49.3333 92.7333V83.8666C49.3333 79.7868 46.0132 76.4666 41.9333 76.4666H27.1333C23.0535 76.4666 19.7333 79.7868 19.7333 83.8666V92.7333C19.7333 93.2856 19.2856 93.7333 18.7333 93.7333H15.8C15.2477 93.7333 14.8 93.2856 14.8 92.7333V71.5333ZM78.9333 83.8666V92.7333C78.9333 93.2856 78.4856 93.7333 77.9333 93.7333H60.2C59.6477 93.7333 59.2 93.2856 59.2 92.7333V83.8666C59.2 82.5075 60.3075 81.4 61.6667 81.4H76.4667C77.8258 81.4 78.9333 82.5075 78.9333 83.8666ZM44.4 83.8666V92.7333C44.4 93.2856 43.9523 93.7333 43.4 93.7333H25.6667C25.1144 93.7333 24.6667 93.2856 24.6667 92.7333V83.8666C24.6667 82.5075 25.7742 81.4 27.1333 81.4H41.9333C43.2925 81.4 44.4 82.5075 44.4 83.8666ZM98.6667 142.067C98.6667 142.619 98.219 143.067 97.6667 143.067H94.7333C94.1811 143.067 93.7333 142.619 93.7333 142.067V135.667C93.7333 134.305 92.6283 133.2 91.2667 133.2H12.3333C10.9717 133.2 9.86667 134.305 9.86667 135.667V142.067C9.86667 142.619 9.41895 143.067 8.86667 143.067H5.93333C5.38105 143.067 4.93333 142.619 4.93333 142.067V124.333C4.93333 123.781 5.38105 123.333 5.93333 123.333H97.6667C98.2189 123.333 98.6667 123.781 98.6667 124.333V142.067ZM98.6667 117.4C98.6667 117.952 98.219 118.4 97.6667 118.4H5.93333C5.38105 118.4 4.93333 117.952 4.93333 117.4V106.067C4.93333 101.987 8.25347 98.6666 12.3333 98.6666H22.2H46.8667H56.7333H81.4H91.2667C95.3465 98.6666 98.6667 101.987 98.6667 106.067V117.4Z" fill="#CDB6A1"/>
<path d="M145.533 93.7334H111C109.638 93.7334 108.533 94.8385 108.533 96.2001V115.933V130.733C108.533 132.096 109.638 133.2 111 133.2C112.362 133.2 113.467 132.096 113.467 130.733V121.4C113.467 119.743 114.81 118.4 116.467 118.4H140.067C141.723 118.4 143.067 119.743 143.067 121.4V130.733C143.067 132.096 144.171 133.2 145.533 133.2C146.896 133.2 148 132.096 148 130.733V115.933V96.2001C148 94.8385 146.895 93.7334 145.533 93.7334ZM143.067 110.467C143.067 112.124 141.723 113.467 140.067 113.467H116.467C114.81 113.467 113.467 112.124 113.467 110.467V101.667C113.467 100.01 114.81 98.6667 116.467 98.6667H140.067C141.723 98.6667 143.067 100.01 143.067 101.667V110.467Z" fill="#CDB6A1"/>
<path d="M130.734 103.6H125.8C124.438 103.6 123.333 104.704 123.333 106.067C123.333 107.429 124.438 108.533 125.8 108.533H130.734C132.096 108.533 133.2 107.429 133.2 106.067C133.2 104.704 132.096 103.6 130.734 103.6Z" fill="#CDB6A1"/>
<path d="M140.474 73.2181L135.541 58.4181C135.203 57.4117 134.263 56.7334 133.2 56.7334H123.333C122.27 56.7334 121.331 57.4117 120.993 58.4206L116.059 73.2206C115.808 73.9729 115.936 74.7993 116.4 75.4431C116.863 76.0869 117.608 76.4667 118.4 76.4667H123.8C124.905 76.4667 125.8 77.3622 125.8 78.4667V81.8667C125.8 82.9713 124.905 83.8667 123.8 83.8667H122.867C121.762 83.8667 120.867 84.7622 120.867 85.8667V86.8001C120.867 87.9046 121.762 88.8001 122.867 88.8001H133.667C134.771 88.8001 135.667 87.9046 135.667 86.8001V85.8667C135.667 84.7622 134.771 83.8667 133.667 83.8667H132.733C131.629 83.8667 130.733 82.9713 130.733 81.8667V78.4667C130.733 77.3622 131.629 76.4667 132.733 76.4667H138.133C138.925 76.4667 139.67 76.0869 140.134 75.4406C140.598 74.7968 140.723 73.9705 140.474 73.2181ZM124.597 71.5334C123.231 71.5334 122.267 70.1958 122.699 68.9007L124.656 63.034C124.928 62.2175 125.692 61.6667 126.553 61.6667H129.982C130.843 61.6667 131.608 62.2177 131.88 63.0344L133.835 68.9011C134.267 70.1961 133.303 71.5334 131.938 71.5334H124.597Z" fill="#CDB6A1"/>
<path d="M146.542 32.2813L75.0089 0.2146C74.3651 -0.0715333 73.6325 -0.0715333 72.9911 0.2146L1.4578 32.2813C0.5698 32.6809 0 33.5615 0 34.5333V61.6667C0 63.029 1.10436 64.1333 2.46667 64.1333C3.82897 64.1333 4.93333 63.029 4.93333 61.6667V38.0721C4.93333 36.89 5.62752 35.8181 6.70622 35.3346L72.7728 5.72021C73.5535 5.37027 74.4465 5.37028 75.2271 5.72024L141.294 35.337C142.373 35.8205 143.067 36.8924 143.067 38.0745V61.6667C143.067 63.029 144.171 64.1333 145.533 64.1333C146.896 64.1333 148 63.029 148 61.6667V34.5333C148 33.5615 147.43 32.6809 146.542 32.2813Z" fill="#CDB6A1"/>
<path d="M91.2615 36.5745C91.228 35.2145 89.9394 34.307 88.5978 34.5328L88.199 34.5999C87.0746 34.7891 86.3334 35.8598 86.3334 37.0001C86.3334 43.8007 80.8007 49.3334 74.0001 49.3334C67.1995 49.3334 61.6667 43.8007 61.6667 37.0001C61.6667 30.1995 67.1995 24.6667 74.0001 24.6667C74.5787 24.6667 75.1531 24.7066 75.7204 24.7857C77.0703 24.974 78.4826 24.3274 78.9364 23.0421C79.3898 21.7581 78.7178 20.3304 77.3823 20.0647C76.274 19.8443 75.1432 19.7334 74.0001 19.7334C64.4787 19.7334 56.7334 27.4787 56.7334 37.0001C56.7334 46.5214 64.4787 54.2667 74.0001 54.2667C83.5214 54.2667 91.2667 46.5214 91.2667 37.0001C91.2667 36.8582 91.265 36.7163 91.2615 36.5745Z" fill="#CDB6A1"/>
<path d="M91.2667 22.2C90.3035 21.2368 88.742 21.2368 87.7788 22.2L75.5947 34.3841C74.714 35.2648 73.2861 35.2648 72.4053 34.3841C71.5246 33.5034 70.0967 33.5034 69.2159 34.3841L69.0667 34.5333C68.1035 35.4965 68.1035 37.058 69.0667 38.0212L72.2561 41.2106C72.7371 41.6916 73.3686 41.9333 74 41.9333C74.6315 41.9333 75.263 41.6916 75.744 41.2106L91.2667 25.6879C92.2298 24.7247 92.2298 23.1631 91.2667 22.2Z" fill="#CDB6A1"/>
</svg>
