<svg width="153" height="153" viewBox="0 0 153 153" fill="none" xmlns="http://www.w3.org/2000/svg">
<path d="M42.5621 128.589C42.2116 128.589 41.8652 128.513 41.5475 128.364C41.2298 128.216 40.9487 128 40.724 127.73C40.4993 127.461 40.3365 127.146 40.2472 126.807C40.158 126.468 40.1444 126.113 40.2074 125.769C44.8882 100.137 34.5894 84.9056 34.4824 84.7549C34.2109 84.3633 34.0621 83.8996 34.0551 83.4231C34.0481 82.9466 34.1831 82.4787 34.443 82.0792C35.9736 79.7376 37.0822 72.9494 37.139 65.5708C37.2084 56.4446 35.7196 52.0476 35.0293 51.4428C34.1694 50.8555 33.1777 50.4896 32.1424 50.3776C31.1071 50.2656 30.0602 50.411 29.0946 50.8009C28.3588 51.0898 27.7146 51.5718 27.2297 52.196C26.7449 52.8202 26.4373 53.5636 26.3394 54.348C25.8744 57.3733 24.434 61.6597 22.7666 66.6238C20.927 72.1002 18.8412 78.3068 17.8592 83.5889C16.7399 89.948 16.202 96.3959 16.2521 102.853C16.2669 103.46 16.05 104.05 15.6455 104.503L6.28024 114.989C6.07112 115.223 5.81792 115.414 5.5351 115.55C5.25229 115.687 4.94539 115.766 4.63194 115.784C4.31849 115.801 4.00463 115.757 3.70826 115.654C3.4119 115.55 3.13884 115.389 2.90468 115.18C2.67052 114.971 2.47984 114.718 2.34353 114.435C2.20722 114.152 2.12795 113.845 2.11025 113.532C2.09255 113.218 2.13675 112.904 2.24035 112.608C2.34395 112.311 2.5049 112.038 2.71403 111.804L11.4613 102.011C11.4591 95.5421 12.0271 89.0856 13.1587 82.7163C14.2028 77.1043 16.3448 70.7285 18.2346 65.1028C19.7652 60.5457 21.2109 56.242 21.6143 53.6224C21.8382 52.0293 22.4764 50.5229 23.4651 49.2538C24.4539 47.9848 25.7584 46.9975 27.2484 46.3908C28.9723 45.685 30.846 45.4238 32.6972 45.6311C34.5485 45.8384 36.3179 46.5075 37.8431 47.5771C43.4993 51.6621 42.7373 75.1046 39.1926 83.2716C41.7481 87.6243 49.2404 102.921 44.9109 126.627C44.8107 127.177 44.5208 127.674 44.0917 128.033C43.6625 128.391 43.1213 128.588 42.5621 128.589Z" fill="#CDB6A1"/>
<path d="M38.482 150.071C38.013 150.071 37.5543 149.934 37.1631 149.675C36.7719 149.416 36.4655 149.048 36.282 148.616C36.0984 148.185 36.0459 147.709 36.1309 147.247C36.216 146.786 36.4348 146.36 36.7602 146.022L44.9146 137.555C45.1895 137.269 45.5311 137.057 45.9087 136.936C46.2863 136.815 46.6879 136.79 47.0775 136.863C47.1654 136.88 56.4607 138.528 64.385 134.566C64.5046 134.506 72.4905 130.617 75.2791 123.841C75.5205 123.254 75.9849 122.788 76.5702 122.544C77.1556 122.3 77.8139 122.298 78.4004 122.54C78.9869 122.781 79.4535 123.245 79.6975 123.831C79.9416 124.416 79.9431 125.074 79.7018 125.661C76.2013 134.167 66.8767 138.676 66.481 138.864C58.947 142.629 50.67 142.133 47.509 141.755L40.2051 149.339C39.9821 149.571 39.7145 149.756 39.4184 149.882C39.1223 150.007 38.8038 150.072 38.482 150.071Z" fill="#CDB6A1"/>
<path d="M104.985 70.8415C104.351 70.8415 103.743 70.5896 103.295 70.1413C102.846 69.693 102.594 69.0849 102.594 68.4509V10.5977C102.594 7.43015 99.5398 4.85604 95.7848 4.85604H45.6414C41.8857 4.85604 38.8281 7.43194 38.8281 10.5977V49.5159C38.8281 50.1499 38.5763 50.758 38.1279 51.2063C37.6796 51.6547 37.0715 51.9065 36.4375 51.9065C35.8035 51.9065 35.1954 51.6547 34.7471 51.2063C34.2987 50.758 34.0469 50.1499 34.0469 49.5159V10.5959C34.0469 4.79389 39.2465 0.072998 45.6414 0.072998H95.7848C102.176 0.072998 107.376 4.79448 107.376 10.5959V68.4491C107.376 68.7632 107.314 69.0742 107.194 69.3645C107.074 69.6547 106.898 69.9185 106.676 70.1406C106.454 70.3628 106.191 70.5391 105.9 70.6593C105.61 70.7796 105.299 70.8415 104.985 70.8415Z" fill="#CDB6A1"/>
<path d="M63.3891 124.005H44.1069C43.4729 124.005 42.8648 123.753 42.4165 123.304C41.9682 122.856 41.7163 122.248 41.7163 121.614C41.7163 120.98 41.9682 120.372 42.4165 119.924C42.8648 119.475 43.4729 119.223 44.1069 119.223H63.3921C64.0261 119.223 64.6342 119.475 65.0825 119.924C65.5309 120.372 65.7827 120.98 65.7827 121.614C65.7827 122.248 65.5309 122.856 65.0825 123.304C64.6342 123.753 64.0261 124.005 63.3921 124.005H63.3891Z" fill="#CDB6A1"/>
<path d="M104.607 17.7344H36.6113C35.9773 17.7344 35.3692 17.4825 34.9209 17.0342C34.4726 16.5858 34.2207 15.9778 34.2207 15.3438C34.2207 14.7097 34.4726 14.1017 34.9209 13.6533C35.3692 13.205 35.9773 12.9531 36.6113 12.9531H104.607C105.241 12.9531 105.849 13.205 106.297 13.6533C106.745 14.1017 106.997 14.7097 106.997 15.3438C106.997 15.9778 106.745 16.5858 106.297 17.0342C105.849 17.4825 105.241 17.7344 104.607 17.7344Z" fill="#CDB6A1"/>
<path d="M55.9125 110.415H44.6348C44.0007 110.415 43.3927 110.163 42.9443 109.715C42.496 109.267 42.2441 108.659 42.2441 108.025C42.2441 107.391 42.496 106.783 42.9443 106.334C43.3927 105.886 44.0007 105.634 44.6348 105.634H55.9125C56.5466 105.634 57.1546 105.886 57.603 106.334C58.0513 106.783 58.3032 107.391 58.3032 108.025C58.3032 108.659 58.0513 109.267 57.603 109.715C57.1546 110.163 56.5466 110.415 55.9125 110.415Z" fill="#CDB6A1"/>
<path d="M106.842 152.928C106.378 152.928 105.923 152.793 105.534 152.539C105.145 152.285 104.839 151.923 104.652 151.498L102.535 146.679L89.9078 140.916C89.6328 140.79 89.3841 140.613 89.1744 140.395L65.0602 115.239C65.0347 115.212 65.0096 115.184 64.9849 115.156C64.6592 114.783 61.8388 111.411 62.9654 107.888C63.688 105.625 65.7236 104.079 69.0137 103.292C74.8372 101.9 81.9679 105.965 86.6691 109.369L67.305 65.291C66.3626 63.1717 66.2856 60.7682 67.0904 58.593C67.4816 57.5171 68.0871 56.5317 68.8702 55.6966C69.6533 54.8615 70.5977 54.1941 71.6464 53.7347C73.7774 52.8326 76.1791 52.8124 78.325 53.6786C80.4708 54.5447 82.1856 56.2265 83.0933 58.3552C83.3428 58.9347 83.3531 59.5894 83.1219 60.1765C82.8908 60.7636 82.4369 61.2355 81.8592 61.4893C81.2815 61.7431 80.6269 61.7582 80.0382 61.5314C79.4494 61.3046 78.9741 60.8542 78.716 60.2784C78.3189 59.3101 77.5544 58.5386 76.5898 58.1326C75.6252 57.7266 74.5391 57.7191 73.569 58.1119C73.109 58.3156 72.695 58.6104 72.3521 58.9786C72.0093 59.3467 71.7446 59.7806 71.574 60.2539C71.2025 61.2662 71.2413 62.3836 71.6822 63.3677L92.7394 111.304C92.9377 111.755 92.992 112.256 92.8948 112.738L92.3199 115.601C92.2363 116.018 92.0433 116.404 91.7607 116.721C91.478 117.039 91.116 117.275 90.7118 117.406C90.3076 117.536 89.8758 117.557 89.461 117.465C89.0461 117.374 88.6631 117.174 88.3515 116.885C85.1719 113.947 75.6937 106.605 70.1229 107.945C68.4047 108.356 67.651 108.936 67.5189 109.342C67.3068 109.991 67.9917 111.299 68.5625 111.987L92.3073 136.759L105.348 142.71C105.882 142.954 106.307 143.386 106.543 143.923L109.027 149.577C109.187 149.941 109.254 150.339 109.222 150.735C109.189 151.131 109.058 151.513 108.841 151.846C108.624 152.179 108.327 152.452 107.978 152.641C107.628 152.831 107.237 152.93 106.84 152.93L106.842 152.928Z" fill="#CDB6A1"/>
<path d="M98.7256 102.269C98.2611 102.269 97.8065 102.134 97.4175 101.881C97.0285 101.627 96.7219 101.265 96.5352 100.84L78.7178 60.2785C78.4683 59.6989 78.458 59.0442 78.6892 58.4571C78.9203 57.87 79.3742 57.3981 79.9519 57.1443C80.5296 56.8905 81.1842 56.8754 81.773 57.1022C82.3618 57.329 82.837 57.7794 83.0951 58.3552L100.913 98.9163C101.073 99.2801 101.14 99.6781 101.107 100.074C101.075 100.47 100.944 100.852 100.727 101.185C100.51 101.518 100.213 101.791 99.8635 101.98C99.5141 102.17 99.123 102.269 98.7256 102.269Z" fill="#CDB6A1"/>
<path d="M92.9256 89.0664C92.4612 89.0666 92.0069 88.9316 91.618 88.6778C91.2291 88.4241 90.9226 88.0625 90.7358 87.6374C89.7934 85.5182 89.7164 83.1146 90.5212 80.9395C90.9132 79.864 91.519 78.8791 92.3019 78.044C93.0849 77.209 94.0288 76.5411 95.0768 76.0807C96.1248 75.6203 97.2552 75.3769 98.3998 75.3652C99.5444 75.3534 100.68 75.5736 101.737 76.0124C103.883 76.8915 105.6 78.5742 106.523 80.7016C106.654 80.9897 106.727 81.301 106.736 81.6173C106.746 81.9336 106.693 82.2486 106.58 82.5442C106.467 82.8398 106.296 83.1099 106.078 83.3391C105.86 83.5682 105.598 83.7517 105.308 83.879C105.018 84.0062 104.706 84.0747 104.39 84.0804C104.074 84.0861 103.759 84.029 103.465 83.9123C103.171 83.7955 102.903 83.6216 102.677 83.4005C102.45 83.1794 102.27 82.9155 102.146 82.6243C101.72 81.6338 100.923 80.8492 99.9265 80.438C99.463 80.2421 98.9643 80.1429 98.461 80.1464C97.9577 80.15 97.4605 80.2562 96.9998 80.4587C96.539 80.6611 96.1244 80.9555 95.7814 81.3237C95.4383 81.692 95.1741 82.1264 95.0048 82.6003C94.6332 83.6125 94.6722 84.7298 95.1136 85.7135C95.2736 86.0774 95.3403 86.4754 95.3078 86.8715C95.2752 87.2676 95.1444 87.6494 94.9272 87.9823C94.71 88.3151 94.4132 88.5886 94.0637 88.7779C93.7142 88.9672 93.323 89.0663 92.9256 89.0664Z" fill="#CDB6A1"/>
<path d="M110.578 98.2644C110.114 98.2646 109.659 98.1294 109.27 97.8754C108.881 97.6215 108.575 97.2596 108.388 96.8342L102.146 82.6249C101.897 82.0454 101.886 81.3907 102.117 80.8036C102.349 80.2165 102.802 79.7446 103.38 79.4908C103.958 79.237 104.612 79.2218 105.201 79.4486C105.79 79.6755 106.265 80.1259 106.523 80.7016L112.766 94.9115C112.926 95.2753 112.993 95.6732 112.96 96.0693C112.927 96.4654 112.797 96.8471 112.58 97.18C112.362 97.5128 112.066 97.7863 111.716 97.9756C111.367 98.165 110.976 98.2642 110.578 98.2644Z" fill="#CDB6A1"/>
<path d="M106.594 89.1918C106.129 89.1921 105.675 89.0571 105.286 88.8034C104.897 88.5496 104.59 88.188 104.403 87.7628C103.461 85.6436 103.384 83.24 104.189 81.0648C104.581 79.9893 105.186 79.0042 105.969 78.1691C106.752 77.334 107.696 76.6661 108.744 76.2056C109.792 75.7452 110.923 75.5019 112.067 75.4902C113.212 75.4785 114.347 75.6988 115.404 76.1378C117.55 77.0167 119.268 78.6995 120.191 80.827C120.322 81.1151 120.394 81.4263 120.404 81.7426C120.413 82.0589 120.36 82.374 120.247 82.6696C120.134 82.9651 119.964 83.2353 119.745 83.4645C119.527 83.6936 119.265 83.8771 118.976 84.0044C118.686 84.1316 118.374 84.2001 118.057 84.2058C117.741 84.2115 117.427 84.1544 117.133 84.0377C116.838 83.9209 116.57 83.747 116.344 83.5259C116.118 83.3048 115.937 83.0409 115.814 82.7496C115.387 81.7592 114.591 80.9746 113.594 80.5634C113.13 80.3673 112.632 80.268 112.128 80.2714C111.625 80.2749 111.128 80.3811 110.667 80.5836C110.206 80.786 109.792 81.0804 109.449 81.4488C109.106 81.8172 108.841 82.2517 108.672 82.7257C108.301 83.7379 108.34 84.8552 108.781 85.8389C108.941 86.2027 109.008 86.6007 108.975 86.9968C108.943 87.3928 108.812 87.7746 108.595 88.1074C108.378 88.4402 108.081 88.7137 107.732 88.903C107.382 89.0924 106.991 89.1916 106.594 89.1918Z" fill="#CDB6A1"/>
<path d="M123.113 95.8086C122.648 95.8088 122.194 95.6736 121.805 95.4198C121.416 95.1659 121.11 94.8042 120.923 94.379L115.814 82.7504C115.565 82.1708 115.554 81.5162 115.785 80.9291C116.017 80.342 116.47 79.8701 117.048 79.6163C117.626 79.3624 118.28 79.3473 118.869 79.5741C119.458 79.8009 119.933 80.2513 120.191 80.8271L125.3 92.4557C125.46 92.8195 125.527 93.2175 125.494 93.6136C125.462 94.0096 125.331 94.3914 125.114 94.7242C124.897 95.057 124.6 95.3305 124.251 95.5198C123.901 95.7092 123.51 95.8084 123.113 95.8086Z" fill="#CDB6A1"/>
<path d="M120.164 89.0962C119.7 89.0964 119.245 88.9613 118.856 88.7074C118.468 88.4535 118.161 88.0919 117.974 87.6666C117.483 86.6246 117.206 85.4947 117.158 84.3436C117.111 83.1925 117.294 82.0436 117.698 80.9647C118.102 79.8857 118.718 78.8987 119.51 78.0618C120.302 77.2248 121.253 76.555 122.308 76.0918C123.363 75.6286 124.5 75.3815 125.652 75.3649C126.804 75.3484 127.947 75.5627 129.015 75.9954C130.083 76.4281 131.053 77.0704 131.868 77.8842C132.684 78.698 133.328 79.667 133.763 80.7338C134.018 81.3144 134.032 81.9725 133.802 82.5634C133.572 83.1543 133.116 83.6296 132.536 83.8847C131.955 84.1398 131.297 84.1538 130.706 83.9237C130.115 83.6936 129.64 83.2382 129.385 82.6577C129.201 82.1685 128.919 81.722 128.557 81.3453C128.194 80.9687 127.759 80.6698 127.277 80.467C126.796 80.2641 126.278 80.1616 125.755 80.1656C125.233 80.1696 124.716 80.28 124.238 80.4902C123.759 80.7004 123.329 81.0059 122.972 81.3881C122.615 81.7702 122.341 82.221 122.164 82.713C121.988 83.2049 121.913 83.7276 121.945 84.2493C121.978 84.7709 122.116 85.2805 122.352 85.747C122.511 86.1107 122.578 86.5086 122.545 86.9046C122.513 87.3006 122.382 87.6822 122.165 88.015C121.948 88.3478 121.651 88.6212 121.302 88.8105C120.953 88.9998 120.562 89.099 120.164 89.0992V89.0962Z" fill="#CDB6A1"/>
<path d="M148.505 135.535C148.04 135.535 147.585 135.4 147.196 135.147C146.807 134.893 146.501 134.531 146.314 134.106L144.011 128.861C143.857 128.511 143.789 128.129 143.814 127.747L144.499 117.062L129.385 82.6558C129.13 82.0752 129.116 81.4172 129.346 80.8264C129.576 80.2356 130.032 79.7605 130.612 79.5055C131.193 79.2505 131.851 79.2366 132.442 79.4669C133.033 79.6971 133.508 80.1526 133.763 80.7331L149.111 115.674C149.265 116.024 149.333 116.407 149.308 116.789L148.623 127.473L150.692 132.184C150.852 132.548 150.919 132.946 150.886 133.342C150.854 133.738 150.723 134.12 150.506 134.453C150.289 134.785 149.992 135.059 149.642 135.248C149.293 135.438 148.902 135.537 148.505 135.537V135.535Z" fill="#CDB6A1"/>
</svg>
