<svg width="170" height="170" viewBox="0 0 170 170" fill="none" xmlns="http://www.w3.org/2000/svg">
<path d="M140.2 116.875H129.824V106.582C129.833 106.194 129.765 105.808 129.623 105.447C129.481 105.086 129.268 104.757 128.998 104.479C128.727 104.201 128.404 103.979 128.047 103.827C127.69 103.675 127.307 103.596 126.919 103.594H117.622C116.821 103.592 116.051 103.903 115.477 104.462C114.903 105.02 114.57 105.781 114.551 106.582V116.875H104.008C103.208 116.873 102.438 117.184 101.864 117.743C101.29 118.302 100.957 119.063 100.938 119.863V129.16C100.957 129.961 101.29 130.722 101.864 131.281C102.438 131.839 103.208 132.151 104.008 132.148H114.551V142.773C114.57 143.574 114.903 144.335 115.477 144.894C116.051 145.452 116.821 145.764 117.622 145.762H126.919C127.307 145.76 127.69 145.68 128.047 145.528C128.404 145.376 128.727 145.155 128.998 144.877C129.268 144.599 129.481 144.269 129.623 143.908C129.765 143.547 129.833 143.161 129.824 142.773V132.148H140.2C140.588 132.146 140.972 132.067 141.329 131.915C141.686 131.763 142.009 131.542 142.279 131.264C142.55 130.985 142.762 130.656 142.904 130.295C143.046 129.934 143.114 129.548 143.105 129.16V119.863C143.114 119.475 143.046 119.09 142.904 118.729C142.762 118.367 142.55 118.038 142.279 117.76C142.009 117.482 141.686 117.26 141.329 117.108C140.972 116.956 140.588 116.877 140.2 116.875ZM138.457 127.5H128.247C127.446 127.498 126.676 127.809 126.102 128.368C125.528 128.927 125.195 129.688 125.176 130.488V141.113H119.199V130.488C119.208 130.1 119.14 129.715 118.998 129.354C118.856 128.992 118.643 128.663 118.373 128.385C118.102 128.107 117.779 127.885 117.422 127.733C117.065 127.581 116.682 127.502 116.294 127.5H105.586V121.523H116.294C116.682 121.521 117.065 121.442 117.422 121.29C117.779 121.138 118.102 120.917 118.373 120.639C118.643 120.36 118.856 120.031 118.998 119.67C119.14 119.309 119.208 118.923 119.199 118.535V108.242H125.176V118.535C125.195 119.336 125.528 120.097 126.102 120.656C126.676 121.214 127.446 121.526 128.247 121.523H138.457V127.5Z" fill="#CDB6A1"/>
<path d="M122.795 84.0564C116.375 84.0582 110.05 85.6133 104.361 88.5889C98.6718 91.5645 93.7869 95.8723 90.1232 101.145C89.4973 100.952 88.905 100.765 88.3465 100.583L86.0907 94.1847C93.0634 88.9609 94.9732 80.8039 95.4945 76.8527C100.183 75.5807 104.49 70.0713 106.215 62.7702C107.145 58.8214 105.783 55.1448 102.826 53.6211C102.007 53.1993 101.098 52.9789 100.176 52.9783C100.329 51.8325 100.489 50.431 100.654 48.7101C101.039 44.6835 101.284 40.6165 101.284 39.5858C101.284 38.8554 101.299 38.1023 101.314 37.3051C101.438 30.947 101.591 23.0347 94.5774 15.9412C88.2835 9.57552 79.3731 6.06629 70.1343 6.32162C60.9307 6.5733 52.3002 10.5006 46.4552 17.0964C46.2759 17.2993 46.0937 17.5037 45.9086 17.7093C42.3831 21.6485 37.5544 27.0437 37.901 40.8598C37.9342 42.2122 39.2292 48.4099 40.5702 53.1334C39.7885 53.211 39.0303 53.4452 38.341 53.822C35.5024 55.356 34.2009 58.9519 35.102 62.7706C36.8286 70.0842 41.1486 75.6003 45.8482 76.8583C46.41 80.7331 48.3766 88.8095 55.1713 94.0376L52.1953 100.158C50.0703 100.824 47.6754 101.483 45.2034 102.176C29.2264 106.654 7.30469 112.786 7.30469 132.709V153.54C7.30469 158.461 9.9367 163.691 14.6612 163.691H122.934C122.956 163.691 122.977 163.689 122.998 163.688C133.536 163.628 143.62 159.392 151.04 151.91C158.461 144.428 162.612 134.309 162.586 123.771C162.559 113.233 158.355 103.136 150.897 95.6915C143.438 88.2472 133.333 84.0632 122.795 84.0564ZM49.3731 20.8081C49.563 20.5961 49.7504 20.3858 49.9352 20.1773C54.9303 14.5401 62.3389 11.1829 70.2618 10.9664C78.2229 10.7453 85.8796 13.7528 91.2724 19.2077C96.9056 24.9051 96.7792 31.4438 96.6676 37.2128C96.6517 38.0336 96.6367 38.8089 96.6367 39.5838C96.6367 40.0766 96.5869 41.0989 96.5019 42.3995C95.378 38.2215 93.8065 34.1863 91.6426 31.8269L91.4706 31.4829C91.2744 31.0903 90.9709 30.7612 90.5954 30.5339C90.2199 30.3065 89.7877 30.1902 89.3488 30.1983C88.9099 30.2063 88.4822 30.3386 88.1154 30.5796C87.7485 30.8207 87.4574 31.1607 87.2757 31.5603C83.5308 39.7977 79.821 39.466 73.6751 38.9178C72.9615 38.854 72.2357 38.7893 71.498 38.7382C69.1595 38.5721 68.3134 39.9388 68.0581 40.5311C67.3004 42.2909 68.3533 44.1911 70.2807 46.4443C64.1451 45.7118 62.5899 41.2241 61.1887 37.176C60.2162 34.3663 59.1142 31.1815 55.9094 31.1815C54.3652 31.1512 52.8324 31.4517 51.4139 32.0629C49.9954 32.674 48.7241 33.5815 47.6853 34.7246C45.3037 37.2812 43.9616 40.9262 43.2145 44.4982C42.9121 43.2617 42.6903 42.0069 42.5505 40.7416C42.2473 28.7699 46.0328 24.5398 49.3731 20.8081ZM50.2851 74.7114C50.2571 74.1127 50.0004 73.5476 49.5679 73.1326C49.1355 72.7175 48.5603 72.4843 47.9609 72.4808C47.9277 72.4808 47.8945 72.4808 47.8596 72.4808C44.4557 72.4808 40.8614 66.9279 39.6253 61.7014C39.1521 59.696 39.7734 58.3303 40.5506 57.91C41.4295 57.4358 42.3669 58.2709 42.7288 58.6524C43.0326 58.9723 43.4212 59.1991 43.8491 59.3064C44.2771 59.4136 44.7267 59.3968 45.1455 59.258C45.5643 59.1192 45.9349 58.864 46.214 58.5223C46.4931 58.1807 46.6693 57.7666 46.7218 57.3286C46.9508 56.9299 47.0558 56.472 47.0236 56.0134C46.7766 52.4484 47.0259 42.2431 51.0877 37.8905C51.6621 37.2532 52.3622 36.7416 53.1438 36.3879C53.9255 36.0342 54.7719 35.846 55.6298 35.8352C55.9791 36.3396 56.4453 37.686 56.7949 38.697C58.5175 43.6735 61.7236 52.9345 75.9319 50.9074C76.3675 50.8453 76.7765 50.6608 77.1114 50.3754C77.4463 50.0899 77.6932 49.7153 77.8236 49.295C77.9539 48.8748 77.9623 48.4261 77.8477 48.0013C77.7331 47.5765 77.5003 47.1929 77.1764 46.8952C76.0496 45.8593 74.9801 44.7628 73.9726 43.6107C79.4368 44.0852 85.0106 44.2638 89.6172 37.0152C92.5285 42.4752 94.0442 53.3323 94.4154 57.6437C94.4653 58.2231 94.7305 58.7627 95.1587 59.1561C95.587 59.5495 96.1472 59.7681 96.7287 59.7687C96.7951 59.7687 96.8615 59.7657 96.9302 59.7597C97.3513 59.7236 97.7545 59.5733 98.0964 59.325C98.4383 59.0767 98.706 58.7398 98.8706 58.3506C99.3295 57.897 100.029 57.4076 100.697 57.7506C101.549 58.1899 102.164 59.6883 101.691 61.7018C100.455 66.9293 96.8612 72.4818 93.4562 72.4818H93.3981C92.9469 72.4745 92.5033 72.5977 92.1204 72.8364C91.7957 73.0389 91.5263 73.3187 91.336 73.6508C91.1458 73.9828 91.0408 74.3568 91.0304 74.7393C90.9307 76.6399 90.0306 86.3581 82.1117 91.2798C82.0987 91.2874 82.0868 91.296 82.0742 91.304C78.9909 93.2062 75.15 94.1711 70.6579 94.1711C66.1781 94.1711 62.3458 93.1843 59.2659 91.2373C51.4595 86.3083 50.415 76.6063 50.2848 74.7114H50.2851ZM55.94 103.086L59.1607 96.4641C62.4959 98.0266 66.3498 98.8189 70.6582 98.8189C74.9043 98.8189 78.707 98.0665 82.0071 96.5836L84.3399 103.201C84.4567 103.532 84.6471 103.833 84.8969 104.08C85.1467 104.328 85.4493 104.515 85.7819 104.628C86.361 104.826 86.974 105.027 87.6211 105.233C86.482 107.372 85.542 109.611 84.8127 111.921C82.6618 114.469 78.1479 118.365 70.6582 118.365C68.1308 118.393 65.6261 117.887 63.3073 116.881C60.9885 115.875 58.9079 114.392 57.201 112.527C54.7493 109.898 53.3617 106.966 52.8939 104.807C53.464 104.632 54.0228 104.457 54.5687 104.28C54.8657 104.183 55.1401 104.028 55.3757 103.823C55.6112 103.617 55.803 103.367 55.9396 103.086H55.94ZM11.9531 153.54V132.709C11.9531 116.311 31.103 110.956 46.4572 106.652C47.1069 106.47 47.768 106.29 48.4002 106.112C50.0819 113.177 57.6579 123.012 70.6463 123.012C75.0974 123.069 79.4679 121.823 83.221 119.43C82.3331 127.369 83.8535 135.393 87.5847 142.457C91.316 149.521 97.0856 155.3 104.144 159.043H14.6612C13.1816 159.043 11.9531 156.085 11.9531 153.54ZM122.795 159.043C115.839 159.043 109.04 156.98 103.257 153.116C97.4731 149.251 92.9655 143.759 90.3037 137.333C87.6419 130.906 86.9455 123.835 88.3025 117.013C89.6595 110.191 93.009 103.925 97.9274 99.0062C102.846 94.0878 109.112 90.7383 115.934 89.3813C122.756 88.0243 129.828 88.7207 136.254 91.3825C142.68 94.0443 148.173 98.5519 152.037 104.335C155.901 110.119 157.964 116.918 157.964 123.874C157.954 133.198 154.245 142.138 147.652 148.731C141.059 155.324 132.119 159.033 122.795 159.043Z" fill="#CDB6A1"/>
</svg>
